<svg width="1305" height="1096" xmlns="http://www.w3.org/2000/svg" xmlns:xlink="http://www.w3.org/1999/xlink" xml:space="preserve" overflow="hidden"><defs><clipPath id="clip0"><rect x="226" y="2542" width="1305" height="1096"/></clipPath></defs><g clip-path="url(#clip0)" transform="translate(-226 -2542)"><rect x="232" y="2542" width="1299" height="1058" fill="#FFFFFF"/><rect x="360" y="2570" width="1017" height="933" fill="#FFFFFF"/><g><path d="M509.5 3220.61 1271.5 3220.61M509.5 3103.6 1271.5 3103.6M509.5 2985.6 1271.5 2985.6M509.5 2868.59 1271.5 2868.59M509.5 2750.59 1271.5 2750.59M509.5 2633.5 1271.5 2633.5" stroke="#F2F2F2" stroke-width="3.4375" stroke-linejoin="round" stroke-miterlimit="10" fill="none"/></g><g><path d="M0 0 0.000360892 705" stroke="#F2F2F2" stroke-width="3.4375" stroke-linejoin="round" stroke-miterlimit="10" fill="none" fill-rule="evenodd" transform="matrix(1 0 0 -1 509.5 3338.5)"/></g><g><path d="M509.5 3338.5 1271.5 3338.5" stroke="#BFBFBF" stroke-width="3.4375" stroke-linejoin="round" stroke-miterlimit="10" fill="none" fill-rule="evenodd"/></g><g><path d="M509.5 3338.5 509.5 3358.5M699.523 3338.5 699.523 3358.5M890.529 3338.5 890.529 3358.5M1080.54 3338.5 1080.54 3358.5M1271.5 3338.5 1271.5 3358.5" stroke="#BFBFBF" stroke-width="3.4375" stroke-linejoin="round" stroke-miterlimit="10" fill="none"/></g><g><path d="M509 3032 700.023 3032 890.029 3032 1081.04 3032 1271 3032" stroke="#7F7F7F" stroke-width="5.72917" stroke-linecap="round" stroke-linejoin="round" stroke-miterlimit="10" stroke-dasharray="11.4583 11.4583" fill="none"/></g><g><path d="M509 2828 700.023 2828 890.029 2828 1081.04 2828 1271 2828" stroke="#7F7F7F" stroke-width="5.72917" stroke-linecap="round" stroke-linejoin="round" stroke-miterlimit="10" stroke-dasharray="11.4583 11.4583" fill="none"/></g><g><path d="M509.5 3043.6 699.523 3144.6 890.529 3248.5 1080.54 2926.6 1271.5 2718.5" stroke="#BE34BE" stroke-width="12.6042" stroke-linecap="round" stroke-linejoin="round" stroke-miterlimit="10" fill="none"/></g><g><path d="M529.003 3043.17C529.003 3054.49 519.825 3063.67 508.504 3063.67 497.182 3063.67 488.004 3054.49 488.004 3043.17 488.004 3031.85 497.182 3022.67 508.504 3022.67 519.825 3022.67 529.003 3031.85 529.003 3043.17Z" stroke="#FFFFFF" stroke-width="5.72917" stroke-linejoin="round" stroke-miterlimit="10" fill="#BE34BE"/><path d="M720.003 3143.17C720.003 3154.49 710.825 3163.67 699.504 3163.67 688.182 3163.67 679.004 3154.49 679.004 3143.17 679.004 3131.85 688.182 3122.67 699.504 3122.67 710.825 3122.67 720.003 3131.85 720.003 3143.17Z" stroke="#FFFFFF" stroke-width="5.72917" stroke-linejoin="round" stroke-miterlimit="10" fill="#BE34BE"/><path d="M910.003 3247.17C910.003 3258.49 900.825 3267.67 889.504 3267.67 878.182 3267.67 869.004 3258.49 869.004 3247.17 869.004 3235.85 878.182 3226.67 889.504 3226.67 900.825 3226.67 910.003 3235.85 910.003 3247.17Z" stroke="#FFFFFF" stroke-width="5.72917" stroke-linejoin="round" stroke-miterlimit="10" fill="#BE34BE"/><path d="M1101 2925.17C1101 2936.49 1091.83 2945.67 1080.5 2945.67 1069.18 2945.67 1060 2936.49 1060 2925.17 1060 2913.85 1069.18 2904.67 1080.5 2904.67 1091.83 2904.67 1101 2913.85 1101 2925.17Z" stroke="#FFFFFF" stroke-width="5.72917" stroke-linejoin="round" stroke-miterlimit="10" fill="#BE34BE"/><path d="M1291 2718.17C1291 2729.49 1281.83 2738.67 1270.5 2738.67 1259.18 2738.67 1250 2729.49 1250 2718.17 1250 2706.85 1259.18 2697.67 1270.5 2697.67 1281.83 2697.67 1291 2706.85 1291 2718.17Z" stroke="#FFFFFF" stroke-width="5.72917" stroke-linejoin="round" stroke-miterlimit="10" fill="#BE34BE"/></g><g><path d="M509 2639 700.023 2639 890.029 2639 1081.04 2639 1271 2639" stroke="#7F7F7F" stroke-width="5.72917" stroke-linecap="round" stroke-linejoin="round" stroke-miterlimit="10" stroke-dasharray="11.4583 11.4583" fill="none"/></g><g><path d="M509.5 3049.6 699.523 3142.6 890.529 3269.5 1080.54 2977.6 1271.5 2817.5" stroke="#2596AD" stroke-width="12.6042" stroke-linecap="round" stroke-linejoin="round" stroke-miterlimit="10" fill="none"/></g><g><path d="M529.003 3049.17C529.003 3060.49 519.825 3069.67 508.504 3069.67 497.182 3069.67 488.004 3060.49 488.004 3049.17 488.004 3037.85 497.182 3028.67 508.504 3028.67 519.825 3028.67 529.003 3037.85 529.003 3049.17Z" stroke="#FFFFFF" stroke-width="5.72917" stroke-linejoin="round" stroke-miterlimit="10" fill="#2596AD"/><path d="M720.003 3142.17C720.003 3153.49 710.825 3162.67 699.504 3162.67 688.182 3162.67 679.004 3153.49 679.004 3142.17 679.004 3130.85 688.182 3121.67 699.504 3121.67 710.825 3121.67 720.003 3130.85 720.003 3142.17Z" stroke="#FFFFFF" stroke-width="5.72917" stroke-linejoin="round" stroke-miterlimit="10" fill="#2596AD"/><path d="M910.003 3268.17C910.003 3279.49 900.825 3288.67 889.504 3288.67 878.182 3288.67 869.004 3279.49 869.004 3268.17 869.004 3256.85 878.182 3247.67 889.504 3247.67 900.825 3247.67 910.003 3256.85 910.003 3268.17Z" stroke="#FFFFFF" stroke-width="5.72917" stroke-linejoin="round" stroke-miterlimit="10" fill="#2596AD"/><path d="M1101 2976.17C1101 2987.49 1091.83 2996.67 1080.5 2996.67 1069.18 2996.67 1060 2987.49 1060 2976.17 1060 2964.85 1069.18 2955.67 1080.5 2955.67 1091.83 2955.67 1101 2964.85 1101 2976.17Z" stroke="#FFFFFF" stroke-width="5.72917" stroke-linejoin="round" stroke-miterlimit="10" fill="#2596AD"/><path d="M1291 2816.17C1291 2827.49 1281.83 2836.67 1270.5 2836.67 1259.18 2836.67 1250 2827.49 1250 2816.17 1250 2804.85 1259.18 2795.67 1270.5 2795.67 1281.83 2795.67 1291 2804.85 1291 2816.17Z" stroke="#FFFFFF" stroke-width="5.72917" stroke-linejoin="round" stroke-miterlimit="10" fill="#2596AD"/></g><g><path d="M509.5 3077.6 699.523 3080.6 890.529 3304.5 1080.54 3040.6 1271.5 3009.5" stroke="#72CEE1" stroke-width="12.6042" stroke-linecap="round" stroke-linejoin="round" stroke-miterlimit="10" fill="none"/></g><g><path d="M529.003 3076.17C529.003 3087.49 519.825 3096.67 508.504 3096.67 497.182 3096.67 488.004 3087.49 488.004 3076.17 488.004 3064.85 497.182 3055.67 508.504 3055.67 519.825 3055.67 529.003 3064.85 529.003 3076.17Z" stroke="#FFFFFF" stroke-width="5.72917" stroke-linejoin="round" stroke-miterlimit="10" fill="#72CEE1"/><path d="M720.003 3079.17C720.003 3090.49 710.825 3099.67 699.504 3099.67 688.182 3099.67 679.004 3090.49 679.004 3079.17 679.004 3067.85 688.182 3058.67 699.504 3058.67 710.825 3058.67 720.003 3067.85 720.003 3079.17Z" stroke="#FFFFFF" stroke-width="5.72917" stroke-linejoin="round" stroke-miterlimit="10" fill="#72CEE1"/><path d="M910.003 3303.17C910.003 3314.49 900.825 3323.67 889.504 3323.67 878.182 3323.67 869.004 3314.49 869.004 3303.17 869.004 3291.85 878.182 3282.67 889.504 3282.67 900.825 3282.67 910.003 3291.85 910.003 3303.17Z" stroke="#FFFFFF" stroke-width="5.72917" stroke-linejoin="round" stroke-miterlimit="10" fill="#72CEE1"/><path d="M1101 3039.17C1101 3050.49 1091.83 3059.67 1080.5 3059.67 1069.18 3059.67 1060 3050.49 1060 3039.17 1060 3027.85 1069.18 3018.67 1080.5 3018.67 1091.83 3018.67 1101 3027.85 1101 3039.17Z" stroke="#FFFFFF" stroke-width="5.72917" stroke-linejoin="round" stroke-miterlimit="10" fill="#72CEE1"/><path d="M1291 3008.17C1291 3019.49 1281.83 3028.67 1270.5 3028.67 1259.18 3028.67 1250 3019.49 1250 3008.17 1250 2996.85 1259.18 2987.67 1270.5 2987.67 1281.83 2987.67 1291 2996.85 1291 3008.17Z" stroke="#FFFFFF" stroke-width="5.72917" stroke-linejoin="round" stroke-miterlimit="10" fill="#72CEE1"/></g><g><text fill="#7F7F7F" font-family="Calibri,Calibri_MSFontService,sans-serif" font-weight="400" font-size="73" transform="matrix(1 0 0 1 404.049 3359)">0</text></g><g><text fill="#7F7F7F" font-family="Calibri,Calibri_MSFontService,sans-serif" font-weight="400" font-size="73" transform="matrix(1 0 0 1 366.878 3242)">14</text></g><g><text fill="#7F7F7F" font-family="Calibri,Calibri_MSFontService,sans-serif" font-weight="400" font-size="73" transform="matrix(1 0 0 1 366.878 3124)">28</text></g><g><text fill="#7F7F7F" font-family="Calibri,Calibri_MSFontService,sans-serif" font-weight="400" font-size="73" transform="matrix(1 0 0 1 366.878 3007)">42</text></g><g><text fill="#7F7F7F" font-family="Calibri,Calibri_MSFontService,sans-serif" font-weight="400" font-size="73" transform="matrix(1 0 0 1 366.878 2889)">56</text></g><g><text fill="#7F7F7F" font-family="Calibri,Calibri_MSFontService,sans-serif" font-weight="400" font-size="73" transform="matrix(1 0 0 1 366.878 2772)">70</text></g><g><text fill="#7F7F7F" font-family="Calibri,Calibri_MSFontService,sans-serif" font-weight="400" font-size="73" transform="matrix(1 0 0 1 366.878 2654)">84</text></g><g><text fill="#595959" font-family="Calibri,Calibri_MSFontService,sans-serif" font-weight="400" font-size="64" transform="matrix(1 0 0 1 492.993 3440)">2</text></g><g><text fill="#595959" font-family="Calibri,Calibri_MSFontService,sans-serif" font-weight="400" font-size="64" transform="matrix(1 0 0 1 683.447 3440)">4</text></g><g><text fill="#595959" font-family="Calibri,Calibri_MSFontService,sans-serif" font-weight="400" font-size="64" transform="matrix(1 0 0 1 873.901 3440)">6</text></g><g><text fill="#595959" font-family="Calibri,Calibri_MSFontService,sans-serif" font-weight="400" font-size="64" transform="matrix(1 0 0 1 1064.35 3440)">7</text></g><g><text fill="#595959" font-family="Calibri,Calibri_MSFontService,sans-serif" font-weight="400" font-size="64" transform="matrix(1 0 0 1 1238.55 3440)">10</text></g><text font-family="Calibri,Calibri_MSFontService,sans-serif" font-weight="400" font-size="55" transform="matrix(1 0 0 1 1303.73 2840)">DINOv3</text><text font-family="Calibri,Calibri_MSFontService,sans-serif" font-weight="400" font-size="55" transform="matrix(1 0 0 1 1308.02 2637)">VGGT </text><text font-family="Calibri,Calibri_MSFontService,sans-serif" font-weight="400" font-size="37" transform="matrix(1 0 0 1 1308.02 2686)">(Pointmap)</text><text font-family="Calibri,Calibri_MSFontService,sans-serif" font-weight="400" font-size="73" transform="matrix(-1.83697e-16 -1 1 -1.83697e-16 317.306 3249)">Precision@2cm</text><text font-family="Calibri,Calibri_MSFontService,sans-serif" font-weight="400" font-size="73" transform="matrix(1 0 0 1 736.981 3575)">Layer Index</text><path d="M516 2668.67C516 2656.15 526.15 2646 538.671 2646L897.329 2646C909.85 2646 920 2656.15 920 2668.67L920 2876.33C920 2888.85 909.85 2899 897.329 2899L538.671 2899C526.15 2899 516 2888.85 516 2876.33Z" stroke="#BFBFBF" stroke-width="2.29167" stroke-miterlimit="8" fill="#FFFFFF" fill-rule="evenodd"/><path d="M554.5 2800.5 689.66 2800.5" stroke="#BE34BE" stroke-width="17.1875" stroke-linecap="round" stroke-miterlimit="8" fill="#F3B2A7" fill-rule="evenodd"/><path d="M606.5 2800.5C606.5 2791.11 614.559 2783.5 624.5 2783.5 634.441 2783.5 642.5 2791.11 642.5 2800.5 642.5 2809.89 634.441 2817.5 624.5 2817.5 614.559 2817.5 606.5 2809.89 606.5 2800.5Z" stroke="#FFFFFF" stroke-width="6.875" stroke-miterlimit="8" fill="#BE34BE" fill-rule="evenodd"/><path d="M554.5 2747.5 689.659 2747.5" stroke="#2596AD" stroke-width="17.1875" stroke-linecap="round" stroke-miterlimit="8" fill="#2596AD" fill-rule="evenodd"/><path d="M606.5 2747.5C606.5 2738.11 614.559 2730.5 624.5 2730.5 634.441 2730.5 642.5 2738.11 642.5 2747.5 642.5 2756.89 634.441 2764.5 624.5 2764.5 614.559 2764.5 606.5 2756.89 606.5 2747.5Z" stroke="#FFFFFF" stroke-width="6.875" stroke-miterlimit="8" fill="#2596AD" fill-rule="evenodd"/><text font-family="Calibri,Calibri_MSFontService,sans-serif" font-weight="400" font-size="46" transform="matrix(1 0 0 1 717.001 2759)">CAT3D</text><text font-family="Calibri,Calibri_MSFontService,sans-serif" font-weight="400" font-size="46" transform="matrix(1 0 0 1 717.001 2816)">+ CAMEO</text><path d="M563.5 2859.5 586.027 2859.5" stroke="#7F7F7F" stroke-width="17.1875" stroke-linecap="round" stroke-miterlimit="8" stroke-dasharray="34.375 34.375" fill="#2596AD" fill-rule="evenodd"/><text font-family="Calibri,Calibri_MSFontService,sans-serif" font-weight="400" font-size="46" transform="matrix(1 0 0 1 717.001 2871)">Baselines</text><path d="M610.5 2859.5 633.027 2859.5" stroke="#7F7F7F" stroke-width="17.1875" stroke-linecap="round" stroke-miterlimit="8" stroke-dasharray="34.375 34.375" fill="#2596AD" fill-rule="evenodd"/><path d="M659.5 2859.5 682.027 2859.5" stroke="#7F7F7F" stroke-width="17.1875" stroke-linecap="round" stroke-miterlimit="8" stroke-dasharray="34.375 34.375" fill="#2596AD" fill-rule="evenodd"/><path d="M557.5 2693.5 692.351 2693.5" stroke="#4FC2D9" stroke-width="17.1875" stroke-linecap="round" stroke-miterlimit="8" fill="#4FC2D9" fill-rule="evenodd"/><path d="M608.5 2693C608.5 2683.33 616.559 2675.5 626.5 2675.5 636.441 2675.5 644.5 2683.33 644.5 2693 644.5 2702.67 636.441 2710.5 626.5 2710.5 616.559 2710.5 608.5 2702.67 608.5 2693Z" stroke="#FFFFFF" stroke-width="6.875" stroke-miterlimit="8" fill="#4FC2D9" fill-rule="evenodd"/><text font-family="Calibri,Calibri_MSFontService,sans-serif" font-weight="400" font-size="46" transform="matrix(1 0 0 1 719.206 2705)">SD 2.1</text><text font-family="Calibri,Calibri_MSFontService,sans-serif" font-weight="400" font-size="55" transform="matrix(1 0 0 1 1303.73 3048)">DSIF</text><text font-family="Calibri,Calibri_MSFontService,sans-serif" font-weight="400" font-size="55" transform="matrix(1 0 0 1 1401.7 3048)">T</text></g></svg>