<svg width="1299" height="1099" xmlns="http://www.w3.org/2000/svg" xmlns:xlink="http://www.w3.org/1999/xlink" xml:space="preserve" overflow="hidden"><defs><clipPath id="clip0"><rect x="3394" y="2539" width="1299" height="1099"/></clipPath><clipPath id="clip1"><rect x="3724" y="2620" width="795" height="753"/></clipPath><clipPath id="clip2"><rect x="3724" y="2620" width="795" height="753"/></clipPath><clipPath id="clip3"><rect x="3724" y="2620" width="795" height="753"/></clipPath><clipPath id="clip4"><rect x="3724" y="2620" width="795" height="753"/></clipPath></defs><g clip-path="url(#clip0)" transform="translate(-3394 -2539)"><rect x="3394" y="2539" width="1299" height="1058" fill="#FFFFFF"/><rect x="3537" y="2557" width="1099" height="938" fill="#FFFFFF"/><g><path d="M3724.5 3182.6 4516.5 3182.6M3724.5 2995.6 4516.5 2995.6M3724.5 2807.59 4516.5 2807.59M3724.5 2620.5 4516.5 2620.5" stroke="#F2F2F2" stroke-width="3.4375" stroke-linejoin="round" stroke-miterlimit="10" fill="none"/></g><g><path d="M0 0 0.000360892 750" stroke="#F2F2F2" stroke-width="3.4375" stroke-linejoin="round" stroke-miterlimit="10" fill="none" fill-rule="evenodd" transform="matrix(1 0 0 -1 3724.5 3370.5)"/></g><g><path d="M3724.5 3370.5 4516.5 3370.5" stroke="#BFBFBF" stroke-width="3.4375" stroke-linejoin="round" stroke-miterlimit="10" fill="none" fill-rule="evenodd"/></g><g><path d="M3724.5 3370.5 3724.5 3387.5M3987.63 3370.5 3987.63 3387.5M4252.64 3370.5 4252.64 3387.5M4516.5 3370.5 4516.5 3387.5" stroke="#BFBFBF" stroke-width="3.4375" stroke-linejoin="round" stroke-miterlimit="10" fill="none"/></g><g clip-path="url(#clip1)"><path d="M3724 2653 3988.13 2783.09 4252.14 2991.1 4516 3144" stroke="#7F7F7F" stroke-width="13.75" stroke-linecap="round" stroke-linejoin="round" stroke-miterlimit="10" fill="none"/></g><g><path d="M3747.17 2652.59C3747.17 2665.3 3736.88 2675.59 3724.17 2675.59 3711.47 2675.59 3701.17 2665.3 3701.17 2652.59 3701.17 2639.89 3711.47 2629.59 3724.17 2629.59 3736.88 2629.59 3747.17 2639.89 3747.17 2652.59Z" stroke="#FFFFFF" stroke-width="5.72917" stroke-linejoin="round" stroke-miterlimit="10" fill="#7F7F7F"/><path d="M4011.17 2782.59C4011.17 2795.3 4000.88 2805.59 3988.17 2805.59 3975.47 2805.59 3965.17 2795.3 3965.17 2782.59 3965.17 2769.89 3975.47 2759.59 3988.17 2759.59 4000.88 2759.59 4011.17 2769.89 4011.17 2782.59Z" stroke="#FFFFFF" stroke-width="5.72917" stroke-linejoin="round" stroke-miterlimit="10" fill="#7F7F7F"/><path d="M4275.17 2991.59C4275.17 3004.3 4264.88 3014.59 4252.17 3014.59 4239.47 3014.59 4229.17 3004.3 4229.17 2991.59 4229.17 2978.89 4239.47 2968.59 4252.17 2968.59 4264.88 2968.59 4275.17 2978.89 4275.17 2991.59Z" stroke="#FFFFFF" stroke-width="5.72917" stroke-linejoin="round" stroke-miterlimit="10" fill="#7F7F7F"/><path d="M4539.17 3143.59C4539.17 3156.3 4528.88 3166.59 4516.17 3166.59 4503.47 3166.59 4493.17 3156.3 4493.17 3143.59 4493.17 3130.89 4503.47 3120.59 4516.17 3120.59 4528.88 3120.59 4539.17 3130.89 4539.17 3143.59Z" stroke="#FFFFFF" stroke-width="5.72917" stroke-linejoin="round" stroke-miterlimit="10" fill="#7F7F7F"/></g><g clip-path="url(#clip2)"><path d="M3724 2659 3988.13 2734.09 4252.14 2823.09 4516 3007" stroke="#BE34BE" stroke-width="13.75" stroke-linecap="round" stroke-linejoin="round" stroke-miterlimit="10" fill="none"/></g><g><path d="M3747.17 2658.59C3747.17 2671.3 3736.88 2681.59 3724.17 2681.59 3711.47 2681.59 3701.17 2671.3 3701.17 2658.59 3701.17 2645.89 3711.47 2635.59 3724.17 2635.59 3736.88 2635.59 3747.17 2645.89 3747.17 2658.59Z" stroke="#FFFFFF" stroke-width="5.72917" stroke-linejoin="round" stroke-miterlimit="10" fill="#BE34BE"/><path d="M4011.17 2734.59C4011.17 2747.3 4000.88 2757.59 3988.17 2757.59 3975.47 2757.59 3965.17 2747.3 3965.17 2734.59 3965.17 2721.89 3975.47 2711.59 3988.17 2711.59 4000.88 2711.59 4011.17 2721.89 4011.17 2734.59Z" stroke="#FFFFFF" stroke-width="5.72917" stroke-linejoin="round" stroke-miterlimit="10" fill="#BE34BE"/><path d="M4275.17 2823.59C4275.17 2836.3 4264.88 2846.59 4252.17 2846.59 4239.47 2846.59 4229.17 2836.3 4229.17 2823.59 4229.17 2810.89 4239.47 2800.59 4252.17 2800.59 4264.88 2800.59 4275.17 2810.89 4275.17 2823.59Z" stroke="#FFFFFF" stroke-width="5.72917" stroke-linejoin="round" stroke-miterlimit="10" fill="#BE34BE"/><path d="M4539.17 3006.59C4539.17 3019.3 4528.88 3029.59 4516.17 3029.59 4503.47 3029.59 4493.17 3019.3 4493.17 3006.59 4493.17 2993.89 4503.47 2983.59 4516.17 2983.59 4528.88 2983.59 4539.17 2993.89 4539.17 3006.59Z" stroke="#FFFFFF" stroke-width="5.72917" stroke-linejoin="round" stroke-miterlimit="10" fill="#BE34BE"/></g><g clip-path="url(#clip3)"><path d="M3724 2663 3988.13 2773.09 4252.14 2967.1 4516 3141" stroke="#2596AD" stroke-width="13.75" stroke-linecap="round" stroke-linejoin="round" stroke-miterlimit="10" fill="none"/></g><g><path d="M3747.17 2662.59C3747.17 2675.3 3736.88 2685.59 3724.17 2685.59 3711.47 2685.59 3701.17 2675.3 3701.17 2662.59 3701.17 2649.89 3711.47 2639.59 3724.17 2639.59 3736.88 2639.59 3747.17 2649.89 3747.17 2662.59Z" stroke="#FFFFFF" stroke-width="5.72917" stroke-linejoin="round" stroke-miterlimit="10" fill="#2596AD"/><path d="M4011.17 2772.59C4011.17 2785.3 4000.88 2795.59 3988.17 2795.59 3975.47 2795.59 3965.17 2785.3 3965.17 2772.59 3965.17 2759.89 3975.47 2749.59 3988.17 2749.59 4000.88 2749.59 4011.17 2759.89 4011.17 2772.59Z" stroke="#FFFFFF" stroke-width="5.72917" stroke-linejoin="round" stroke-miterlimit="10" fill="#2596AD"/><path d="M4275.17 2966.59C4275.17 2979.3 4264.88 2989.59 4252.17 2989.59 4239.47 2989.59 4229.17 2979.3 4229.17 2966.59 4229.17 2953.89 4239.47 2943.59 4252.17 2943.59 4264.88 2943.59 4275.17 2953.89 4275.17 2966.59Z" stroke="#FFFFFF" stroke-width="5.72917" stroke-linejoin="round" stroke-miterlimit="10" fill="#2596AD"/><path d="M4539.17 3140.59C4539.17 3153.3 4528.88 3163.59 4516.17 3163.59 4503.47 3163.59 4493.17 3153.3 4493.17 3140.59 4493.17 3127.89 4503.47 3117.59 4516.17 3117.59 4528.88 3117.59 4539.17 3127.89 4539.17 3140.59Z" stroke="#FFFFFF" stroke-width="5.72917" stroke-linejoin="round" stroke-miterlimit="10" fill="#2596AD"/></g><g><path d="M3724.5 2734.5 3987.63 2942.6 4252.64 3210.61 4516.5 3293.5" stroke="#4FC2D9" stroke-width="12.6042" stroke-linecap="round" stroke-linejoin="round" stroke-miterlimit="10" fill="none"/></g><g><path d="M3747.17 2733.59C3747.17 2746.3 3736.88 2756.59 3724.17 2756.59 3711.47 2756.59 3701.17 2746.3 3701.17 2733.59 3701.17 2720.89 3711.47 2710.59 3724.17 2710.59 3736.88 2710.59 3747.17 2720.89 3747.17 2733.59Z" stroke="#FFFFFF" stroke-width="5.72917" stroke-linejoin="round" stroke-miterlimit="10" fill="#4FC2D9"/><path d="M4011.17 2942.59C4011.17 2955.3 4000.88 2965.59 3988.17 2965.59 3975.47 2965.59 3965.17 2955.3 3965.17 2942.59 3965.17 2929.89 3975.47 2919.59 3988.17 2919.59 4000.88 2919.59 4011.17 2929.89 4011.17 2942.59Z" stroke="#FFFFFF" stroke-width="5.72917" stroke-linejoin="round" stroke-miterlimit="10" fill="#4FC2D9"/><path d="M4275.17 3210.59C4275.17 3223.3 4264.88 3233.59 4252.17 3233.59 4239.47 3233.59 4229.17 3223.3 4229.17 3210.59 4229.17 3197.89 4239.47 3187.59 4252.17 3187.59 4264.88 3187.59 4275.17 3197.89 4275.17 3210.59Z" stroke="#FFFFFF" stroke-width="5.72917" stroke-linejoin="round" stroke-miterlimit="10" fill="#4FC2D9"/><path d="M4539.17 3292.59C4539.17 3305.3 4528.88 3315.59 4516.17 3315.59 4503.47 3315.59 4493.17 3305.3 4493.17 3292.59 4493.17 3279.89 4503.47 3269.59 4516.17 3269.59 4528.88 3269.59 4539.17 3279.89 4539.17 3292.59Z" stroke="#FFFFFF" stroke-width="5.72917" stroke-linejoin="round" stroke-miterlimit="10" fill="#4FC2D9"/></g><g clip-path="url(#clip4)"><path d="M3724 2640 3988.13 2678.09 4252.14 2747.09 4516 2891" stroke="#595959" stroke-width="13.75" stroke-linecap="round" stroke-linejoin="round" stroke-miterlimit="10" fill="none"/></g><g><path d="M3747.17 2639.59C3747.17 2652.3 3736.88 2662.59 3724.17 2662.59 3711.47 2662.59 3701.17 2652.3 3701.17 2639.59 3701.17 2626.89 3711.47 2616.59 3724.17 2616.59 3736.88 2616.59 3747.17 2626.89 3747.17 2639.59Z" stroke="#FFFFFF" stroke-width="5.72917" stroke-linejoin="round" stroke-miterlimit="10" fill="#595959"/><path d="M4011.17 2678.59C4011.17 2691.3 4000.88 2701.59 3988.17 2701.59 3975.47 2701.59 3965.17 2691.3 3965.17 2678.59 3965.17 2665.89 3975.47 2655.59 3988.17 2655.59 4000.88 2655.59 4011.17 2665.89 4011.17 2678.59Z" stroke="#FFFFFF" stroke-width="5.72917" stroke-linejoin="round" stroke-miterlimit="10" fill="#595959"/><path d="M4275.17 2746.59C4275.17 2759.3 4264.88 2769.59 4252.17 2769.59 4239.47 2769.59 4229.17 2759.3 4229.17 2746.59 4229.17 2733.89 4239.47 2723.59 4252.17 2723.59 4264.88 2723.59 4275.17 2733.89 4275.17 2746.59Z" stroke="#FFFFFF" stroke-width="5.72917" stroke-linejoin="round" stroke-miterlimit="10" fill="#595959"/><path d="M4539.17 2890.59C4539.17 2903.3 4528.88 2913.59 4516.17 2913.59 4503.47 2913.59 4493.17 2903.3 4493.17 2890.59 4493.17 2877.89 4503.47 2867.59 4516.17 2867.59 4528.88 2867.59 4539.17 2877.89 4539.17 2890.59Z" stroke="#FFFFFF" stroke-width="5.72917" stroke-linejoin="round" stroke-miterlimit="10" fill="#595959"/></g><g><text fill="#7F7F7F" font-family="Calibri,Calibri_MSFontService,sans-serif" font-weight="400" font-size="73" transform="matrix(1 0 0 1 3618.81 3391)">0</text></g><g><text fill="#7F7F7F" font-family="Calibri,Calibri_MSFontService,sans-serif" font-weight="400" font-size="73" transform="matrix(1 0 0 1 3581.64 3204)">25</text></g><g><text fill="#7F7F7F" font-family="Calibri,Calibri_MSFontService,sans-serif" font-weight="400" font-size="73" transform="matrix(1 0 0 1 3581.64 3017)">50</text></g><g><text fill="#7F7F7F" font-family="Calibri,Calibri_MSFontService,sans-serif" font-weight="400" font-size="73" transform="matrix(1 0 0 1 3581.64 2829)">75</text></g><g><text fill="#7F7F7F" font-family="Calibri,Calibri_MSFontService,sans-serif" font-weight="400" font-size="73" transform="matrix(1 0 0 1 3544.47 2642)">100</text></g><g><g><text fill="#595959" font-family="Calibri,Calibri_MSFontService,sans-serif" font-weight="400" font-size="55" transform="matrix(1 0 0 1 3659.2 3457)">0</text></g></g><g><g><text fill="#595959" font-family="Calibri,Calibri_MSFontService,sans-serif" font-weight="400" font-size="55" transform="matrix(1 0 0 1 3687.07 3457)">–</text></g></g><g><g><text fill="#595959" font-family="Calibri,Calibri_MSFontService,sans-serif" font-weight="400" font-size="55" transform="matrix(1 0 0 1 3714.46 3457)">30</text></g></g><g><g><text fill="#595959" font-family="Calibri,Calibri_MSFontService,sans-serif" font-weight="400" font-size="55" transform="matrix(1 0 0 1 3770.19 3457)">°</text></g></g><g><g><text fill="#595959" font-family="Calibri,Calibri_MSFontService,sans-serif" font-weight="400" font-size="55" transform="matrix(1 0 0 1 3909.34 3457)">30</text></g></g><g><g><text fill="#595959" font-family="Calibri,Calibri_MSFontService,sans-serif" font-weight="400" font-size="55" transform="matrix(1 0 0 1 3965.07 3457)">–</text></g></g><g><g><text fill="#595959" font-family="Calibri,Calibri_MSFontService,sans-serif" font-weight="400" font-size="55" transform="matrix(1 0 0 1 3992.46 3457)">60</text></g></g><g><g><text fill="#595959" font-family="Calibri,Calibri_MSFontService,sans-serif" font-weight="400" font-size="55" transform="matrix(1 0 0 1 4048.19 3457)">°</text></g></g><g><g><text fill="#595959" font-family="Calibri,Calibri_MSFontService,sans-serif" font-weight="400" font-size="55" transform="matrix(1 0 0 1 4173.41 3457)">60</text></g></g><g><g><text fill="#595959" font-family="Calibri,Calibri_MSFontService,sans-serif" font-weight="400" font-size="55" transform="matrix(1 0 0 1 4229.14 3457)">–</text></g></g><g><g><text fill="#595959" font-family="Calibri,Calibri_MSFontService,sans-serif" font-weight="400" font-size="55" transform="matrix(1 0 0 1 4256.52 3457)">90</text></g></g><g><g><text fill="#595959" font-family="Calibri,Calibri_MSFontService,sans-serif" font-weight="400" font-size="55" transform="matrix(1 0 0 1 4312.26 3457)">°</text></g></g><g><g><text fill="#595959" font-family="Calibri,Calibri_MSFontService,sans-serif" font-weight="400" font-size="55" transform="matrix(1 0 0 1 4423.54 3457)">90</text></g></g><g><g><text fill="#595959" font-family="Calibri,Calibri_MSFontService,sans-serif" font-weight="400" font-size="55" transform="matrix(1 0 0 1 4479.27 3457)">–</text></g></g><g><g><text fill="#595959" font-family="Calibri,Calibri_MSFontService,sans-serif" font-weight="400" font-size="55" transform="matrix(1 0 0 1 4506.66 3457)">120</text></g></g><g><g><text fill="#595959" font-family="Calibri,Calibri_MSFontService,sans-serif" font-weight="400" font-size="55" transform="matrix(1 0 0 1 4590.26 3457)">°</text></g></g><path d="M3737 3100.35C3737 3085.8 3748.8 3074 3763.35 3074L4113.65 3074C4128.21 3074 4140 3085.8 4140 3100.35L4140 3341.65C4140 3356.21 4128.21 3368 4113.65 3368L3763.35 3368C3748.8 3368 3737 3356.21 3737 3341.65Z" stroke="#BFBFBF" stroke-width="2.29167" stroke-miterlimit="8" fill="#FFFFFF" fill-rule="evenodd"/><path d="M3772.5 3276.5 3895.3 3276.5" stroke="#2596AD" stroke-width="17.1875" stroke-linecap="round" stroke-miterlimit="8" fill="#2596AD" fill-rule="evenodd"/><path d="M3819.5 3277C3819.5 3267.33 3826.44 3259.5 3835 3259.5 3843.56 3259.5 3850.5 3267.33 3850.5 3277 3850.5 3286.67 3843.56 3294.5 3835 3294.5 3826.44 3294.5 3819.5 3286.67 3819.5 3277Z" stroke="#FFFFFF" stroke-width="6.875" stroke-miterlimit="8" fill="#2596AD" fill-rule="evenodd"/><text font-family="Calibri,Calibri_MSFontService,sans-serif" font-weight="400" font-size="46" transform="matrix(1 0 0 1 3932.54 3289)">CAT3D</text><path d="M3772.5 3328.5 3895.3 3328.5" stroke="#BE34BE" stroke-width="17.1875" stroke-linecap="round" stroke-miterlimit="8" fill="#F3B2A7" fill-rule="evenodd"/><path d="M3819.5 3328.5C3819.5 3319.11 3826.44 3311.5 3835 3311.5 3843.56 3311.5 3850.5 3319.11 3850.5 3328.5 3850.5 3337.89 3843.56 3345.5 3835 3345.5 3826.44 3345.5 3819.5 3337.89 3819.5 3328.5Z" stroke="#FFFFFF" stroke-width="6.875" stroke-miterlimit="8" fill="#BE34BE" fill-rule="evenodd"/><text font-family="Calibri,Calibri_MSFontService,sans-serif" font-weight="400" font-size="46" transform="matrix(1 0 0 1 3930.25 3343)">+ CAMEO</text><path d="M3772.5 3224.5 3895.3 3224.5" stroke="#4FC2D9" stroke-width="17.1875" stroke-linecap="round" stroke-miterlimit="8" fill="#4FC2D9" fill-rule="evenodd"/><path d="M3819.5 3224C3819.5 3214.33 3826.44 3206.5 3835 3206.5 3843.56 3206.5 3850.5 3214.33 3850.5 3224 3850.5 3233.67 3843.56 3241.5 3835 3241.5 3826.44 3241.5 3819.5 3233.67 3819.5 3224Z" stroke="#FFFFFF" stroke-width="6.875" stroke-miterlimit="8" fill="#4FC2D9" fill-rule="evenodd"/><text font-family="Calibri,Calibri_MSFontService,sans-serif" font-weight="400" font-size="46" transform="matrix(1 0 0 1 3932.54 3235)">SD </text><text font-family="Calibri,Calibri_MSFontService,sans-serif" font-weight="400" font-size="46" transform="matrix(1 0 0 1 3992.12 3235)">2.1</text><path d="M3772.5 3170.5 3895.3 3170.5" stroke="#7F7F7F" stroke-width="17.1875" stroke-linecap="round" stroke-miterlimit="8" fill="#4FC2D9" fill-rule="evenodd"/><path d="M3819.5 3170.5C3819.5 3161.11 3826.44 3153.5 3835 3153.5 3843.56 3153.5 3850.5 3161.11 3850.5 3170.5 3850.5 3179.89 3843.56 3187.5 3835 3187.5 3826.44 3187.5 3819.5 3179.89 3819.5 3170.5Z" stroke="#FFFFFF" stroke-width="6.875" stroke-miterlimit="8" fill="#7F7F7F" fill-rule="evenodd"/><text font-family="Calibri,Calibri_MSFontService,sans-serif" font-weight="400" font-size="46" transform="matrix(1 0 0 1 3932.54 3182)">DINOv3</text><path d="M3772.5 3116.5 3895.3 3116.5" stroke="#595959" stroke-width="17.1875" stroke-linecap="round" stroke-miterlimit="8" fill="#595959" fill-rule="evenodd"/><path d="M3819.5 3116.5C3819.5 3107.11 3826.44 3099.5 3835 3099.5 3843.56 3099.5 3850.5 3107.11 3850.5 3116.5 3850.5 3125.89 3843.56 3133.5 3835 3133.5 3826.44 3133.5 3819.5 3125.89 3819.5 3116.5Z" stroke="#FFFFFF" stroke-width="6.875" stroke-miterlimit="8" fill="#595959" fill-rule="evenodd"/><text font-family="Calibri,Calibri_MSFontService,sans-serif" font-weight="400" font-size="46" transform="matrix(1 0 0 1 3932.54 3128)">VGGT</text><text font-family="Calibri,Calibri_MSFontService,sans-serif" font-weight="400" font-size="73" transform="matrix(1 0 0 1 3815.49 3574)">Viewpoint Rotation</text><text font-family="Calibri,Calibri_MSFontService,sans-serif" font-weight="400" font-size="73" transform="matrix(-1.83697e-16 -1 1 -1.83697e-16 3505.18 3234)">P</text><text font-family="Calibri,Calibri_MSFontService,sans-serif" font-weight="400" font-size="73" transform="matrix(-1.83697e-16 -1 1 -1.83697e-16 3505.18 3196)">recision</text><text font-family="Calibri,Calibri_MSFontService,sans-serif" font-weight="400" font-size="73" transform="matrix(-1.83697e-16 -1 1 -1.83697e-16 3505.18 2964)">@2cm</text></g></svg>