<svg width="4959" height="1608" xmlns="http://www.w3.org/2000/svg" xmlns:xlink="http://www.w3.org/1999/xlink" xml:space="preserve" overflow="hidden"><defs><clipPath id="clip0"><rect x="147" y="160" width="4959" height="1608"/></clipPath><clipPath id="clip1"><rect x="3658" y="472" width="1189" height="926"/></clipPath><clipPath id="clip2"><rect x="3658" y="472" width="1189" height="926"/></clipPath></defs><g clip-path="url(#clip0)" transform="translate(-147 -160)"><rect x="147" y="160" width="4959" height="1557" fill="#FFFFFF"/><path d="M3659.5 455.5 3659.5 1401.12" stroke="#D9D9D9" stroke-width="1.14583" stroke-miterlimit="8" fill="none" fill-rule="evenodd"/><path d="M3746.5 455.5 3746.5 1401.12" stroke="#D9D9D9" stroke-width="1.14583" stroke-miterlimit="8" fill="none" fill-rule="evenodd"/><path d="M3871.5 455.5 3871.5 1401.12" stroke="#D9D9D9" stroke-width="1.14583" stroke-miterlimit="8" fill="none" fill-rule="evenodd"/><path d="M4114.5 455.5 4114.5 1401.12" stroke="#D9D9D9" stroke-width="1.14583" stroke-miterlimit="8" fill="none" fill-rule="evenodd"/><path d="M4597.5 455.5 4597.5 1401.12" stroke="#D9D9D9" stroke-width="1.14583" stroke-miterlimit="8" fill="none" fill-rule="evenodd"/><path d="M4841.5 455.5 4841.5 1401.12" stroke="#D9D9D9" stroke-width="1.14583" stroke-miterlimit="8" fill="none" fill-rule="evenodd"/><path d="M2078.5 453.5 2078.5 1399.12" stroke="#D9D9D9" stroke-width="1.14583" stroke-miterlimit="8" fill="none" fill-rule="evenodd"/><path d="M2172.5 453.5 2172.5 1399.12" stroke="#D9D9D9" stroke-width="1.14583" stroke-miterlimit="8" fill="none" fill-rule="evenodd"/><path d="M2295.5 453.5 2295.5 1399.12" stroke="#D9D9D9" stroke-width="1.14583" stroke-miterlimit="8" fill="none" fill-rule="evenodd"/><path d="M2539.5 453.5 2539.5 1399.12" stroke="#D9D9D9" stroke-width="1.14583" stroke-miterlimit="8" fill="none" fill-rule="evenodd"/><path d="M3027.5 453.5 3027.5 1399.12" stroke="#D9D9D9" stroke-width="1.14583" stroke-miterlimit="8" fill="none" fill-rule="evenodd"/><path d="M3279.5 453.5 3279.5 1399.12" stroke="#D9D9D9" stroke-width="1.14583" stroke-miterlimit="8" fill="none" fill-rule="evenodd"/><path d="M519.5 438.5 519.5 1384.12" stroke="#D9D9D9" stroke-width="1.14583" stroke-miterlimit="8" fill="none" fill-rule="evenodd"/><path d="M610.5 438.5 610.5 1384.12" stroke="#D9D9D9" stroke-width="1.14583" stroke-miterlimit="8" fill="none" fill-rule="evenodd"/><path d="M727.5 438.5 727.5 1384.12" stroke="#D9D9D9" stroke-width="1.14583" stroke-miterlimit="8" fill="none" fill-rule="evenodd"/><path d="M963.5 438.5 963.5 1384.12" stroke="#D9D9D9" stroke-width="1.14583" stroke-miterlimit="8" fill="none" fill-rule="evenodd"/><path d="M1432.5 438.5 1432.5 1384.12" stroke="#D9D9D9" stroke-width="1.14583" stroke-miterlimit="8" fill="none" fill-rule="evenodd"/><path d="M1673.5 438.5 1673.5 1384.12" stroke="#D9D9D9" stroke-width="1.14583" stroke-miterlimit="8" fill="none" fill-rule="evenodd"/><g><path d="M518.5 1383.5 1673.5 1383.5M518.5 1211.54 1673.5 1211.54M518.5 1039.53 1673.5 1039.53M518.5 867.529 1673.5 867.529M518.5 695.523 1673.5 695.523M518.5 522.5 1673.5 522.5" stroke="#BFBFBF" stroke-width="3.4375" stroke-linejoin="round" stroke-miterlimit="10" fill="none"/></g><g><path d="M518.5 1383.5 1673.5 1383.5" stroke="#D9D9D9" stroke-width="3.4375" stroke-linejoin="round" stroke-miterlimit="10" fill="none" fill-rule="evenodd"/></g><g><path d="M519 1340 608.02 983.032 726.024 771.025 963.032 700.023 1436.05 552 1673 611.02" stroke="#90C6B8" stroke-width="18.3333" stroke-linecap="round" stroke-linejoin="round" stroke-miterlimit="10" fill="none"/></g><g><path d="M549.245 1339.65C549.245 1356.22 535.813 1369.65 519.245 1369.65 502.676 1369.65 489.245 1356.22 489.245 1339.65 489.245 1323.08 502.676 1309.65 519.245 1309.65 535.813 1309.65 549.245 1323.08 549.245 1339.65Z" stroke="#FFFFFF" stroke-width="8.02083" stroke-linejoin="round" stroke-miterlimit="10" fill="#90C6B8"/><path d="M638.245 982.646C638.245 999.215 624.813 1012.65 608.245 1012.65 591.676 1012.65 578.245 999.215 578.245 982.646 578.245 966.078 591.676 952.647 608.245 952.647 624.813 952.647 638.245 966.078 638.245 982.646Z" stroke="#FFFFFF" stroke-width="8.02083" stroke-linejoin="round" stroke-miterlimit="10" fill="#90C6B8"/><path d="M756.245 770.646C756.245 787.215 742.813 800.646 726.245 800.646 709.677 800.646 696.245 787.215 696.245 770.646 696.245 754.078 709.677 740.646 726.245 740.646 742.813 740.646 756.245 754.078 756.245 770.646Z" stroke="#FFFFFF" stroke-width="8.02083" stroke-linejoin="round" stroke-miterlimit="10" fill="#90C6B8"/><path d="M993.245 699.647C993.245 716.215 979.813 729.646 963.245 729.646 946.676 729.646 933.245 716.215 933.245 699.647 933.245 683.078 946.676 669.647 963.245 669.647 979.813 669.647 993.245 683.078 993.245 699.647Z" stroke="#FFFFFF" stroke-width="8.02083" stroke-linejoin="round" stroke-miterlimit="10" fill="#90C6B8"/><path d="M1466.24 551.646C1466.24 568.215 1452.81 581.646 1436.24 581.646 1419.68 581.646 1406.24 568.215 1406.24 551.646 1406.24 535.078 1419.68 521.646 1436.24 521.646 1452.81 521.646 1466.24 535.078 1466.24 551.646Z" stroke="#FFFFFF" stroke-width="8.02083" stroke-linejoin="round" stroke-miterlimit="10" fill="#90C6B8"/><path d="M1703.24 610.646C1703.24 627.215 1689.81 640.646 1673.24 640.646 1656.68 640.646 1643.24 627.215 1643.24 610.646 1643.24 594.078 1656.68 580.647 1673.24 580.647 1689.81 580.647 1703.24 594.078 1703.24 610.646Z" stroke="#FFFFFF" stroke-width="8.02083" stroke-linejoin="round" stroke-miterlimit="10" fill="#90C6B8"/></g><g><path d="M519 1015 608.02 877.029 726.024 670.022 963.032 643.021 1436.05 483 1673 506.017" stroke="#22869A" stroke-width="18.3333" stroke-linecap="round" stroke-linejoin="round" stroke-miterlimit="10" fill="none"/></g><g><path d="M547.245 1015.15C547.245 1030.33 534.933 1042.65 519.745 1042.65 504.557 1042.65 492.245 1030.33 492.245 1015.15 492.245 999.959 504.557 987.647 519.745 987.647 534.933 987.647 547.245 999.959 547.245 1015.15Z" stroke="#FFFFFF" stroke-width="8.02083" stroke-linejoin="round" stroke-miterlimit="10" fill="#22869A"/><path d="M636.245 877.147C636.245 892.335 623.933 904.647 608.745 904.647 593.557 904.647 581.245 892.335 581.245 877.147 581.245 861.959 593.557 849.647 608.745 849.647 623.933 849.647 636.245 861.959 636.245 877.147Z" stroke="#FFFFFF" stroke-width="8.02083" stroke-linejoin="round" stroke-miterlimit="10" fill="#22869A"/><path d="M754.245 670.147C754.245 685.335 741.933 697.647 726.745 697.647 711.557 697.647 699.245 685.335 699.245 670.147 699.245 654.959 711.557 642.647 726.745 642.647 741.933 642.647 754.245 654.959 754.245 670.147Z" stroke="#FFFFFF" stroke-width="8.02083" stroke-linejoin="round" stroke-miterlimit="10" fill="#22869A"/><path d="M991.245 643.147C991.245 658.334 978.933 670.647 963.745 670.647 948.557 670.647 936.245 658.334 936.245 643.147 936.245 627.959 948.557 615.647 963.745 615.647 978.933 615.647 991.245 627.959 991.245 643.147Z" stroke="#FFFFFF" stroke-width="8.02083" stroke-linejoin="round" stroke-miterlimit="10" fill="#22869A"/><path d="M1464.25 483.147C1464.25 498.335 1451.93 510.647 1436.75 510.647 1421.56 510.647 1409.25 498.335 1409.25 483.147 1409.25 467.959 1421.56 455.647 1436.75 455.647 1451.93 455.647 1464.25 467.959 1464.25 483.147Z" stroke="#FFFFFF" stroke-width="8.02083" stroke-linejoin="round" stroke-miterlimit="10" fill="#22869A"/><path d="M1701.24 506.147C1701.24 521.335 1688.93 533.647 1673.74 533.647 1658.56 533.647 1646.24 521.335 1646.24 506.147 1646.24 490.959 1658.56 478.647 1673.74 478.647 1688.93 478.647 1701.24 490.959 1701.24 506.147Z" stroke="#FFFFFF" stroke-width="8.02083" stroke-linejoin="round" stroke-miterlimit="10" fill="#22869A"/></g><g><text fill="#595959" font-family="Calibri,Calibri_MSFontService,sans-serif" font-weight="400" font-size="73" transform="matrix(1 0 0 1 304.12 1405)">16.5</text></g><g><text fill="#595959" font-family="Calibri,Calibri_MSFontService,sans-serif" font-weight="400" font-size="73" transform="matrix(1 0 0 1 304.12 1233)">17.2</text></g><g><text fill="#595959" font-family="Calibri,Calibri_MSFontService,sans-serif" font-weight="400" font-size="73" transform="matrix(1 0 0 1 304.12 1061)">17.9</text></g><g><text fill="#595959" font-family="Calibri,Calibri_MSFontService,sans-serif" font-weight="400" font-size="73" transform="matrix(1 0 0 1 304.12 888)">18.6</text></g><g><text fill="#595959" font-family="Calibri,Calibri_MSFontService,sans-serif" font-weight="400" font-size="73" transform="matrix(1 0 0 1 304.12 716)">19.3</text></g><g><text fill="#595959" font-family="Calibri,Calibri_MSFontService,sans-serif" font-weight="400" font-size="73" transform="matrix(1 0 0 1 304.12 544)">20.0</text></g><g><text fill="#595959" font-family="Calibri,Calibri_MSFontService,sans-serif" font-weight="400" font-size="73" transform="matrix(1 0 0 1 464.908 1501)">10k</text></g><g><text fill="#595959" font-family="Calibri,Calibri_MSFontService,sans-serif" font-weight="400" font-size="73" transform="matrix(1 0 0 1 612.916 1501)">60k</text></g><g><text fill="#595959" font-family="Calibri,Calibri_MSFontService,sans-serif" font-weight="400" font-size="73" transform="matrix(1 0 0 1 742.338 1501)">110k</text></g><g><text fill="#595959" font-family="Calibri,Calibri_MSFontService,sans-serif" font-weight="400" font-size="73" transform="matrix(1 0 0 1 890.346 1501)">160k</text></g><g><text fill="#595959" font-family="Calibri,Calibri_MSFontService,sans-serif" font-weight="400" font-size="73" transform="matrix(1 0 0 1 1038.35 1501)">210k</text></g><g><text fill="#595959" font-family="Calibri,Calibri_MSFontService,sans-serif" font-weight="400" font-size="73" transform="matrix(1 0 0 1 1186.36 1501)">260k</text></g><g><text fill="#595959" font-family="Calibri,Calibri_MSFontService,sans-serif" font-weight="400" font-size="73" transform="matrix(1 0 0 1 1334.37 1501)">310k</text></g><text font-family="Calibri,Calibri_MSFontService,sans-serif" font-weight="400" font-size="110" transform="matrix(1 0 0 1 3794.14 1673)">Training Iteration (k)</text><text font-family="Calibri,Calibri_MSFontService,sans-serif" font-weight="700" font-size="92" transform="matrix(1 0 0 1 4007.71 319)">(c) LPIPS</text><g><path d="M3658.5 1395.5 4843.5 1395.5M3658.5 1227.54 4843.5 1227.54M3658.5 1059.53 4843.5 1059.53M3658.5 891.529 4843.5 891.529M3658.5 723.524 4843.5 723.524M3658.5 555.5 4843.5 555.5" stroke="#BFBFBF" stroke-width="3.4375" stroke-linejoin="round" stroke-miterlimit="10" fill="none"/></g><g><path d="M3658.5 1395.5 4843.5 1395.5" stroke="#D9D9D9" stroke-width="3.4375" stroke-linejoin="round" stroke-miterlimit="10" fill="none" fill-rule="evenodd"/></g><g clip-path="url(#clip1)"><path d="M3658 497 3749.12 892.029 3871.13 1001.03 4114.13 1144.04 4600.15 1253 4844 1202.04" stroke="#90C6B8" stroke-width="18.3333" stroke-linecap="round" stroke-linejoin="round" stroke-miterlimit="10" fill="none"/></g><g><path d="M3687.61 496.837C3687.61 513.405 3674.17 526.837 3657.61 526.837 3641.04 526.837 3627.61 513.405 3627.61 496.837 3627.61 480.268 3641.04 466.837 3657.61 466.837 3674.17 466.837 3687.61 480.268 3687.61 496.837Z" stroke="#FFFFFF" stroke-width="8.02083" stroke-linejoin="round" stroke-miterlimit="10" fill="#90C6B8"/><path d="M3778.61 891.837C3778.61 908.405 3765.17 921.837 3748.61 921.837 3732.04 921.837 3718.61 908.405 3718.61 891.837 3718.61 875.268 3732.04 861.837 3748.61 861.837 3765.17 861.837 3778.61 875.268 3778.61 891.837Z" stroke="#FFFFFF" stroke-width="8.02083" stroke-linejoin="round" stroke-miterlimit="10" fill="#90C6B8"/><path d="M3900.61 1000.84C3900.61 1017.41 3887.17 1030.84 3870.61 1030.84 3854.04 1030.84 3840.61 1017.41 3840.61 1000.84 3840.61 984.269 3854.04 970.837 3870.61 970.837 3887.17 970.837 3900.61 984.269 3900.61 1000.84Z" stroke="#FFFFFF" stroke-width="8.02083" stroke-linejoin="round" stroke-miterlimit="10" fill="#90C6B8"/><path d="M4143.61 1143.84C4143.61 1160.41 4130.17 1173.84 4113.61 1173.84 4097.04 1173.84 4083.61 1160.41 4083.61 1143.84 4083.61 1127.27 4097.04 1113.84 4113.61 1113.84 4130.17 1113.84 4143.61 1127.27 4143.61 1143.84Z" stroke="#FFFFFF" stroke-width="8.02083" stroke-linejoin="round" stroke-miterlimit="10" fill="#90C6B8"/><path d="M4629.61 1252.84C4629.61 1269.41 4616.17 1282.84 4599.61 1282.84 4583.04 1282.84 4569.61 1269.41 4569.61 1252.84 4569.61 1236.27 4583.04 1222.84 4599.61 1222.84 4616.17 1222.84 4629.61 1236.27 4629.61 1252.84Z" stroke="#FFFFFF" stroke-width="8.02083" stroke-linejoin="round" stroke-miterlimit="10" fill="#90C6B8"/><path d="M4873.61 1201.84C4873.61 1218.41 4860.17 1231.84 4843.61 1231.84 4827.04 1231.84 4813.61 1218.41 4813.61 1201.84 4813.61 1185.27 4827.04 1171.84 4843.61 1171.84 4860.17 1171.84 4873.61 1185.27 4873.61 1201.84Z" stroke="#FFFFFF" stroke-width="8.02083" stroke-linejoin="round" stroke-miterlimit="10" fill="#90C6B8"/></g><g clip-path="url(#clip2)"><path d="M3658 757 3749.12 1018.03 3871.13 1135.04 4114.13 1244.04 4600.15 1320.04 4844 1337" stroke="#22869A" stroke-width="18.3333" stroke-linecap="round" stroke-linejoin="round" stroke-miterlimit="10" fill="none"/></g><g><path d="M3687.61 756.837C3687.61 773.406 3674.17 786.837 3657.61 786.837 3641.04 786.837 3627.61 773.406 3627.61 756.837 3627.61 740.269 3641.04 726.837 3657.61 726.837 3674.17 726.837 3687.61 740.269 3687.61 756.837Z" stroke="#FFFFFF" stroke-width="8.02083" stroke-linejoin="round" stroke-miterlimit="10" fill="#22869A"/><path d="M3778.61 1017.84C3778.61 1034.41 3765.17 1047.84 3748.61 1047.84 3732.04 1047.84 3718.61 1034.41 3718.61 1017.84 3718.61 1001.27 3732.04 987.837 3748.61 987.837 3765.17 987.837 3778.61 1001.27 3778.61 1017.84Z" stroke="#FFFFFF" stroke-width="8.02083" stroke-linejoin="round" stroke-miterlimit="10" fill="#22869A"/><path d="M3900.61 1134.84C3900.61 1151.41 3887.17 1164.84 3870.61 1164.84 3854.04 1164.84 3840.61 1151.41 3840.61 1134.84 3840.61 1118.27 3854.04 1104.84 3870.61 1104.84 3887.17 1104.84 3900.61 1118.27 3900.61 1134.84Z" stroke="#FFFFFF" stroke-width="8.02083" stroke-linejoin="round" stroke-miterlimit="10" fill="#22869A"/><path d="M4143.61 1243.84C4143.61 1260.41 4130.17 1273.84 4113.61 1273.84 4097.04 1273.84 4083.61 1260.41 4083.61 1243.84 4083.61 1227.27 4097.04 1213.84 4113.61 1213.84 4130.17 1213.84 4143.61 1227.27 4143.61 1243.84Z" stroke="#FFFFFF" stroke-width="8.02083" stroke-linejoin="round" stroke-miterlimit="10" fill="#22869A"/><path d="M4629.61 1319.84C4629.61 1336.41 4616.17 1349.84 4599.61 1349.84 4583.04 1349.84 4569.61 1336.41 4569.61 1319.84 4569.61 1303.27 4583.04 1289.84 4599.61 1289.84 4616.17 1289.84 4629.61 1303.27 4629.61 1319.84Z" stroke="#FFFFFF" stroke-width="8.02083" stroke-linejoin="round" stroke-miterlimit="10" fill="#22869A"/><path d="M4873.61 1336.84C4873.61 1353.41 4860.17 1366.84 4843.61 1366.84 4827.04 1366.84 4813.61 1353.41 4813.61 1336.84 4813.61 1320.27 4827.04 1306.84 4843.61 1306.84 4860.17 1306.84 4873.61 1320.27 4873.61 1336.84Z" stroke="#FFFFFF" stroke-width="8.02083" stroke-linejoin="round" stroke-miterlimit="10" fill="#22869A"/></g><g><text fill="#595959" font-family="Calibri,Calibri_MSFontService,sans-serif" font-weight="400" font-size="73" transform="matrix(1 0 0 1 3459.94 1417)">0.27</text></g><g><text fill="#595959" font-family="Calibri,Calibri_MSFontService,sans-serif" font-weight="400" font-size="73" transform="matrix(1 0 0 1 3459.94 1249)">0.29</text></g><g><text fill="#595959" font-family="Calibri,Calibri_MSFontService,sans-serif" font-weight="400" font-size="73" transform="matrix(1 0 0 1 3459.94 1081)">0.31</text></g><g><text fill="#595959" font-family="Calibri,Calibri_MSFontService,sans-serif" font-weight="400" font-size="73" transform="matrix(1 0 0 1 3459.94 913)">0.33</text></g><g><text fill="#595959" font-family="Calibri,Calibri_MSFontService,sans-serif" font-weight="400" font-size="73" transform="matrix(1 0 0 1 3459.94 745)">0.35</text></g><g><text fill="#595959" font-family="Calibri,Calibri_MSFontService,sans-serif" font-weight="400" font-size="73" transform="matrix(1 0 0 1 3459.94 577)">0.37</text></g><g><text fill="#595959" font-family="Calibri,Calibri_MSFontService,sans-serif" font-weight="400" font-size="73" transform="matrix(1 0 0 1 3604.16 1512)">10k</text></g><g><text fill="#595959" font-family="Calibri,Calibri_MSFontService,sans-serif" font-weight="400" font-size="73" transform="matrix(1 0 0 1 3786.56 1512)">70k</text></g><g><text fill="#595959" font-family="Calibri,Calibri_MSFontService,sans-serif" font-weight="400" font-size="73" transform="matrix(1 0 0 1 3950.37 1512)">130k</text></g><g><text fill="#595959" font-family="Calibri,Calibri_MSFontService,sans-serif" font-weight="400" font-size="73" transform="matrix(1 0 0 1 4132.78 1512)">190k</text></g><g><text fill="#595959" font-family="Calibri,Calibri_MSFontService,sans-serif" font-weight="400" font-size="73" transform="matrix(1 0 0 1 4315.18 1512)">250k</text></g><g><text fill="#595959" font-family="Calibri,Calibri_MSFontService,sans-serif" font-weight="400" font-size="73" transform="matrix(1 0 0 1 4497.58 1512)">310k</text></g><g><text fill="#595959" font-family="Calibri,Calibri_MSFontService,sans-serif" font-weight="400" font-size="73" transform="matrix(1 0 0 1 4679.98 1512)">370k</text></g><text font-family="Calibri,Calibri_MSFontService,sans-serif" font-weight="400" font-size="110" transform="matrix(1 0 0 1 686.447 1649)">Training Iteration (k)</text><text font-family="Calibri,Calibri_MSFontService,sans-serif" font-weight="700" font-size="92" transform="matrix(1 0 0 1 847.137 319)">(a) PSNR</text><path d="M1022.5 1103C1022.5 1079.53 1041.53 1060.5 1065 1060.5L1619 1060.5C1642.47 1060.5 1661.5 1079.53 1661.5 1103L1661.5 1273C1661.5 1296.47 1642.47 1315.5 1619 1315.5L1065 1315.5C1041.53 1315.5 1022.5 1296.47 1022.5 1273Z" stroke="#7F7F7F" stroke-width="4.58333" stroke-miterlimit="8" fill="#FFFFFF" fill-rule="evenodd" fill-opacity="0.701961"/><text fill="#404040" font-family="Calibri,Calibri_MSFontService,sans-serif" font-weight="400" font-size="83" transform="matrix(1 0 0 1 1292.64 1164)">CAT3D</text><path d="M1098.5 1137.5 1253.49 1137.5" stroke="#90C6B8" stroke-width="28.6458" stroke-linecap="round" stroke-miterlimit="8" fill="#FCC8BA" fill-rule="evenodd"/><path d="M1153.5 1137C1153.5 1122.92 1164.47 1111.5 1178 1111.5 1191.53 1111.5 1202.5 1122.92 1202.5 1137 1202.5 1151.08 1191.53 1162.5 1178 1162.5 1164.47 1162.5 1153.5 1151.08 1153.5 1137Z" stroke="#FFFFFF" stroke-width="6.875" stroke-miterlimit="8" fill="#90C6B8" fill-rule="evenodd"/><text fill="#404040" font-family="Calibri,Calibri_MSFontService,sans-serif" font-weight="700" font-size="83" transform="matrix(1 0 0 1 1292.01 1271)">+ CAMEO</text><path d="M1090.5 1243.5 1245.49 1243.5" stroke="#22869A" stroke-width="28.6458" stroke-linecap="round" stroke-miterlimit="8" fill="#C00000" fill-rule="evenodd"/><path d="M1145.5 1243.5C1145.5 1229.69 1156.47 1218.5 1170 1218.5 1183.53 1218.5 1194.5 1229.69 1194.5 1243.5 1194.5 1257.31 1183.53 1268.5 1170 1268.5 1156.47 1268.5 1145.5 1257.31 1145.5 1243.5Z" stroke="#FFFFFF" stroke-width="6.875" stroke-miterlimit="8" fill="#22869A" fill-rule="evenodd"/><text font-family="Calibri,Calibri_MSFontService,sans-serif" font-weight="400" font-size="110" transform="matrix(1 0 0 1 2230.58 1664)">Training Iteration (k)</text><g><path d="M2083.5 1399.5 3280.5 1399.5M2083.5 1230.54 3280.5 1230.54M2083.5 1061.54 3280.5 1061.54M2083.5 892.529 3280.5 892.529M2083.5 723.524 3280.5 723.524M2083.5 553.5 3280.5 553.5" stroke="#BFBFBF" stroke-width="3.4375" stroke-linejoin="round" stroke-miterlimit="10" fill="none"/></g><g><path d="M2083.5 1399.5 3280.5 1399.5" stroke="#D9D9D9" stroke-width="3.4375" stroke-linejoin="round" stroke-miterlimit="10" fill="none" fill-rule="evenodd"/></g><g><path d="M2084 1341 2176.07 1061.03 2299.08 791.026 2544.08 757.025 3035.1 622 3281 672.022" stroke="#90C6B8" stroke-width="18.3333" stroke-linecap="round" stroke-linejoin="round" stroke-miterlimit="10" fill="none"/></g><g><path d="M2114.16 1341.33C2114.16 1357.9 2100.73 1371.33 2084.16 1371.33 2067.59 1371.33 2054.16 1357.9 2054.16 1341.33 2054.16 1324.76 2067.59 1311.33 2084.16 1311.33 2100.73 1311.33 2114.16 1324.76 2114.16 1341.33Z" stroke="#FFFFFF" stroke-width="8.02083" stroke-linejoin="round" stroke-miterlimit="10" fill="#90C6B8"/><path d="M2206.16 1061.33C2206.16 1077.9 2192.73 1091.33 2176.16 1091.33 2159.59 1091.33 2146.16 1077.9 2146.16 1061.33 2146.16 1044.76 2159.59 1031.33 2176.16 1031.33 2192.73 1031.33 2206.16 1044.76 2206.16 1061.33Z" stroke="#FFFFFF" stroke-width="8.02083" stroke-linejoin="round" stroke-miterlimit="10" fill="#90C6B8"/><path d="M2329.16 791.33C2329.16 807.898 2315.73 821.33 2299.16 821.33 2282.59 821.33 2269.16 807.898 2269.16 791.33 2269.16 774.761 2282.59 761.33 2299.16 761.33 2315.73 761.33 2329.16 774.761 2329.16 791.33Z" stroke="#FFFFFF" stroke-width="8.02083" stroke-linejoin="round" stroke-miterlimit="10" fill="#90C6B8"/><path d="M2574.16 757.33C2574.16 773.898 2560.73 787.33 2544.16 787.33 2527.59 787.33 2514.16 773.898 2514.16 757.33 2514.16 740.761 2527.59 727.33 2544.16 727.33 2560.73 727.33 2574.16 740.761 2574.16 757.33Z" stroke="#FFFFFF" stroke-width="8.02083" stroke-linejoin="round" stroke-miterlimit="10" fill="#90C6B8"/><path d="M3065.16 622.33C3065.16 638.898 3051.73 652.33 3035.16 652.33 3018.59 652.33 3005.16 638.898 3005.16 622.33 3005.16 605.761 3018.59 592.33 3035.16 592.33 3051.73 592.33 3065.16 605.761 3065.16 622.33Z" stroke="#FFFFFF" stroke-width="8.02083" stroke-linejoin="round" stroke-miterlimit="10" fill="#90C6B8"/><path d="M3311.16 672.33C3311.16 688.898 3297.73 702.329 3281.16 702.329 3264.59 702.329 3251.16 688.898 3251.16 672.33 3251.16 655.761 3264.59 642.33 3281.16 642.33 3297.73 642.33 3311.16 655.761 3311.16 672.33Z" stroke="#FFFFFF" stroke-width="8.02083" stroke-linejoin="round" stroke-miterlimit="10" fill="#90C6B8"/></g><g><path d="M2084 1061 2176.07 918.03 2299.08 723.024 2544.08 647.021 3035.1 503 3281 554.018" stroke="#22869A" stroke-width="18.3333" stroke-linecap="round" stroke-linejoin="round" stroke-miterlimit="10" fill="none"/></g><g><path d="M2114.16 1061.33C2114.16 1077.9 2100.73 1091.33 2084.16 1091.33 2067.59 1091.33 2054.16 1077.9 2054.16 1061.33 2054.16 1044.76 2067.59 1031.33 2084.16 1031.33 2100.73 1031.33 2114.16 1044.76 2114.16 1061.33Z" stroke="#FFFFFF" stroke-width="8.02083" stroke-linejoin="round" stroke-miterlimit="10" fill="#22869A"/><path d="M2206.16 918.33C2206.16 934.898 2192.73 948.33 2176.16 948.33 2159.59 948.33 2146.16 934.898 2146.16 918.33 2146.16 901.761 2159.59 888.33 2176.16 888.33 2192.73 888.33 2206.16 901.761 2206.16 918.33Z" stroke="#FFFFFF" stroke-width="8.02083" stroke-linejoin="round" stroke-miterlimit="10" fill="#22869A"/><path d="M2329.16 723.33C2329.16 739.898 2315.73 753.33 2299.16 753.33 2282.59 753.33 2269.16 739.898 2269.16 723.33 2269.16 706.761 2282.59 693.33 2299.16 693.33 2315.73 693.33 2329.16 706.761 2329.16 723.33Z" stroke="#FFFFFF" stroke-width="8.02083" stroke-linejoin="round" stroke-miterlimit="10" fill="#22869A"/><path d="M2574.16 647.33C2574.16 663.898 2560.73 677.33 2544.16 677.33 2527.59 677.33 2514.16 663.898 2514.16 647.33 2514.16 630.761 2527.59 617.33 2544.16 617.33 2560.73 617.33 2574.16 630.761 2574.16 647.33Z" stroke="#FFFFFF" stroke-width="8.02083" stroke-linejoin="round" stroke-miterlimit="10" fill="#22869A"/><path d="M3065.16 503.33C3065.16 519.898 3051.73 533.33 3035.16 533.33 3018.59 533.33 3005.16 519.898 3005.16 503.33 3005.16 486.761 3018.59 473.33 3035.16 473.33 3051.73 473.33 3065.16 486.761 3065.16 503.33Z" stroke="#FFFFFF" stroke-width="8.02083" stroke-linejoin="round" stroke-miterlimit="10" fill="#22869A"/><path d="M3311.16 554.33C3311.16 570.898 3297.73 584.33 3281.16 584.33 3264.59 584.33 3251.16 570.898 3251.16 554.33 3251.16 537.761 3264.59 524.33 3281.16 524.33 3297.73 524.33 3311.16 537.761 3311.16 554.33Z" stroke="#FFFFFF" stroke-width="8.02083" stroke-linejoin="round" stroke-miterlimit="10" fill="#22869A"/></g><g><text fill="#595959" font-family="Calibri,Calibri_MSFontService,sans-serif" font-weight="400" font-size="73" transform="matrix(1 0 0 1 1885.89 1421)">0.61</text></g><g><text fill="#595959" font-family="Calibri,Calibri_MSFontService,sans-serif" font-weight="400" font-size="73" transform="matrix(1 0 0 1 1885.89 1252)">0.63</text></g><g><text fill="#595959" font-family="Calibri,Calibri_MSFontService,sans-serif" font-weight="400" font-size="73" transform="matrix(1 0 0 1 1885.89 1083)">0.65</text></g><g><text fill="#595959" font-family="Calibri,Calibri_MSFontService,sans-serif" font-weight="400" font-size="73" transform="matrix(1 0 0 1 1885.89 913)">0.67</text></g><g><text fill="#595959" font-family="Calibri,Calibri_MSFontService,sans-serif" font-weight="400" font-size="73" transform="matrix(1 0 0 1 1885.89 744)">0.69</text></g><g><text fill="#595959" font-family="Calibri,Calibri_MSFontService,sans-serif" font-weight="400" font-size="73" transform="matrix(1 0 0 1 1885.89 575)">0.71</text></g><g><text fill="#595959" font-family="Calibri,Calibri_MSFontService,sans-serif" font-weight="400" font-size="73" transform="matrix(1 0 0 1 2030.11 1516)">10k</text></g><g><text fill="#595959" font-family="Calibri,Calibri_MSFontService,sans-serif" font-weight="400" font-size="73" transform="matrix(1 0 0 1 2214.27 1516)">70k</text></g><g><text fill="#595959" font-family="Calibri,Calibri_MSFontService,sans-serif" font-weight="400" font-size="73" transform="matrix(1 0 0 1 2379.84 1516)">130k</text></g><g><text fill="#595959" font-family="Calibri,Calibri_MSFontService,sans-serif" font-weight="400" font-size="73" transform="matrix(1 0 0 1 2563.99 1516)">190k</text></g><g><text fill="#595959" font-family="Calibri,Calibri_MSFontService,sans-serif" font-weight="400" font-size="73" transform="matrix(1 0 0 1 2748.15 1516)">250k</text></g><g><text fill="#595959" font-family="Calibri,Calibri_MSFontService,sans-serif" font-weight="400" font-size="73" transform="matrix(1 0 0 1 2932.3 1516)">310k</text></g><g><text fill="#595959" font-family="Calibri,Calibri_MSFontService,sans-serif" font-weight="400" font-size="73" transform="matrix(1 0 0 1 3116.46 1516)">370k</text></g><text font-family="Calibri,Calibri_MSFontService,sans-serif" font-weight="700" font-size="92" transform="matrix(1 0 0 1 2443.74 319)">(b) SSIM</text><path d="M4195.5 550.001C4195.5 527.08 4214.08 508.5 4237 508.5L4783 508.5C4805.92 508.5 4824.5 527.08 4824.5 550.001L4824.5 715.999C4824.5 738.92 4805.92 757.5 4783 757.5L4237 757.5C4214.08 757.5 4195.5 738.92 4195.5 715.999Z" stroke="#7F7F7F" stroke-width="4.58333" stroke-miterlimit="8" fill="#FFFFFF" fill-rule="evenodd" fill-opacity="0.701961"/><text fill="#404040" font-family="Calibri,Calibri_MSFontService,sans-serif" font-weight="400" font-size="83" transform="matrix(1 0 0 1 4464.83 608)">CAT3D</text><path d="M4270.5 580.5 4425.49 580.5" stroke="#90C6B8" stroke-width="28.6458" stroke-linecap="round" stroke-miterlimit="8" fill="#FCC8BA" fill-rule="evenodd"/><path d="M4325.5 580.5C4325.5 566.693 4336.47 555.5 4350 555.5 4363.53 555.5 4374.5 566.693 4374.5 580.5 4374.5 594.307 4363.53 605.5 4350 605.5 4336.47 605.5 4325.5 594.307 4325.5 580.5Z" stroke="#FFFFFF" stroke-width="6.875" stroke-miterlimit="8" fill="#90C6B8" fill-rule="evenodd"/><text fill="#404040" font-family="Calibri,Calibri_MSFontService,sans-serif" font-weight="700" font-size="83" transform="matrix(1 0 0 1 4464.2 708)">+ CAMEO</text><path d="M4262.5 680.5 4417.49 680.5" stroke="#22869A" stroke-width="28.6458" stroke-linecap="round" stroke-miterlimit="8" fill="#C00000" fill-rule="evenodd"/><path d="M2626.5 1127.33C2626.5 1103.68 2645.68 1084.5 2669.33 1084.5L3217.67 1084.5C3241.32 1084.5 3260.5 1103.68 3260.5 1127.33L3260.5 1298.67C3260.5 1322.32 3241.32 1341.5 3217.67 1341.5L2669.33 1341.5C2645.68 1341.5 2626.5 1322.32 2626.5 1298.67Z" stroke="#7F7F7F" stroke-width="4.58333" stroke-miterlimit="8" fill="#FFFFFF" fill-rule="evenodd" fill-opacity="0.701961"/><text fill="#404040" font-family="Calibri,Calibri_MSFontService,sans-serif" font-weight="400" font-size="83" transform="matrix(1 0 0 1 2896.5 1191)">CAT3D</text><path d="M2702.5 1163.5 2857.49 1163.5" stroke="#90C6B8" stroke-width="28.6458" stroke-linecap="round" stroke-miterlimit="8" fill="#FCC8BA" fill-rule="evenodd"/><path d="M2757.5 1163.5C2757.5 1149.69 2768.47 1138.5 2782 1138.5 2795.53 1138.5 2806.5 1149.69 2806.5 1163.5 2806.5 1177.31 2795.53 1188.5 2782 1188.5 2768.47 1188.5 2757.5 1177.31 2757.5 1163.5Z" stroke="#FFFFFF" stroke-width="6.875" stroke-miterlimit="8" fill="#90C6B8" fill-rule="evenodd"/><text fill="#404040" font-family="Calibri,Calibri_MSFontService,sans-serif" font-weight="700" font-size="83" transform="matrix(1 0 0 1 2895.87 1294)">+ CAMEO</text><path d="M2694.5 1266.5 2849.49 1266.5" stroke="#22869A" stroke-width="28.6458" stroke-linecap="round" stroke-miterlimit="8" fill="#C00000" fill-rule="evenodd"/><path d="M2749.5 1266.5C2749.5 1252.69 2760.47 1241.5 2774 1241.5 2787.53 1241.5 2798.5 1252.69 2798.5 1266.5 2798.5 1280.31 2787.53 1291.5 2774 1291.5 2760.47 1291.5 2749.5 1280.31 2749.5 1266.5Z" stroke="#FFFFFF" stroke-width="6.875" stroke-miterlimit="8" fill="#22869A" fill-rule="evenodd"/><path d="M4317.5 682.5C4317.5 668.693 4328.47 657.5 4342 657.5 4355.53 657.5 4366.5 668.693 4366.5 682.5 4366.5 696.307 4355.53 707.5 4342 707.5 4328.47 707.5 4317.5 696.307 4317.5 682.5Z" stroke="#FFFFFF" stroke-width="6.875" stroke-miterlimit="8" fill="#22869A" fill-rule="evenodd"/><rect x="432" y="1399" width="1302" height="128" fill="#FFFFFF"/><text fill="#404040" font-family="Calibri,Calibri_MSFontService,sans-serif" font-weight="400" font-size="73" transform="matrix(1 0 0 1 458.107 1503)">10</text><text fill="#404040" font-family="Calibri,Calibri_MSFontService,sans-serif" font-weight="400" font-size="73" transform="matrix(1 0 0 1 547.335 1503)">40</text><text fill="#404040" font-family="Calibri,Calibri_MSFontService,sans-serif" font-weight="400" font-size="73" transform="matrix(1 0 0 1 660.391 1503)">80</text><text fill="#404040" font-family="Calibri,Calibri_MSFontService,sans-serif" font-weight="400" font-size="73" transform="matrix(1 0 0 1 882.926 1503)">160</text><text fill="#404040" font-family="Calibri,Calibri_MSFontService,sans-serif" font-weight="400" font-size="73" transform="matrix(1 0 0 1 1346.08 1503)">320</text><text fill="#404040" font-family="Calibri,Calibri_MSFontService,sans-serif" font-weight="400" font-size="73" transform="matrix(1 0 0 1 1595.77 1503)">400</text><rect x="2026" y="1414" width="1327" height="129" fill="#FFFFFF"/><text fill="#404040" font-family="Calibri,Calibri_MSFontService,sans-serif" font-weight="400" font-size="73" transform="matrix(1 0 0 1 2052.91 1519)">10</text><text fill="#404040" font-family="Calibri,Calibri_MSFontService,sans-serif" font-weight="400" font-size="73" transform="matrix(1 0 0 1 2143.93 1519)">40</text><text fill="#404040" font-family="Calibri,Calibri_MSFontService,sans-serif" font-weight="400" font-size="73" transform="matrix(1 0 0 1 2259.25 1519)">80</text><text fill="#404040" font-family="Calibri,Calibri_MSFontService,sans-serif" font-weight="400" font-size="73" transform="matrix(1 0 0 1 2486.62 1519)">160</text><text fill="#404040" font-family="Calibri,Calibri_MSFontService,sans-serif" font-weight="400" font-size="73" transform="matrix(1 0 0 1 2959.07 1519)">320</text><text fill="#404040" font-family="Calibri,Calibri_MSFontService,sans-serif" font-weight="400" font-size="73" transform="matrix(1 0 0 1 3213.77 1519)">400</text><rect x="3589" y="1400" width="1327" height="128" fill="#FFFFFF"/><text fill="#404040" font-family="Calibri,Calibri_MSFontService,sans-serif" font-weight="400" font-size="73" transform="matrix(1 0 0 1 3615.82 1504)">10</text><text fill="#404040" font-family="Calibri,Calibri_MSFontService,sans-serif" font-weight="400" font-size="73" transform="matrix(1 0 0 1 3706.84 1504)">40</text><text fill="#404040" font-family="Calibri,Calibri_MSFontService,sans-serif" font-weight="400" font-size="73" transform="matrix(1 0 0 1 3822.16 1504)">80</text><text fill="#404040" font-family="Calibri,Calibri_MSFontService,sans-serif" font-weight="400" font-size="73" transform="matrix(1 0 0 1 4049.53 1504)">160</text><text fill="#404040" font-family="Calibri,Calibri_MSFontService,sans-serif" font-weight="400" font-size="73" transform="matrix(1 0 0 1 4521.98 1504)">320</text><text fill="#404040" font-family="Calibri,Calibri_MSFontService,sans-serif" font-weight="400" font-size="73" transform="matrix(1 0 0 1 4776.68 1504)">400</text></g></svg>