<svg width="4959" height="1561" xmlns="http://www.w3.org/2000/svg" xmlns:xlink="http://www.w3.org/1999/xlink" xml:space="preserve" overflow="hidden"><defs><clipPath id="clip0"><rect x="147" y="1786" width="4959" height="1561"/></clipPath><clipPath id="clip1"><rect x="3658" y="2049" width="1189" height="927"/></clipPath><clipPath id="clip2"><rect x="3658" y="2049" width="1189" height="927"/></clipPath></defs><g clip-path="url(#clip0)" transform="translate(-147 -1786)"><rect x="147" y="1786" width="4959" height="1557" fill="#FFFFFF"/><path d="M3657.5 2033.5 3657.5 2979.12" stroke="#D9D9D9" stroke-width="1.14583" stroke-miterlimit="8" fill="none" fill-rule="evenodd"/><path d="M3772.5 2033.5 3772.5 2979.12" stroke="#D9D9D9" stroke-width="1.14583" stroke-miterlimit="8" fill="none" fill-rule="evenodd"/><path d="M3924.5 2033.5 3924.5 2979.12" stroke="#D9D9D9" stroke-width="1.14583" stroke-miterlimit="8" fill="none" fill-rule="evenodd"/><path d="M4233.5 2033.5 4233.5 2979.12" stroke="#D9D9D9" stroke-width="1.14583" stroke-miterlimit="8" fill="none" fill-rule="evenodd"/><path d="M4846.5 2033.5 4846.5 2979.12" stroke="#D9D9D9" stroke-width="1.14583" stroke-miterlimit="8" fill="none" fill-rule="evenodd"/><path d="M2078.5 2021.5 2078.5 2967.12" stroke="#D9D9D9" stroke-width="1.14583" stroke-miterlimit="8" fill="none" fill-rule="evenodd"/><path d="M2200.5 2021.5 2200.5 2967.12" stroke="#D9D9D9" stroke-width="1.14583" stroke-miterlimit="8" fill="none" fill-rule="evenodd"/><path d="M2355.5 2021.5 2355.5 2967.12" stroke="#D9D9D9" stroke-width="1.14583" stroke-miterlimit="8" fill="none" fill-rule="evenodd"/><path d="M2663.5 2021.5 2663.5 2967.12" stroke="#D9D9D9" stroke-width="1.14583" stroke-miterlimit="8" fill="none" fill-rule="evenodd"/><path d="M3279.5 2021.5 3279.5 2967.12" stroke="#D9D9D9" stroke-width="1.14583" stroke-miterlimit="8" fill="none" fill-rule="evenodd"/><path d="M520.5 2046.5 520.5 2992.12" stroke="#D9D9D9" stroke-width="1.14583" stroke-miterlimit="8" fill="none" fill-rule="evenodd"/><path d="M633.5 2046.5 633.5 2992.12" stroke="#D9D9D9" stroke-width="1.14583" stroke-miterlimit="8" fill="none" fill-rule="evenodd"/><path d="M779.5 2046.5 779.5 2992.12" stroke="#D9D9D9" stroke-width="1.14583" stroke-miterlimit="8" fill="none" fill-rule="evenodd"/><path d="M1076.5 2046.5 1076.5 2992.12" stroke="#D9D9D9" stroke-width="1.14583" stroke-miterlimit="8" fill="none" fill-rule="evenodd"/><path d="M1671.5 2046.5 1671.5 2992.12" stroke="#D9D9D9" stroke-width="1.14583" stroke-miterlimit="8" fill="none" fill-rule="evenodd"/><text font-family="Calibri,Calibri_MSFontService,sans-serif" font-weight="400" font-size="110" transform="matrix(1 0 0 1 3794.14 3252)">Training Iteration (k)</text><g><path d="M3658.5 2972.5 4843.5 2972.5M3658.5 2857.59 4843.5 2857.59M3658.5 2741.59 4843.5 2741.59M3658.5 2626.59 4843.5 2626.59M3658.5 2511.58 4843.5 2511.58M3658.5 2395.58 4843.5 2395.58M3658.5 2280.57 4843.5 2280.57M3658.5 2164.57 4843.5 2164.57M3658.5 2049.5 4843.5 2049.5" stroke="#BFBFBF" stroke-width="3.4375" stroke-linejoin="round" stroke-miterlimit="10" fill="none"/></g><g><path d="M3658.5 2972.5 4843.5 2972.5" stroke="#D9D9D9" stroke-width="3.4375" stroke-linejoin="round" stroke-miterlimit="10" fill="none" fill-rule="evenodd"/></g><g clip-path="url(#clip1)"><path d="M3658 2107 3773.12 2274.07 3926.13 2482.08 4232.14 2707.09 4844 2754" stroke="#90C6B8" stroke-width="18.3333" stroke-linecap="round" stroke-linejoin="round" stroke-miterlimit="10" fill="none"/></g><g><path d="M3687.61 2107.28C3687.61 2123.85 3674.17 2137.28 3657.61 2137.28 3641.04 2137.28 3627.61 2123.85 3627.61 2107.28 3627.61 2090.71 3641.04 2077.28 3657.61 2077.28 3674.17 2077.28 3687.61 2090.71 3687.61 2107.28Z" stroke="#FFFFFF" stroke-width="8.02083" stroke-linejoin="round" stroke-miterlimit="10" fill="#90C6B8"/><path d="M3802.61 2275.28C3802.61 2291.85 3789.17 2305.28 3772.61 2305.28 3756.04 2305.28 3742.61 2291.85 3742.61 2275.28 3742.61 2258.71 3756.04 2245.28 3772.61 2245.28 3789.17 2245.28 3802.61 2258.71 3802.61 2275.28Z" stroke="#FFFFFF" stroke-width="8.02083" stroke-linejoin="round" stroke-miterlimit="10" fill="#90C6B8"/><path d="M3955.61 2482.28C3955.61 2498.85 3942.17 2512.28 3925.61 2512.28 3909.04 2512.28 3895.61 2498.85 3895.61 2482.28 3895.61 2465.71 3909.04 2452.28 3925.61 2452.28 3942.17 2452.28 3955.61 2465.71 3955.61 2482.28Z" stroke="#FFFFFF" stroke-width="8.02083" stroke-linejoin="round" stroke-miterlimit="10" fill="#90C6B8"/><path d="M4261.61 2707.28C4261.61 2723.85 4248.17 2737.28 4231.61 2737.28 4215.04 2737.28 4201.61 2723.85 4201.61 2707.28 4201.61 2690.71 4215.04 2677.28 4231.61 2677.28 4248.17 2677.28 4261.61 2690.71 4261.61 2707.28Z" stroke="#FFFFFF" stroke-width="8.02083" stroke-linejoin="round" stroke-miterlimit="10" fill="#90C6B8"/><path d="M4873.61 2754.28C4873.61 2770.85 4860.17 2784.28 4843.61 2784.28 4827.04 2784.28 4813.61 2770.85 4813.61 2754.28 4813.61 2737.71 4827.04 2724.28 4843.61 2724.28 4860.17 2724.28 4873.61 2737.71 4873.61 2754.28Z" stroke="#FFFFFF" stroke-width="8.02083" stroke-linejoin="round" stroke-miterlimit="10" fill="#90C6B8"/></g><g clip-path="url(#clip2)"><path d="M3658 2332 3773.12 2378.08 3926.13 2580.08 4232.14 2707.09 4844 2886" stroke="#22869A" stroke-width="18.3333" stroke-linecap="round" stroke-linejoin="round" stroke-miterlimit="10" fill="none"/></g><g><path d="M3687.61 2332.28C3687.61 2348.85 3674.17 2362.28 3657.61 2362.28 3641.04 2362.28 3627.61 2348.85 3627.61 2332.28 3627.61 2315.71 3641.04 2302.28 3657.61 2302.28 3674.17 2302.28 3687.61 2315.71 3687.61 2332.28Z" stroke="#FFFFFF" stroke-width="8.02083" stroke-linejoin="round" stroke-miterlimit="10" fill="#22869A"/><path d="M3802.61 2378.28C3802.61 2394.85 3789.17 2408.28 3772.61 2408.28 3756.04 2408.28 3742.61 2394.85 3742.61 2378.28 3742.61 2361.71 3756.04 2348.28 3772.61 2348.28 3789.17 2348.28 3802.61 2361.71 3802.61 2378.28Z" stroke="#FFFFFF" stroke-width="8.02083" stroke-linejoin="round" stroke-miterlimit="10" fill="#22869A"/><path d="M3955.61 2580.28C3955.61 2596.85 3942.17 2610.28 3925.61 2610.28 3909.04 2610.28 3895.61 2596.85 3895.61 2580.28 3895.61 2563.71 3909.04 2550.28 3925.61 2550.28 3942.17 2550.28 3955.61 2563.71 3955.61 2580.28Z" stroke="#FFFFFF" stroke-width="8.02083" stroke-linejoin="round" stroke-miterlimit="10" fill="#22869A"/><path d="M4261.61 2707.28C4261.61 2723.85 4248.17 2737.28 4231.61 2737.28 4215.04 2737.28 4201.61 2723.85 4201.61 2707.28 4201.61 2690.71 4215.04 2677.28 4231.61 2677.28 4248.17 2677.28 4261.61 2690.71 4261.61 2707.28Z" stroke="#FFFFFF" stroke-width="8.02083" stroke-linejoin="round" stroke-miterlimit="10" fill="#22869A"/><path d="M4873.61 2886.28C4873.61 2902.85 4860.17 2916.28 4843.61 2916.28 4827.04 2916.28 4813.61 2902.85 4813.61 2886.28 4813.61 2869.71 4827.04 2856.28 4843.61 2856.28 4860.17 2856.28 4873.61 2869.71 4873.61 2886.28Z" stroke="#FFFFFF" stroke-width="8.02083" stroke-linejoin="round" stroke-miterlimit="10" fill="#22869A"/></g><g><text fill="#595959" font-family="Calibri,Calibri_MSFontService,sans-serif" font-weight="400" font-size="73" transform="matrix(1 0 0 1 3459.94 2994)">0.41</text></g><g><text fill="#595959" font-family="Calibri,Calibri_MSFontService,sans-serif" font-weight="400" font-size="73" transform="matrix(1 0 0 1 3459.94 2879)">0.43</text></g><g><text fill="#595959" font-family="Calibri,Calibri_MSFontService,sans-serif" font-weight="400" font-size="73" transform="matrix(1 0 0 1 3459.94 2763)">0.45</text></g><g><text fill="#595959" font-family="Calibri,Calibri_MSFontService,sans-serif" font-weight="400" font-size="73" transform="matrix(1 0 0 1 3459.94 2648)">0.47</text></g><g><text fill="#595959" font-family="Calibri,Calibri_MSFontService,sans-serif" font-weight="400" font-size="73" transform="matrix(1 0 0 1 3459.94 2532)">0.49</text></g><g><text fill="#595959" font-family="Calibri,Calibri_MSFontService,sans-serif" font-weight="400" font-size="73" transform="matrix(1 0 0 1 3459.94 2417)">0.51</text></g><g><text fill="#595959" font-family="Calibri,Calibri_MSFontService,sans-serif" font-weight="400" font-size="73" transform="matrix(1 0 0 1 3459.94 2302)">0.53</text></g><g><text fill="#595959" font-family="Calibri,Calibri_MSFontService,sans-serif" font-weight="400" font-size="73" transform="matrix(1 0 0 1 3459.94 2186)">0.55</text></g><g><text fill="#595959" font-family="Calibri,Calibri_MSFontService,sans-serif" font-weight="400" font-size="73" transform="matrix(1 0 0 1 3459.94 2071)">0.57</text></g><g><text fill="#595959" font-family="Calibri,Calibri_MSFontService,sans-serif" font-weight="400" font-size="73" transform="matrix(1 0 0 1 3604.16 3089)">10k</text></g><g><text fill="#595959" font-family="Calibri,Calibri_MSFontService,sans-serif" font-weight="400" font-size="73" transform="matrix(1 0 0 1 3833.63 3089)">70k</text></g><g><text fill="#595959" font-family="Calibri,Calibri_MSFontService,sans-serif" font-weight="400" font-size="73" transform="matrix(1 0 0 1 4044.52 3089)">130k</text></g><g><text fill="#595959" font-family="Calibri,Calibri_MSFontService,sans-serif" font-weight="400" font-size="73" transform="matrix(1 0 0 1 4273.99 3089)">190k</text></g><g><text fill="#595959" font-family="Calibri,Calibri_MSFontService,sans-serif" font-weight="400" font-size="73" transform="matrix(1 0 0 1 4503.46 3089)">250k</text></g><g><text fill="#595959" font-family="Calibri,Calibri_MSFontService,sans-serif" font-weight="400" font-size="73" transform="matrix(1 0 0 1 4732.93 3089)">310k</text></g><text font-family="Calibri,Calibri_MSFontService,sans-serif" font-weight="400" font-size="110" transform="matrix(1 0 0 1 656.966 3252)">Training Iteration (k)</text><g><path d="M518.5 2990.5 1673.5 2990.5M518.5 2841.59 1673.5 2841.59M518.5 2692.59 1673.5 2692.59M518.5 2543.58 1673.5 2543.58M518.5 2394.58 1673.5 2394.58M518.5 2246.57 1673.5 2246.57M518.5 2097.5 1673.5 2097.5" stroke="#BFBFBF" stroke-width="3.4375" stroke-linejoin="round" stroke-miterlimit="10" fill="none"/></g><g><path d="M518.5 2990.5 1673.5 2990.5" stroke="#D9D9D9" stroke-width="3.4375" stroke-linejoin="round" stroke-miterlimit="10" fill="none" fill-rule="evenodd"/></g><g><path d="M519 2873 630.021 2743.09 779.026 2554.08 1077.04 2342.08 1673 2236" stroke="#90C6B8" stroke-width="18.3333" stroke-linecap="round" stroke-linejoin="round" stroke-miterlimit="10" fill="none"/></g><g><path d="M549.245 2872.7C549.245 2889.27 535.813 2902.7 519.245 2902.7 502.676 2902.7 489.245 2889.27 489.245 2872.7 489.245 2856.13 502.676 2842.7 519.245 2842.7 535.813 2842.7 549.245 2856.13 549.245 2872.7Z" stroke="#FFFFFF" stroke-width="8.02083" stroke-linejoin="round" stroke-miterlimit="10" fill="#90C6B8"/><path d="M660.245 2743.7C660.245 2760.27 646.813 2773.7 630.245 2773.7 613.676 2773.7 600.245 2760.27 600.245 2743.7 600.245 2727.13 613.676 2713.7 630.245 2713.7 646.813 2713.7 660.245 2727.13 660.245 2743.7Z" stroke="#FFFFFF" stroke-width="8.02083" stroke-linejoin="round" stroke-miterlimit="10" fill="#90C6B8"/><path d="M809.245 2553.7C809.245 2570.27 795.813 2583.7 779.245 2583.7 762.676 2583.7 749.245 2570.27 749.245 2553.7 749.245 2537.13 762.676 2523.7 779.245 2523.7 795.813 2523.7 809.245 2537.13 809.245 2553.7Z" stroke="#FFFFFF" stroke-width="8.02083" stroke-linejoin="round" stroke-miterlimit="10" fill="#90C6B8"/><path d="M1107.24 2341.7C1107.24 2358.27 1093.81 2371.7 1077.24 2371.7 1060.68 2371.7 1047.25 2358.27 1047.25 2341.7 1047.25 2325.13 1060.68 2311.7 1077.24 2311.7 1093.81 2311.7 1107.24 2325.13 1107.24 2341.7Z" stroke="#FFFFFF" stroke-width="8.02083" stroke-linejoin="round" stroke-miterlimit="10" fill="#90C6B8"/><path d="M1703.24 2235.7C1703.24 2252.27 1689.81 2265.7 1673.24 2265.7 1656.68 2265.7 1643.24 2252.27 1643.24 2235.7 1643.24 2219.13 1656.68 2205.7 1673.24 2205.7 1689.81 2205.7 1703.24 2219.13 1703.24 2235.7Z" stroke="#FFFFFF" stroke-width="8.02083" stroke-linejoin="round" stroke-miterlimit="10" fill="#90C6B8"/></g><g><path d="M519 2707 630.021 2650.09 779.026 2403.08 1077.04 2274.07 1673 2098" stroke="#22869A" stroke-width="18.3333" stroke-linecap="round" stroke-linejoin="round" stroke-miterlimit="10" fill="none"/></g><g><path d="M549.245 2706.7C549.245 2723.27 535.813 2736.7 519.245 2736.7 502.676 2736.7 489.245 2723.27 489.245 2706.7 489.245 2690.13 502.676 2676.7 519.245 2676.7 535.813 2676.7 549.245 2690.13 549.245 2706.7Z" stroke="#FFFFFF" stroke-width="8.02083" stroke-linejoin="round" stroke-miterlimit="10" fill="#22869A"/><path d="M660.245 2649.7C660.245 2666.27 646.813 2679.7 630.245 2679.7 613.676 2679.7 600.245 2666.27 600.245 2649.7 600.245 2633.13 613.676 2619.7 630.245 2619.7 646.813 2619.7 660.245 2633.13 660.245 2649.7Z" stroke="#FFFFFF" stroke-width="8.02083" stroke-linejoin="round" stroke-miterlimit="10" fill="#22869A"/><path d="M809.245 2403.7C809.245 2420.27 795.813 2433.7 779.245 2433.7 762.676 2433.7 749.245 2420.27 749.245 2403.7 749.245 2387.13 762.676 2373.7 779.245 2373.7 795.813 2373.7 809.245 2387.13 809.245 2403.7Z" stroke="#FFFFFF" stroke-width="8.02083" stroke-linejoin="round" stroke-miterlimit="10" fill="#22869A"/><path d="M1107.24 2273.7C1107.24 2290.27 1093.81 2303.7 1077.24 2303.7 1060.68 2303.7 1047.25 2290.27 1047.25 2273.7 1047.25 2257.13 1060.68 2243.7 1077.24 2243.7 1093.81 2243.7 1107.24 2257.13 1107.24 2273.7Z" stroke="#FFFFFF" stroke-width="8.02083" stroke-linejoin="round" stroke-miterlimit="10" fill="#22869A"/><path d="M1703.24 2097.7C1703.24 2114.27 1689.81 2127.7 1673.24 2127.7 1656.68 2127.7 1643.24 2114.27 1643.24 2097.7 1643.24 2081.13 1656.68 2067.7 1673.24 2067.7 1689.81 2067.7 1703.24 2081.13 1703.24 2097.7Z" stroke="#FFFFFF" stroke-width="8.02083" stroke-linejoin="round" stroke-miterlimit="10" fill="#22869A"/></g><g><text fill="#595959" font-family="Calibri,Calibri_MSFontService,sans-serif" font-weight="400" font-size="73" transform="matrix(1 0 0 1 304.12 3011)">14.0</text></g><g><text fill="#595959" font-family="Calibri,Calibri_MSFontService,sans-serif" font-weight="400" font-size="73" transform="matrix(1 0 0 1 304.12 2862)">14.7</text></g><g><text fill="#595959" font-family="Calibri,Calibri_MSFontService,sans-serif" font-weight="400" font-size="73" transform="matrix(1 0 0 1 304.12 2714)">15.4</text></g><g><text fill="#595959" font-family="Calibri,Calibri_MSFontService,sans-serif" font-weight="400" font-size="73" transform="matrix(1 0 0 1 304.12 2565)">16.1</text></g><g><text fill="#595959" font-family="Calibri,Calibri_MSFontService,sans-serif" font-weight="400" font-size="73" transform="matrix(1 0 0 1 304.12 2416)">16.8</text></g><g><text fill="#595959" font-family="Calibri,Calibri_MSFontService,sans-serif" font-weight="400" font-size="73" transform="matrix(1 0 0 1 304.12 2268)">17.5</text></g><g><text fill="#595959" font-family="Calibri,Calibri_MSFontService,sans-serif" font-weight="400" font-size="73" transform="matrix(1 0 0 1 304.12 2119)">18.2</text></g><g><text fill="#595959" font-family="Calibri,Calibri_MSFontService,sans-serif" font-weight="400" font-size="73" transform="matrix(1 0 0 1 464.908 3107)">10k</text></g><g><text fill="#595959" font-family="Calibri,Calibri_MSFontService,sans-serif" font-weight="400" font-size="73" transform="matrix(1 0 0 1 688.352 3107)">70k</text></g><g><text fill="#595959" font-family="Calibri,Calibri_MSFontService,sans-serif" font-weight="400" font-size="73" transform="matrix(1 0 0 1 893.211 3107)">130k</text></g><g><text fill="#595959" font-family="Calibri,Calibri_MSFontService,sans-serif" font-weight="400" font-size="73" transform="matrix(1 0 0 1 1116.66 3107)">190k</text></g><g><text fill="#595959" font-family="Calibri,Calibri_MSFontService,sans-serif" font-weight="400" font-size="73" transform="matrix(1 0 0 1 1340.1 3107)">250k</text></g><g><text fill="#595959" font-family="Calibri,Calibri_MSFontService,sans-serif" font-weight="400" font-size="73" transform="matrix(1 0 0 1 1563.54 3107)">310k</text></g><path d="M1022.5 2722.67C1022.5 2698.83 1041.83 2679.5 1065.67 2679.5L1618.33 2679.5C1642.17 2679.5 1661.5 2698.83 1661.5 2722.67L1661.5 2895.33C1661.5 2919.17 1642.17 2938.5 1618.33 2938.5L1065.67 2938.5C1041.83 2938.5 1022.5 2919.17 1022.5 2895.33Z" stroke="#7F7F7F" stroke-width="4.58333" stroke-miterlimit="8" fill="#FFFFFF" fill-rule="evenodd" fill-opacity="0.701961"/><text fill="#404040" font-family="Calibri,Calibri_MSFontService,sans-serif" font-weight="400" font-size="83" transform="matrix(1 0 0 1 1292.64 2794)">CAT3D</text><path d="M1098.5 2766.5 1253.49 2766.5" stroke="#90C6B8" stroke-width="28.6458" stroke-linecap="round" stroke-miterlimit="8" fill="#FCC8BA" fill-rule="evenodd"/><path d="M1153.5 2766.5C1153.5 2752.69 1164.47 2741.5 1178 2741.5 1191.53 2741.5 1202.5 2752.69 1202.5 2766.5 1202.5 2780.31 1191.53 2791.5 1178 2791.5 1164.47 2791.5 1153.5 2780.31 1153.5 2766.5Z" stroke="#FFFFFF" stroke-width="6.875" stroke-miterlimit="8" fill="#90C6B8" fill-rule="evenodd"/><text fill="#404040" font-family="Calibri,Calibri_MSFontService,sans-serif" font-weight="700" font-size="83" transform="matrix(1 0 0 1 1292.01 2889)">+ CAMEO</text><path d="M1090.5 2861.5 1245.49 2861.5" stroke="#22869A" stroke-width="28.6458" stroke-linecap="round" stroke-miterlimit="8" fill="#C00000" fill-rule="evenodd"/><path d="M1145.5 2861.5C1145.5 2847.69 1156.47 2836.5 1170 2836.5 1183.53 2836.5 1194.5 2847.69 1194.5 2861.5 1194.5 2875.31 1183.53 2886.5 1170 2886.5 1156.47 2886.5 1145.5 2875.31 1145.5 2861.5Z" stroke="#FFFFFF" stroke-width="6.875" stroke-miterlimit="8" fill="#22869A" fill-rule="evenodd"/><text font-family="Calibri,Calibri_MSFontService,sans-serif" font-weight="400" font-size="110" transform="matrix(1 0 0 1 2230.58 3252)">Training Iteration (k)</text><g><path d="M2083.5 2976.5 3280.5 2976.5M2083.5 2843.59 3280.5 2843.59M2083.5 2710.59 3280.5 2710.59M2083.5 2577.58 3280.5 2577.58M2083.5 2444.58 3280.5 2444.58M2083.5 2311.58 3280.5 2311.58M2083.5 2178.57 3280.5 2178.57M2083.5 2045.5 3280.5 2045.5" stroke="#BFBFBF" stroke-width="3.4375" stroke-linejoin="round" stroke-miterlimit="10" fill="none"/></g><g><path d="M2083.5 2976.5 3280.5 2976.5" stroke="#D9D9D9" stroke-width="3.4375" stroke-linejoin="round" stroke-miterlimit="10" fill="none" fill-rule="evenodd"/></g><g><path d="M2084 2777 2200.07 2750.09 2354.08 2577.08 2663.09 2458.08 3281 2165" stroke="#90C6B8" stroke-width="18.3333" stroke-linecap="round" stroke-linejoin="round" stroke-miterlimit="10" fill="none"/></g><g><path d="M2114.16 2776.78C2114.16 2793.35 2100.73 2806.78 2084.16 2806.78 2067.59 2806.78 2054.16 2793.35 2054.16 2776.78 2054.16 2760.21 2067.59 2746.78 2084.16 2746.78 2100.73 2746.78 2114.16 2760.21 2114.16 2776.78Z" stroke="#FFFFFF" stroke-width="8.02083" stroke-linejoin="round" stroke-miterlimit="10" fill="#90C6B8"/><path d="M2230.16 2749.78C2230.16 2766.35 2216.73 2779.78 2200.16 2779.78 2183.59 2779.78 2170.16 2766.35 2170.16 2749.78 2170.16 2733.21 2183.59 2719.78 2200.16 2719.78 2216.73 2719.78 2230.16 2733.21 2230.16 2749.78Z" stroke="#FFFFFF" stroke-width="8.02083" stroke-linejoin="round" stroke-miterlimit="10" fill="#90C6B8"/><path d="M2384.16 2576.78C2384.16 2593.35 2370.73 2606.78 2354.16 2606.78 2337.59 2606.78 2324.16 2593.35 2324.16 2576.78 2324.16 2560.21 2337.59 2546.78 2354.16 2546.78 2370.73 2546.78 2384.16 2560.21 2384.16 2576.78Z" stroke="#FFFFFF" stroke-width="8.02083" stroke-linejoin="round" stroke-miterlimit="10" fill="#90C6B8"/><path d="M2693.16 2457.78C2693.16 2474.35 2679.73 2487.78 2663.16 2487.78 2646.59 2487.78 2633.16 2474.35 2633.16 2457.78 2633.16 2441.21 2646.59 2427.78 2663.16 2427.78 2679.73 2427.78 2693.16 2441.21 2693.16 2457.78Z" stroke="#FFFFFF" stroke-width="8.02083" stroke-linejoin="round" stroke-miterlimit="10" fill="#90C6B8"/><path d="M3311.16 2164.78C3311.16 2181.35 3297.73 2194.78 3281.16 2194.78 3264.59 2194.78 3251.16 2181.35 3251.16 2164.78 3251.16 2148.21 3264.59 2134.78 3281.16 2134.78 3297.73 2134.78 3311.16 2148.21 3311.16 2164.78Z" stroke="#FFFFFF" stroke-width="8.02083" stroke-linejoin="round" stroke-miterlimit="10" fill="#90C6B8"/></g><g><path d="M2084 2870 2200.07 2631.09 2354.08 2325.08 2663.09 2298.08 3281 2072" stroke="#22869A" stroke-width="18.3333" stroke-linecap="round" stroke-linejoin="round" stroke-miterlimit="10" fill="none"/></g><g><path d="M2114.16 2869.78C2114.16 2886.35 2100.73 2899.78 2084.16 2899.78 2067.59 2899.78 2054.16 2886.35 2054.16 2869.78 2054.16 2853.21 2067.59 2839.78 2084.16 2839.78 2100.73 2839.78 2114.16 2853.21 2114.16 2869.78Z" stroke="#FFFFFF" stroke-width="8.02083" stroke-linejoin="round" stroke-miterlimit="10" fill="#22869A"/><path d="M2230.16 2630.78C2230.16 2647.35 2216.73 2660.78 2200.16 2660.78 2183.59 2660.78 2170.16 2647.35 2170.16 2630.78 2170.16 2614.21 2183.59 2600.78 2200.16 2600.78 2216.73 2600.78 2230.16 2614.21 2230.16 2630.78Z" stroke="#FFFFFF" stroke-width="8.02083" stroke-linejoin="round" stroke-miterlimit="10" fill="#22869A"/><path d="M2384.16 2324.78C2384.16 2341.35 2370.73 2354.78 2354.16 2354.78 2337.59 2354.78 2324.16 2341.35 2324.16 2324.78 2324.16 2308.21 2337.59 2294.78 2354.16 2294.78 2370.73 2294.78 2384.16 2308.21 2384.16 2324.78Z" stroke="#FFFFFF" stroke-width="8.02083" stroke-linejoin="round" stroke-miterlimit="10" fill="#22869A"/><path d="M2693.16 2297.78C2693.16 2314.35 2679.73 2327.78 2663.16 2327.78 2646.59 2327.78 2633.16 2314.35 2633.16 2297.78 2633.16 2281.21 2646.59 2267.78 2663.16 2267.78 2679.73 2267.78 2693.16 2281.21 2693.16 2297.78Z" stroke="#FFFFFF" stroke-width="8.02083" stroke-linejoin="round" stroke-miterlimit="10" fill="#22869A"/><path d="M3311.16 2071.78C3311.16 2088.35 3297.73 2101.78 3281.16 2101.78 3264.59 2101.78 3251.16 2088.35 3251.16 2071.78 3251.16 2055.21 3264.59 2041.78 3281.16 2041.78 3297.73 2041.78 3311.16 2055.21 3311.16 2071.78Z" stroke="#FFFFFF" stroke-width="8.02083" stroke-linejoin="round" stroke-miterlimit="10" fill="#22869A"/></g><g><text fill="#595959" font-family="Calibri,Calibri_MSFontService,sans-serif" font-weight="400" font-size="73" transform="matrix(1 0 0 1 1885.89 2997)">0.54</text></g><g><text fill="#595959" font-family="Calibri,Calibri_MSFontService,sans-serif" font-weight="400" font-size="73" transform="matrix(1 0 0 1 1885.89 2865)">0.55</text></g><g><text fill="#595959" font-family="Calibri,Calibri_MSFontService,sans-serif" font-weight="400" font-size="73" transform="matrix(1 0 0 1 1885.89 2732)">0.56</text></g><g><text fill="#595959" font-family="Calibri,Calibri_MSFontService,sans-serif" font-weight="400" font-size="73" transform="matrix(1 0 0 1 1885.89 2599)">0.57</text></g><g><text fill="#595959" font-family="Calibri,Calibri_MSFontService,sans-serif" font-weight="400" font-size="73" transform="matrix(1 0 0 1 1885.89 2466)">0.58</text></g><g><text fill="#595959" font-family="Calibri,Calibri_MSFontService,sans-serif" font-weight="400" font-size="73" transform="matrix(1 0 0 1 1885.89 2333)">0.59</text></g><g><text fill="#595959" font-family="Calibri,Calibri_MSFontService,sans-serif" font-weight="400" font-size="73" transform="matrix(1 0 0 1 1923.06 2200)">0.6</text></g><g><text fill="#595959" font-family="Calibri,Calibri_MSFontService,sans-serif" font-weight="400" font-size="73" transform="matrix(1 0 0 1 1885.89 2067)">0.61</text></g><g><text fill="#595959" font-family="Calibri,Calibri_MSFontService,sans-serif" font-weight="400" font-size="73" transform="matrix(1 0 0 1 2030.11 3093)">10k</text></g><g><text fill="#595959" font-family="Calibri,Calibri_MSFontService,sans-serif" font-weight="400" font-size="73" transform="matrix(1 0 0 1 2261.79 3093)">70k</text></g><g><text fill="#595959" font-family="Calibri,Calibri_MSFontService,sans-serif" font-weight="400" font-size="73" transform="matrix(1 0 0 1 2474.88 3093)">130k</text></g><g><text fill="#595959" font-family="Calibri,Calibri_MSFontService,sans-serif" font-weight="400" font-size="73" transform="matrix(1 0 0 1 2706.56 3093)">190k</text></g><g><text fill="#595959" font-family="Calibri,Calibri_MSFontService,sans-serif" font-weight="400" font-size="73" transform="matrix(1 0 0 1 2938.24 3093)">250k</text></g><g><text fill="#595959" font-family="Calibri,Calibri_MSFontService,sans-serif" font-weight="400" font-size="73" transform="matrix(1 0 0 1 3169.92 3093)">310k</text></g><path d="M4234.5 2101.67C4234.5 2078.93 4252.93 2060.5 4275.67 2060.5L4822.33 2060.5C4845.07 2060.5 4863.5 2078.93 4863.5 2101.67L4863.5 2266.33C4863.5 2289.07 4845.07 2307.5 4822.33 2307.5L4275.67 2307.5C4252.93 2307.5 4234.5 2289.07 4234.5 2266.33Z" stroke="#7F7F7F" stroke-width="4.58333" stroke-miterlimit="8" fill="#FFFFFF" fill-rule="evenodd" fill-opacity="0.701961"/><text fill="#404040" font-family="Calibri,Calibri_MSFontService,sans-serif" font-weight="400" font-size="83" transform="matrix(1 0 0 1 4503.73 2160)">CAT3D</text><path d="M4309.5 2133.5 4464.49 2133.5" stroke="#90C6B8" stroke-width="28.6458" stroke-linecap="round" stroke-miterlimit="8" fill="#FCC8BA" fill-rule="evenodd"/><path d="M4364.5 2133C4364.5 2118.92 4375.47 2107.5 4389 2107.5 4402.53 2107.5 4413.5 2118.92 4413.5 2133 4413.5 2147.08 4402.53 2158.5 4389 2158.5 4375.47 2158.5 4364.5 2147.08 4364.5 2133Z" stroke="#FFFFFF" stroke-width="6.875" stroke-miterlimit="8" fill="#90C6B8" fill-rule="evenodd"/><text fill="#404040" font-family="Calibri,Calibri_MSFontService,sans-serif" font-weight="700" font-size="83" transform="matrix(1 0 0 1 4503.11 2264)">+ CAMEO</text><path d="M4301.5 2237.5 4456.49 2237.5" stroke="#22869A" stroke-width="28.6458" stroke-linecap="round" stroke-miterlimit="8" fill="#C00000" fill-rule="evenodd"/><path d="M2626.5 2736C2626.5 2714.19 2644.19 2696.5 2666 2696.5L3221 2696.5C3242.81 2696.5 3260.5 2714.19 3260.5 2736L3260.5 2894C3260.5 2915.81 3242.81 2933.5 3221 2933.5L2666 2933.5C2644.19 2933.5 2626.5 2915.81 2626.5 2894Z" stroke="#7F7F7F" stroke-width="4.58333" stroke-miterlimit="8" fill="#FFFFFF" fill-rule="evenodd" fill-opacity="0.701961"/><text fill="#404040" font-family="Calibri,Calibri_MSFontService,sans-serif" font-weight="400" font-size="83" transform="matrix(1 0 0 1 2896.5 2799)">CAT3D</text><path d="M2702.5 2771.5 2857.49 2771.5" stroke="#90C6B8" stroke-width="28.6458" stroke-linecap="round" stroke-miterlimit="8" fill="#FCC8BA" fill-rule="evenodd"/><path d="M2757.5 2771.5C2757.5 2757.69 2768.47 2746.5 2782 2746.5 2795.53 2746.5 2806.5 2757.69 2806.5 2771.5 2806.5 2785.31 2795.53 2796.5 2782 2796.5 2768.47 2796.5 2757.5 2785.31 2757.5 2771.5Z" stroke="#FFFFFF" stroke-width="6.875" stroke-miterlimit="8" fill="#90C6B8" fill-rule="evenodd"/><text fill="#404040" font-family="Calibri,Calibri_MSFontService,sans-serif" font-weight="700" font-size="83" transform="matrix(1 0 0 1 2895.87 2892)">+ CAMEO</text><path d="M2694.5 2864.5 2849.49 2864.5" stroke="#22869A" stroke-width="28.6458" stroke-linecap="round" stroke-miterlimit="8" fill="#C00000" fill-rule="evenodd"/><path d="M2749.5 2864.5C2749.5 2850.69 2760.47 2839.5 2774 2839.5 2787.53 2839.5 2798.5 2850.69 2798.5 2864.5 2798.5 2878.31 2787.53 2889.5 2774 2889.5 2760.47 2889.5 2749.5 2878.31 2749.5 2864.5Z" stroke="#FFFFFF" stroke-width="6.875" stroke-miterlimit="8" fill="#22869A" fill-rule="evenodd"/><path d="M4356.5 2239C4356.5 2224.92 4367.47 2213.5 4381 2213.5 4394.53 2213.5 4405.5 2224.92 4405.5 2239 4405.5 2253.08 4394.53 2264.5 4381 2264.5 4367.47 2264.5 4356.5 2253.08 4356.5 2239Z" stroke="#FFFFFF" stroke-width="6.875" stroke-miterlimit="8" fill="#22869A" fill-rule="evenodd"/><rect x="2026" y="2995" width="1327" height="128" fill="#FFFFFF"/><text fill="#404040" font-family="Calibri,Calibri_MSFontService,sans-serif" font-weight="400" font-size="73" transform="matrix(1 0 0 1 2052.91 3099)">10</text><text fill="#404040" font-family="Calibri,Calibri_MSFontService,sans-serif" font-weight="400" font-size="73" transform="matrix(1 0 0 1 2159.44 3099)">40</text><text fill="#404040" font-family="Calibri,Calibri_MSFontService,sans-serif" font-weight="400" font-size="73" transform="matrix(1 0 0 1 2310.09 3099)">80</text><text fill="#404040" font-family="Calibri,Calibri_MSFontService,sans-serif" font-weight="400" font-size="73" transform="matrix(1 0 0 1 2605.31 3099)">160</text><text fill="#404040" font-family="Calibri,Calibri_MSFontService,sans-serif" font-weight="400" font-size="73" transform="matrix(1 0 0 1 3213.77 3099)">320</text><rect x="467" y="2995" width="1328" height="128" fill="#FFFFFF"/><text fill="#404040" font-family="Calibri,Calibri_MSFontService,sans-serif" font-weight="400" font-size="73" transform="matrix(1 0 0 1 494.232 3099)">10</text><text fill="#404040" font-family="Calibri,Calibri_MSFontService,sans-serif" font-weight="400" font-size="73" transform="matrix(1 0 0 1 600.76 3099)">40</text><text fill="#404040" font-family="Calibri,Calibri_MSFontService,sans-serif" font-weight="400" font-size="73" transform="matrix(1 0 0 1 751.41 3099)">80</text><text fill="#404040" font-family="Calibri,Calibri_MSFontService,sans-serif" font-weight="400" font-size="73" transform="matrix(1 0 0 1 1025.38 3099)">160</text><text fill="#404040" font-family="Calibri,Calibri_MSFontService,sans-serif" font-weight="400" font-size="73" transform="matrix(1 0 0 1 1612.46 3099)">320</text><rect x="3605" y="3007" width="1327" height="128" fill="#FFFFFF"/><text fill="#404040" font-family="Calibri,Calibri_MSFontService,sans-serif" font-weight="400" font-size="73" transform="matrix(1 0 0 1 3631.57 3111)">10</text><text fill="#404040" font-family="Calibri,Calibri_MSFontService,sans-serif" font-weight="400" font-size="73" transform="matrix(1 0 0 1 3738.1 3111)">40</text><text fill="#404040" font-family="Calibri,Calibri_MSFontService,sans-serif" font-weight="400" font-size="73" transform="matrix(1 0 0 1 3888.75 3111)">80</text><text fill="#404040" font-family="Calibri,Calibri_MSFontService,sans-serif" font-weight="400" font-size="73" transform="matrix(1 0 0 1 4174.71 3111)">160</text><text fill="#404040" font-family="Calibri,Calibri_MSFontService,sans-serif" font-weight="400" font-size="73" transform="matrix(1 0 0 1 4792.43 3111)">320</text><text font-family="Calibri,Calibri_MSFontService,sans-serif" font-weight="700" font-size="92" transform="matrix(1 0 0 1 4007.71 1971)">(c) LPIPS</text><text font-family="Calibri,Calibri_MSFontService,sans-serif" font-weight="700" font-size="92" transform="matrix(1 0 0 1 847.137 1971)">(a) PSNR</text><text font-family="Calibri,Calibri_MSFontService,sans-serif" font-weight="700" font-size="92" transform="matrix(1 0 0 1 2443.74 1971)">(b) SSIM</text></g></svg>