<svg width="4959" height="1561" xmlns="http://www.w3.org/2000/svg" xmlns:xlink="http://www.w3.org/1999/xlink" xml:space="preserve" overflow="hidden"><defs><clipPath id="clip0"><rect x="147" y="1786" width="4959" height="1561"/></clipPath><clipPath id="clip1"><rect x="3658" y="2057" width="1189" height="927"/></clipPath><clipPath id="clip2"><rect x="3658" y="2057" width="1189" height="927"/></clipPath></defs><g clip-path="url(#clip0)" transform="translate(-147 -1786)"><rect x="147" y="1786" width="4959" height="1557" fill="#FFFFFF"/><path d="M3657.5 2033.5 3657.5 2979.12" stroke="#D9D9D9" stroke-width="1.14583" stroke-miterlimit="8" fill="none" fill-rule="evenodd"/><path d="M3753.5 2032.5 3753.5 2978.12" stroke="#D9D9D9" stroke-width="1.14583" stroke-miterlimit="8" fill="none" fill-rule="evenodd"/><path d="M3867.5 2037.5 3867.5 2983.12" stroke="#D9D9D9" stroke-width="1.14583" stroke-miterlimit="8" fill="none" fill-rule="evenodd"/><path d="M4114.5 2033.5 4114.5 2979.12" stroke="#D9D9D9" stroke-width="1.14583" stroke-miterlimit="8" fill="none" fill-rule="evenodd"/><path d="M4846.5 2033.5 4846.5 2979.12" stroke="#D9D9D9" stroke-width="1.14583" stroke-miterlimit="8" fill="none" fill-rule="evenodd"/><path d="M4605.5 2033.5 4605.5 2979.12" stroke="#D9D9D9" stroke-width="1.14583" stroke-miterlimit="8" fill="none" fill-rule="evenodd"/><path d="M2078.5 2021.5 2078.5 2967.12" stroke="#D9D9D9" stroke-width="1.14583" stroke-miterlimit="8" fill="none" fill-rule="evenodd"/><path d="M2173.5 2021.5 2173.5 2967.12" stroke="#D9D9D9" stroke-width="1.14583" stroke-miterlimit="8" fill="none" fill-rule="evenodd"/><path d="M2297.5 2021.5 2297.5 2967.12" stroke="#D9D9D9" stroke-width="1.14583" stroke-miterlimit="8" fill="none" fill-rule="evenodd"/><path d="M2541.5 2021.5 2541.5 2967.12" stroke="#D9D9D9" stroke-width="1.14583" stroke-miterlimit="8" fill="none" fill-rule="evenodd"/><path d="M3279.5 2021.5 3279.5 2967.12" stroke="#D9D9D9" stroke-width="1.14583" stroke-miterlimit="8" fill="none" fill-rule="evenodd"/><path d="M3036.5 2021.5 3036.5 2967.12" stroke="#D9D9D9" stroke-width="1.14583" stroke-miterlimit="8" fill="none" fill-rule="evenodd"/><path d="M520.5 2046.5 520.5 2992.12" stroke="#D9D9D9" stroke-width="1.14583" stroke-miterlimit="8" fill="none" fill-rule="evenodd"/><path d="M602.5 2046.5 602.5 2992.12" stroke="#D9D9D9" stroke-width="1.14583" stroke-miterlimit="8" fill="none" fill-rule="evenodd"/><path d="M727.5 2046.5 727.5 2992.12" stroke="#D9D9D9" stroke-width="1.14583" stroke-miterlimit="8" fill="none" fill-rule="evenodd"/><path d="M962.5 2047.5 962.5 2993.12" stroke="#D9D9D9" stroke-width="1.14583" stroke-miterlimit="8" fill="none" fill-rule="evenodd"/><path d="M1671.5 2046.5 1671.5 2992.12" stroke="#D9D9D9" stroke-width="1.14583" stroke-miterlimit="8" fill="none" fill-rule="evenodd"/><path d="M1434.5 2047.5 1434.5 2993.12" stroke="#D9D9D9" stroke-width="1.14583" stroke-miterlimit="8" fill="none" fill-rule="evenodd"/><text font-family="Calibri,Calibri_MSFontService,sans-serif" font-weight="400" font-size="110" transform="matrix(1 0 0 1 3794.14 3252)">Training Iteration (k)</text><g><path d="M3658.5 2981.5 4843.5 2981.5M3658.5 2865.59 4843.5 2865.59M3658.5 2750.59 4843.5 2750.59M3658.5 2634.59 4843.5 2634.59M3658.5 2519.58 4843.5 2519.58M3658.5 2404.58 4843.5 2404.58M3658.5 2288.58 4843.5 2288.58M3658.5 2173.57 4843.5 2173.57M3658.5 2057.5 4843.5 2057.5" stroke="#BFBFBF" stroke-width="3.4375" stroke-linejoin="round" stroke-miterlimit="10" fill="none"/></g><g><path d="M3658.5 2981.5 4843.5 2981.5" stroke="#D9D9D9" stroke-width="3.4375" stroke-linejoin="round" stroke-miterlimit="10" fill="none" fill-rule="evenodd"/></g><g clip-path="url(#clip1)"><path d="M3658 2116 3749.12 2283.07 3871.13 2491.08 4114.13 2716.09 4600.15 2762.09 4844 2774" stroke="#90C6B8" stroke-width="18.3333" stroke-linecap="round" stroke-linejoin="round" stroke-miterlimit="10" fill="none"/></g><g><path d="M3687.61 2115.71C3687.61 2132.28 3674.17 2145.71 3657.61 2145.71 3641.04 2145.71 3627.61 2132.28 3627.61 2115.71 3627.61 2099.14 3641.04 2085.71 3657.61 2085.71 3674.17 2085.71 3687.61 2099.14 3687.61 2115.71Z" stroke="#FFFFFF" stroke-width="8.02083" stroke-linejoin="round" stroke-miterlimit="10" fill="#90C6B8"/><path d="M3778.61 2282.71C3778.61 2299.28 3765.17 2312.71 3748.61 2312.71 3732.04 2312.71 3718.61 2299.28 3718.61 2282.71 3718.61 2266.14 3732.04 2252.71 3748.61 2252.71 3765.17 2252.71 3778.61 2266.14 3778.61 2282.71Z" stroke="#FFFFFF" stroke-width="8.02083" stroke-linejoin="round" stroke-miterlimit="10" fill="#90C6B8"/><path d="M3900.61 2490.71C3900.61 2507.28 3887.17 2520.71 3870.61 2520.71 3854.04 2520.71 3840.61 2507.28 3840.61 2490.71 3840.61 2474.14 3854.04 2460.71 3870.61 2460.71 3887.17 2460.71 3900.61 2474.14 3900.61 2490.71Z" stroke="#FFFFFF" stroke-width="8.02083" stroke-linejoin="round" stroke-miterlimit="10" fill="#90C6B8"/><path d="M4143.61 2715.71C4143.61 2732.28 4130.17 2745.71 4113.61 2745.71 4097.04 2745.71 4083.61 2732.28 4083.61 2715.71 4083.61 2699.14 4097.04 2685.71 4113.61 2685.71 4130.17 2685.71 4143.61 2699.14 4143.61 2715.71Z" stroke="#FFFFFF" stroke-width="8.02083" stroke-linejoin="round" stroke-miterlimit="10" fill="#90C6B8"/><path d="M4629.61 2761.71C4629.61 2778.28 4616.17 2791.71 4599.61 2791.71 4583.04 2791.71 4569.61 2778.28 4569.61 2761.71 4569.61 2745.14 4583.04 2731.71 4599.61 2731.71 4616.17 2731.71 4629.61 2745.14 4629.61 2761.71Z" stroke="#FFFFFF" stroke-width="8.02083" stroke-linejoin="round" stroke-miterlimit="10" fill="#90C6B8"/><path d="M4873.61 2773.71C4873.61 2790.28 4860.17 2803.71 4843.61 2803.71 4827.04 2803.71 4813.61 2790.28 4813.61 2773.71 4813.61 2757.14 4827.04 2743.71 4843.61 2743.71 4860.17 2743.71 4873.61 2757.14 4873.61 2773.71Z" stroke="#FFFFFF" stroke-width="8.02083" stroke-linejoin="round" stroke-miterlimit="10" fill="#90C6B8"/></g><g clip-path="url(#clip2)"><path d="M3658 2341 3749.12 2387.08 3871.13 2589.08 4114.13 2716.09 4600.15 2895 4844 2889.09" stroke="#22869A" stroke-width="18.3333" stroke-linecap="round" stroke-linejoin="round" stroke-miterlimit="10" fill="none"/></g><g><path d="M3687.61 2340.71C3687.61 2357.28 3674.17 2370.71 3657.61 2370.71 3641.04 2370.71 3627.61 2357.28 3627.61 2340.71 3627.61 2324.14 3641.04 2310.71 3657.61 2310.71 3674.17 2310.71 3687.61 2324.14 3687.61 2340.71Z" stroke="#FFFFFF" stroke-width="8.02083" stroke-linejoin="round" stroke-miterlimit="10" fill="#22869A"/><path d="M3778.61 2386.71C3778.61 2403.28 3765.17 2416.71 3748.61 2416.71 3732.04 2416.71 3718.61 2403.28 3718.61 2386.71 3718.61 2370.14 3732.04 2356.71 3748.61 2356.71 3765.17 2356.71 3778.61 2370.14 3778.61 2386.71Z" stroke="#FFFFFF" stroke-width="8.02083" stroke-linejoin="round" stroke-miterlimit="10" fill="#22869A"/><path d="M3900.61 2588.71C3900.61 2605.28 3887.17 2618.71 3870.61 2618.71 3854.04 2618.71 3840.61 2605.28 3840.61 2588.71 3840.61 2572.14 3854.04 2558.71 3870.61 2558.71 3887.17 2558.71 3900.61 2572.14 3900.61 2588.71Z" stroke="#FFFFFF" stroke-width="8.02083" stroke-linejoin="round" stroke-miterlimit="10" fill="#22869A"/><path d="M4143.61 2715.71C4143.61 2732.28 4130.17 2745.71 4113.61 2745.71 4097.04 2745.71 4083.61 2732.28 4083.61 2715.71 4083.61 2699.14 4097.04 2685.71 4113.61 2685.71 4130.17 2685.71 4143.61 2699.14 4143.61 2715.71Z" stroke="#FFFFFF" stroke-width="8.02083" stroke-linejoin="round" stroke-miterlimit="10" fill="#22869A"/><path d="M4629.61 2894.71C4629.61 2911.28 4616.17 2924.71 4599.61 2924.71 4583.04 2924.71 4569.61 2911.28 4569.61 2894.71 4569.61 2878.14 4583.04 2864.71 4599.61 2864.71 4616.17 2864.71 4629.61 2878.14 4629.61 2894.71Z" stroke="#FFFFFF" stroke-width="8.02083" stroke-linejoin="round" stroke-miterlimit="10" fill="#22869A"/><path d="M4873.61 2888.71C4873.61 2905.28 4860.17 2918.71 4843.61 2918.71 4827.04 2918.71 4813.61 2905.28 4813.61 2888.71 4813.61 2872.14 4827.04 2858.71 4843.61 2858.71 4860.17 2858.71 4873.61 2872.14 4873.61 2888.71Z" stroke="#FFFFFF" stroke-width="8.02083" stroke-linejoin="round" stroke-miterlimit="10" fill="#22869A"/></g><g><text fill="#595959" font-family="Calibri,Calibri_MSFontService,sans-serif" font-weight="400" font-size="73" transform="matrix(1 0 0 1 3459.94 3003)">0.41</text></g><g><text fill="#595959" font-family="Calibri,Calibri_MSFontService,sans-serif" font-weight="400" font-size="73" transform="matrix(1 0 0 1 3459.94 2887)">0.43</text></g><g><text fill="#595959" font-family="Calibri,Calibri_MSFontService,sans-serif" font-weight="400" font-size="73" transform="matrix(1 0 0 1 3459.94 2772)">0.45</text></g><g><text fill="#595959" font-family="Calibri,Calibri_MSFontService,sans-serif" font-weight="400" font-size="73" transform="matrix(1 0 0 1 3459.94 2656)">0.47</text></g><g><text fill="#595959" font-family="Calibri,Calibri_MSFontService,sans-serif" font-weight="400" font-size="73" transform="matrix(1 0 0 1 3459.94 2541)">0.49</text></g><g><text fill="#595959" font-family="Calibri,Calibri_MSFontService,sans-serif" font-weight="400" font-size="73" transform="matrix(1 0 0 1 3459.94 2425)">0.51</text></g><g><text fill="#595959" font-family="Calibri,Calibri_MSFontService,sans-serif" font-weight="400" font-size="73" transform="matrix(1 0 0 1 3459.94 2310)">0.53</text></g><g><text fill="#595959" font-family="Calibri,Calibri_MSFontService,sans-serif" font-weight="400" font-size="73" transform="matrix(1 0 0 1 3459.94 2195)">0.55</text></g><g><text fill="#595959" font-family="Calibri,Calibri_MSFontService,sans-serif" font-weight="400" font-size="73" transform="matrix(1 0 0 1 3459.94 2079)">0.57</text></g><g><text fill="#595959" font-family="Calibri,Calibri_MSFontService,sans-serif" font-weight="400" font-size="73" transform="matrix(1 0 0 1 3604.16 3098)">10k</text></g><g><text fill="#595959" font-family="Calibri,Calibri_MSFontService,sans-serif" font-weight="400" font-size="73" transform="matrix(1 0 0 1 3786.56 3098)">70k</text></g><g><text fill="#595959" font-family="Calibri,Calibri_MSFontService,sans-serif" font-weight="400" font-size="73" transform="matrix(1 0 0 1 3950.37 3098)">130k</text></g><g><text fill="#595959" font-family="Calibri,Calibri_MSFontService,sans-serif" font-weight="400" font-size="73" transform="matrix(1 0 0 1 4132.78 3098)">190k</text></g><g><text fill="#595959" font-family="Calibri,Calibri_MSFontService,sans-serif" font-weight="400" font-size="73" transform="matrix(1 0 0 1 4315.18 3098)">250k</text></g><g><text fill="#595959" font-family="Calibri,Calibri_MSFontService,sans-serif" font-weight="400" font-size="73" transform="matrix(1 0 0 1 4497.58 3098)">310k</text></g><g><text fill="#595959" font-family="Calibri,Calibri_MSFontService,sans-serif" font-weight="400" font-size="73" transform="matrix(1 0 0 1 4679.98 3098)">370k</text></g><text font-family="Calibri,Calibri_MSFontService,sans-serif" font-weight="400" font-size="110" transform="matrix(1 0 0 1 656.966 3252)">Training Iteration (k)</text><g><path d="M518.5 2987.5 1673.5 2987.5M518.5 2838.59 1673.5 2838.59M518.5 2690.59 1673.5 2690.59M518.5 2541.58 1673.5 2541.58M518.5 2392.58 1673.5 2392.58M518.5 2243.57 1673.5 2243.57M518.5 2095.5 1673.5 2095.5" stroke="#BFBFBF" stroke-width="3.4375" stroke-linejoin="round" stroke-miterlimit="10" fill="none"/></g><g><path d="M518.5 2987.5 1673.5 2987.5" stroke="#D9D9D9" stroke-width="3.4375" stroke-linejoin="round" stroke-miterlimit="10" fill="none" fill-rule="evenodd"/></g><g><path d="M519 2871 608.02 2741.09 726.024 2552.08 963.032 2340.08 1436.05 2233 1673 2337.08" stroke="#90C6B8" stroke-width="18.3333" stroke-linecap="round" stroke-linejoin="round" stroke-miterlimit="10" fill="none"/></g><g><path d="M549.245 2871.39C549.245 2887.96 535.813 2901.39 519.245 2901.39 502.676 2901.39 489.245 2887.96 489.245 2871.39 489.245 2854.82 502.676 2841.39 519.245 2841.39 535.813 2841.39 549.245 2854.82 549.245 2871.39Z" stroke="#FFFFFF" stroke-width="8.02083" stroke-linejoin="round" stroke-miterlimit="10" fill="#90C6B8"/><path d="M638.245 2741.39C638.245 2757.96 624.813 2771.39 608.245 2771.39 591.676 2771.39 578.245 2757.96 578.245 2741.39 578.245 2724.82 591.676 2711.39 608.245 2711.39 624.813 2711.39 638.245 2724.82 638.245 2741.39Z" stroke="#FFFFFF" stroke-width="8.02083" stroke-linejoin="round" stroke-miterlimit="10" fill="#90C6B8"/><path d="M756.245 2552.39C756.245 2568.96 742.813 2582.39 726.245 2582.39 709.677 2582.39 696.245 2568.96 696.245 2552.39 696.245 2535.82 709.677 2522.39 726.245 2522.39 742.813 2522.39 756.245 2535.82 756.245 2552.39Z" stroke="#FFFFFF" stroke-width="8.02083" stroke-linejoin="round" stroke-miterlimit="10" fill="#90C6B8"/><path d="M993.245 2340.39C993.245 2356.96 979.813 2370.39 963.245 2370.39 946.676 2370.39 933.245 2356.96 933.245 2340.39 933.245 2323.82 946.676 2310.39 963.245 2310.39 979.813 2310.39 993.245 2323.82 993.245 2340.39Z" stroke="#FFFFFF" stroke-width="8.02083" stroke-linejoin="round" stroke-miterlimit="10" fill="#90C6B8"/><path d="M1466.24 2233.39C1466.24 2249.96 1452.81 2263.39 1436.24 2263.39 1419.68 2263.39 1406.24 2249.96 1406.24 2233.39 1406.24 2216.82 1419.68 2203.39 1436.24 2203.39 1452.81 2203.39 1466.24 2216.82 1466.24 2233.39Z" stroke="#FFFFFF" stroke-width="8.02083" stroke-linejoin="round" stroke-miterlimit="10" fill="#90C6B8"/><path d="M1703.24 2337.39C1703.24 2353.96 1689.81 2367.39 1673.24 2367.39 1656.68 2367.39 1643.24 2353.96 1643.24 2337.39 1643.24 2320.82 1656.68 2307.39 1673.24 2307.39 1689.81 2307.39 1703.24 2320.82 1703.24 2337.39Z" stroke="#FFFFFF" stroke-width="8.02083" stroke-linejoin="round" stroke-miterlimit="10" fill="#90C6B8"/></g><g><path d="M519 2705 608.02 2648.09 726.024 2401.08 963.032 2272.07 1436.05 2095 1673 2193.07" stroke="#22869A" stroke-width="18.3333" stroke-linecap="round" stroke-linejoin="round" stroke-miterlimit="10" fill="none"/></g><g><path d="M549.245 2705.39C549.245 2721.96 535.813 2735.39 519.245 2735.39 502.676 2735.39 489.245 2721.96 489.245 2705.39 489.245 2688.82 502.676 2675.39 519.245 2675.39 535.813 2675.39 549.245 2688.82 549.245 2705.39Z" stroke="#FFFFFF" stroke-width="8.02083" stroke-linejoin="round" stroke-miterlimit="10" fill="#22869A"/><path d="M638.245 2648.39C638.245 2664.96 624.813 2678.39 608.245 2678.39 591.676 2678.39 578.245 2664.96 578.245 2648.39 578.245 2631.82 591.676 2618.39 608.245 2618.39 624.813 2618.39 638.245 2631.82 638.245 2648.39Z" stroke="#FFFFFF" stroke-width="8.02083" stroke-linejoin="round" stroke-miterlimit="10" fill="#22869A"/><path d="M756.245 2401.39C756.245 2417.96 742.813 2431.39 726.245 2431.39 709.677 2431.39 696.245 2417.96 696.245 2401.39 696.245 2384.82 709.677 2371.39 726.245 2371.39 742.813 2371.39 756.245 2384.82 756.245 2401.39Z" stroke="#FFFFFF" stroke-width="8.02083" stroke-linejoin="round" stroke-miterlimit="10" fill="#22869A"/><path d="M993.245 2272.39C993.245 2288.96 979.813 2302.39 963.245 2302.39 946.676 2302.39 933.245 2288.96 933.245 2272.39 933.245 2255.82 946.676 2242.39 963.245 2242.39 979.813 2242.39 993.245 2255.82 993.245 2272.39Z" stroke="#FFFFFF" stroke-width="8.02083" stroke-linejoin="round" stroke-miterlimit="10" fill="#22869A"/><path d="M1466.24 2095.39C1466.24 2111.96 1452.81 2125.39 1436.24 2125.39 1419.68 2125.39 1406.24 2111.96 1406.24 2095.39 1406.24 2078.82 1419.68 2065.39 1436.24 2065.39 1452.81 2065.39 1466.24 2078.82 1466.24 2095.39Z" stroke="#FFFFFF" stroke-width="8.02083" stroke-linejoin="round" stroke-miterlimit="10" fill="#22869A"/><path d="M1703.24 2193.39C1703.24 2209.96 1689.81 2223.39 1673.24 2223.39 1656.68 2223.39 1643.24 2209.96 1643.24 2193.39 1643.24 2176.82 1656.68 2163.39 1673.24 2163.39 1689.81 2163.39 1703.24 2176.82 1703.24 2193.39Z" stroke="#FFFFFF" stroke-width="8.02083" stroke-linejoin="round" stroke-miterlimit="10" fill="#22869A"/></g><g><text fill="#595959" font-family="Calibri,Calibri_MSFontService,sans-serif" font-weight="400" font-size="73" transform="matrix(1 0 0 1 304.12 3009)">14.0</text></g><g><text fill="#595959" font-family="Calibri,Calibri_MSFontService,sans-serif" font-weight="400" font-size="73" transform="matrix(1 0 0 1 304.12 2860)">14.7</text></g><g><text fill="#595959" font-family="Calibri,Calibri_MSFontService,sans-serif" font-weight="400" font-size="73" transform="matrix(1 0 0 1 304.12 2711)">15.4</text></g><g><text fill="#595959" font-family="Calibri,Calibri_MSFontService,sans-serif" font-weight="400" font-size="73" transform="matrix(1 0 0 1 304.12 2563)">16.1</text></g><g><text fill="#595959" font-family="Calibri,Calibri_MSFontService,sans-serif" font-weight="400" font-size="73" transform="matrix(1 0 0 1 304.12 2414)">16.8</text></g><g><text fill="#595959" font-family="Calibri,Calibri_MSFontService,sans-serif" font-weight="400" font-size="73" transform="matrix(1 0 0 1 304.12 2265)">17.5</text></g><g><text fill="#595959" font-family="Calibri,Calibri_MSFontService,sans-serif" font-weight="400" font-size="73" transform="matrix(1 0 0 1 304.12 2116)">18.2</text></g><g><text fill="#595959" font-family="Calibri,Calibri_MSFontService,sans-serif" font-weight="400" font-size="73" transform="matrix(1 0 0 1 464.908 3104)">10k</text></g><g><text fill="#595959" font-family="Calibri,Calibri_MSFontService,sans-serif" font-weight="400" font-size="73" transform="matrix(1 0 0 1 642.517 3104)">70k</text></g><g><text fill="#595959" font-family="Calibri,Calibri_MSFontService,sans-serif" font-weight="400" font-size="73" transform="matrix(1 0 0 1 801.541 3104)">130k</text></g><g><text fill="#595959" font-family="Calibri,Calibri_MSFontService,sans-serif" font-weight="400" font-size="73" transform="matrix(1 0 0 1 979.151 3104)">190k</text></g><g><text fill="#595959" font-family="Calibri,Calibri_MSFontService,sans-serif" font-weight="400" font-size="73" transform="matrix(1 0 0 1 1156.76 3104)">250k</text></g><g><text fill="#595959" font-family="Calibri,Calibri_MSFontService,sans-serif" font-weight="400" font-size="73" transform="matrix(1 0 0 1 1334.37 3104)">310k</text></g><g><text fill="#595959" font-family="Calibri,Calibri_MSFontService,sans-serif" font-weight="400" font-size="73" transform="matrix(1 0 0 1 1511.98 3104)">370k</text></g><path d="M1022.5 2722.67C1022.5 2698.83 1041.83 2679.5 1065.67 2679.5L1618.33 2679.5C1642.17 2679.5 1661.5 2698.83 1661.5 2722.67L1661.5 2895.33C1661.5 2919.17 1642.17 2938.5 1618.33 2938.5L1065.67 2938.5C1041.83 2938.5 1022.5 2919.17 1022.5 2895.33Z" stroke="#7F7F7F" stroke-width="4.58333" stroke-miterlimit="8" fill="#FFFFFF" fill-rule="evenodd" fill-opacity="0.701961"/><text fill="#404040" font-family="Calibri,Calibri_MSFontService,sans-serif" font-weight="400" font-size="83" transform="matrix(1 0 0 1 1292.64 2794)">CAT3D</text><path d="M1098.5 2766.5 1253.49 2766.5" stroke="#90C6B8" stroke-width="28.6458" stroke-linecap="round" stroke-miterlimit="8" fill="#FCC8BA" fill-rule="evenodd"/><path d="M1153.5 2766.5C1153.5 2752.69 1164.47 2741.5 1178 2741.5 1191.53 2741.5 1202.5 2752.69 1202.5 2766.5 1202.5 2780.31 1191.53 2791.5 1178 2791.5 1164.47 2791.5 1153.5 2780.31 1153.5 2766.5Z" stroke="#FFFFFF" stroke-width="6.875" stroke-miterlimit="8" fill="#90C6B8" fill-rule="evenodd"/><text fill="#404040" font-family="Calibri,Calibri_MSFontService,sans-serif" font-weight="700" font-size="83" transform="matrix(1 0 0 1 1292.01 2889)">+ CAMEO</text><path d="M1090.5 2861.5 1245.49 2861.5" stroke="#22869A" stroke-width="28.6458" stroke-linecap="round" stroke-miterlimit="8" fill="#C00000" fill-rule="evenodd"/><path d="M1145.5 2861.5C1145.5 2847.69 1156.47 2836.5 1170 2836.5 1183.53 2836.5 1194.5 2847.69 1194.5 2861.5 1194.5 2875.31 1183.53 2886.5 1170 2886.5 1156.47 2886.5 1145.5 2875.31 1145.5 2861.5Z" stroke="#FFFFFF" stroke-width="6.875" stroke-miterlimit="8" fill="#22869A" fill-rule="evenodd"/><text font-family="Calibri,Calibri_MSFontService,sans-serif" font-weight="400" font-size="110" transform="matrix(1 0 0 1 2230.58 3252)">Training Iteration (k)</text><g><path d="M2083.5 2965.5 3280.5 2965.5M2083.5 2832.59 3280.5 2832.59M2083.5 2699.59 3280.5 2699.59M2083.5 2566.58 3280.5 2566.58M2083.5 2433.58 3280.5 2433.58M2083.5 2300.58 3280.5 2300.58M2083.5 2167.57 3280.5 2167.57M2083.5 2034.5 3280.5 2034.5" stroke="#BFBFBF" stroke-width="3.4375" stroke-linejoin="round" stroke-miterlimit="10" fill="none"/></g><g><path d="M2083.5 2965.5 3280.5 2965.5" stroke="#D9D9D9" stroke-width="3.4375" stroke-linejoin="round" stroke-miterlimit="10" fill="none" fill-rule="evenodd"/></g><g><path d="M2084 2766 2176.07 2739.09 2299.08 2567.08 2544.08 2447.08 3035.1 2155 3281 2434.08" stroke="#90C6B8" stroke-width="18.3333" stroke-linecap="round" stroke-linejoin="round" stroke-miterlimit="10" fill="none"/></g><g><path d="M2114.16 2766.05C2114.16 2782.62 2100.73 2796.05 2084.16 2796.05 2067.59 2796.05 2054.16 2782.62 2054.16 2766.05 2054.16 2749.48 2067.59 2736.05 2084.16 2736.05 2100.73 2736.05 2114.16 2749.48 2114.16 2766.05Z" stroke="#FFFFFF" stroke-width="8.02083" stroke-linejoin="round" stroke-miterlimit="10" fill="#90C6B8"/><path d="M2206.16 2740.05C2206.16 2756.62 2192.73 2770.05 2176.16 2770.05 2159.59 2770.05 2146.16 2756.62 2146.16 2740.05 2146.16 2723.48 2159.59 2710.05 2176.16 2710.05 2192.73 2710.05 2206.16 2723.48 2206.16 2740.05Z" stroke="#FFFFFF" stroke-width="8.02083" stroke-linejoin="round" stroke-miterlimit="10" fill="#90C6B8"/><path d="M2329.16 2567.05C2329.16 2583.62 2315.73 2597.05 2299.16 2597.05 2282.59 2597.05 2269.16 2583.62 2269.16 2567.05 2269.16 2550.48 2282.59 2537.05 2299.16 2537.05 2315.73 2537.05 2329.16 2550.48 2329.16 2567.05Z" stroke="#FFFFFF" stroke-width="8.02083" stroke-linejoin="round" stroke-miterlimit="10" fill="#90C6B8"/><path d="M2574.16 2447.05C2574.16 2463.62 2560.73 2477.05 2544.16 2477.05 2527.59 2477.05 2514.16 2463.62 2514.16 2447.05 2514.16 2430.48 2527.59 2417.05 2544.16 2417.05 2560.73 2417.05 2574.16 2430.48 2574.16 2447.05Z" stroke="#FFFFFF" stroke-width="8.02083" stroke-linejoin="round" stroke-miterlimit="10" fill="#90C6B8"/><path d="M3065.16 2155.05C3065.16 2171.62 3051.73 2185.05 3035.16 2185.05 3018.59 2185.05 3005.16 2171.62 3005.16 2155.05 3005.16 2138.48 3018.59 2125.05 3035.16 2125.05 3051.73 2125.05 3065.16 2138.48 3065.16 2155.05Z" stroke="#FFFFFF" stroke-width="8.02083" stroke-linejoin="round" stroke-miterlimit="10" fill="#90C6B8"/><path d="M3311.16 2434.05C3311.16 2450.62 3297.73 2464.05 3281.16 2464.05 3264.59 2464.05 3251.16 2450.62 3251.16 2434.05 3251.16 2417.48 3264.59 2404.05 3281.16 2404.05 3297.73 2404.05 3311.16 2417.48 3311.16 2434.05Z" stroke="#FFFFFF" stroke-width="8.02083" stroke-linejoin="round" stroke-miterlimit="10" fill="#90C6B8"/></g><g><path d="M2084 2859 2176.07 2620.09 2299.08 2314.08 2544.08 2287.08 3035.1 2062 3281 2128.07" stroke="#22869A" stroke-width="18.3333" stroke-linecap="round" stroke-linejoin="round" stroke-miterlimit="10" fill="none"/></g><g><path d="M2114.16 2859.05C2114.16 2875.62 2100.73 2889.05 2084.16 2889.05 2067.59 2889.05 2054.16 2875.62 2054.16 2859.05 2054.16 2842.48 2067.59 2829.05 2084.16 2829.05 2100.73 2829.05 2114.16 2842.48 2114.16 2859.05Z" stroke="#FFFFFF" stroke-width="8.02083" stroke-linejoin="round" stroke-miterlimit="10" fill="#22869A"/><path d="M2206.16 2620.05C2206.16 2636.62 2192.73 2650.05 2176.16 2650.05 2159.59 2650.05 2146.16 2636.62 2146.16 2620.05 2146.16 2603.48 2159.59 2590.05 2176.16 2590.05 2192.73 2590.05 2206.16 2603.48 2206.16 2620.05Z" stroke="#FFFFFF" stroke-width="8.02083" stroke-linejoin="round" stroke-miterlimit="10" fill="#22869A"/><path d="M2329.16 2314.05C2329.16 2330.62 2315.73 2344.05 2299.16 2344.05 2282.59 2344.05 2269.16 2330.62 2269.16 2314.05 2269.16 2297.48 2282.59 2284.05 2299.16 2284.05 2315.73 2284.05 2329.16 2297.48 2329.16 2314.05Z" stroke="#FFFFFF" stroke-width="8.02083" stroke-linejoin="round" stroke-miterlimit="10" fill="#22869A"/><path d="M2574.16 2288.05C2574.16 2304.62 2560.73 2318.05 2544.16 2318.05 2527.59 2318.05 2514.16 2304.62 2514.16 2288.05 2514.16 2271.48 2527.59 2258.05 2544.16 2258.05 2560.73 2258.05 2574.16 2271.48 2574.16 2288.05Z" stroke="#FFFFFF" stroke-width="8.02083" stroke-linejoin="round" stroke-miterlimit="10" fill="#22869A"/><path d="M3065.16 2062.05C3065.16 2078.62 3051.73 2092.05 3035.16 2092.05 3018.59 2092.05 3005.16 2078.62 3005.16 2062.05 3005.16 2045.48 3018.59 2032.05 3035.16 2032.05 3051.73 2032.05 3065.16 2045.48 3065.16 2062.05Z" stroke="#FFFFFF" stroke-width="8.02083" stroke-linejoin="round" stroke-miterlimit="10" fill="#22869A"/><path d="M3311.16 2128.05C3311.16 2144.62 3297.73 2158.05 3281.16 2158.05 3264.59 2158.05 3251.16 2144.62 3251.16 2128.05 3251.16 2111.48 3264.59 2098.05 3281.16 2098.05 3297.73 2098.05 3311.16 2111.48 3311.16 2128.05Z" stroke="#FFFFFF" stroke-width="8.02083" stroke-linejoin="round" stroke-miterlimit="10" fill="#22869A"/></g><g><text fill="#595959" font-family="Calibri,Calibri_MSFontService,sans-serif" font-weight="400" font-size="73" transform="matrix(1 0 0 1 1885.89 2987)">0.54</text></g><g><text fill="#595959" font-family="Calibri,Calibri_MSFontService,sans-serif" font-weight="400" font-size="73" transform="matrix(1 0 0 1 1885.89 2854)">0.55</text></g><g><text fill="#595959" font-family="Calibri,Calibri_MSFontService,sans-serif" font-weight="400" font-size="73" transform="matrix(1 0 0 1 1885.89 2721)">0.56</text></g><g><text fill="#595959" font-family="Calibri,Calibri_MSFontService,sans-serif" font-weight="400" font-size="73" transform="matrix(1 0 0 1 1885.89 2588)">0.57</text></g><g><text fill="#595959" font-family="Calibri,Calibri_MSFontService,sans-serif" font-weight="400" font-size="73" transform="matrix(1 0 0 1 1885.89 2455)">0.58</text></g><g><text fill="#595959" font-family="Calibri,Calibri_MSFontService,sans-serif" font-weight="400" font-size="73" transform="matrix(1 0 0 1 1885.89 2322)">0.59</text></g><g><text fill="#595959" font-family="Calibri,Calibri_MSFontService,sans-serif" font-weight="400" font-size="73" transform="matrix(1 0 0 1 1923.06 2189)">0.6</text></g><g><text fill="#595959" font-family="Calibri,Calibri_MSFontService,sans-serif" font-weight="400" font-size="73" transform="matrix(1 0 0 1 1885.89 2056)">0.61</text></g><g><text fill="#595959" font-family="Calibri,Calibri_MSFontService,sans-serif" font-weight="400" font-size="73" transform="matrix(1 0 0 1 2030.11 3082)">10k</text></g><g><text fill="#595959" font-family="Calibri,Calibri_MSFontService,sans-serif" font-weight="400" font-size="73" transform="matrix(1 0 0 1 2214.27 3082)">70k</text></g><g><text fill="#595959" font-family="Calibri,Calibri_MSFontService,sans-serif" font-weight="400" font-size="73" transform="matrix(1 0 0 1 2379.84 3082)">130k</text></g><g><text fill="#595959" font-family="Calibri,Calibri_MSFontService,sans-serif" font-weight="400" font-size="73" transform="matrix(1 0 0 1 2563.99 3082)">190k</text></g><g><text fill="#595959" font-family="Calibri,Calibri_MSFontService,sans-serif" font-weight="400" font-size="73" transform="matrix(1 0 0 1 2748.15 3082)">250k</text></g><g><text fill="#595959" font-family="Calibri,Calibri_MSFontService,sans-serif" font-weight="400" font-size="73" transform="matrix(1 0 0 1 2932.3 3082)">310k</text></g><g><text fill="#595959" font-family="Calibri,Calibri_MSFontService,sans-serif" font-weight="400" font-size="73" transform="matrix(1 0 0 1 3116.46 3082)">370k</text></g><path d="M4234.5 2101.67C4234.5 2078.93 4252.93 2060.5 4275.67 2060.5L4822.33 2060.5C4845.07 2060.5 4863.5 2078.93 4863.5 2101.67L4863.5 2266.33C4863.5 2289.07 4845.07 2307.5 4822.33 2307.5L4275.67 2307.5C4252.93 2307.5 4234.5 2289.07 4234.5 2266.33Z" stroke="#7F7F7F" stroke-width="4.58333" stroke-miterlimit="8" fill="#FFFFFF" fill-rule="evenodd" fill-opacity="0.701961"/><text fill="#404040" font-family="Calibri,Calibri_MSFontService,sans-serif" font-weight="400" font-size="83" transform="matrix(1 0 0 1 4503.73 2160)">CAT3D</text><path d="M4309.5 2133.5 4464.49 2133.5" stroke="#90C6B8" stroke-width="28.6458" stroke-linecap="round" stroke-miterlimit="8" fill="#FCC8BA" fill-rule="evenodd"/><path d="M4364.5 2133C4364.5 2118.92 4375.47 2107.5 4389 2107.5 4402.53 2107.5 4413.5 2118.92 4413.5 2133 4413.5 2147.08 4402.53 2158.5 4389 2158.5 4375.47 2158.5 4364.5 2147.08 4364.5 2133Z" stroke="#FFFFFF" stroke-width="6.875" stroke-miterlimit="8" fill="#90C6B8" fill-rule="evenodd"/><text fill="#404040" font-family="Calibri,Calibri_MSFontService,sans-serif" font-weight="700" font-size="83" transform="matrix(1 0 0 1 4503.11 2264)">+ CAMEO</text><path d="M4301.5 2237.5 4456.49 2237.5" stroke="#22869A" stroke-width="28.6458" stroke-linecap="round" stroke-miterlimit="8" fill="#C00000" fill-rule="evenodd"/><path d="M2626.5 2736C2626.5 2714.19 2644.19 2696.5 2666 2696.5L3221 2696.5C3242.81 2696.5 3260.5 2714.19 3260.5 2736L3260.5 2894C3260.5 2915.81 3242.81 2933.5 3221 2933.5L2666 2933.5C2644.19 2933.5 2626.5 2915.81 2626.5 2894Z" stroke="#7F7F7F" stroke-width="4.58333" stroke-miterlimit="8" fill="#FFFFFF" fill-rule="evenodd" fill-opacity="0.701961"/><text fill="#404040" font-family="Calibri,Calibri_MSFontService,sans-serif" font-weight="400" font-size="83" transform="matrix(1 0 0 1 2896.5 2799)">CAT3D</text><path d="M2702.5 2771.5 2857.49 2771.5" stroke="#90C6B8" stroke-width="28.6458" stroke-linecap="round" stroke-miterlimit="8" fill="#FCC8BA" fill-rule="evenodd"/><path d="M2757.5 2771.5C2757.5 2757.69 2768.47 2746.5 2782 2746.5 2795.53 2746.5 2806.5 2757.69 2806.5 2771.5 2806.5 2785.31 2795.53 2796.5 2782 2796.5 2768.47 2796.5 2757.5 2785.31 2757.5 2771.5Z" stroke="#FFFFFF" stroke-width="6.875" stroke-miterlimit="8" fill="#90C6B8" fill-rule="evenodd"/><text fill="#404040" font-family="Calibri,Calibri_MSFontService,sans-serif" font-weight="700" font-size="83" transform="matrix(1 0 0 1 2895.87 2892)">+ CAMEO</text><path d="M2694.5 2864.5 2849.49 2864.5" stroke="#22869A" stroke-width="28.6458" stroke-linecap="round" stroke-miterlimit="8" fill="#C00000" fill-rule="evenodd"/><path d="M2749.5 2864.5C2749.5 2850.69 2760.47 2839.5 2774 2839.5 2787.53 2839.5 2798.5 2850.69 2798.5 2864.5 2798.5 2878.31 2787.53 2889.5 2774 2889.5 2760.47 2889.5 2749.5 2878.31 2749.5 2864.5Z" stroke="#FFFFFF" stroke-width="6.875" stroke-miterlimit="8" fill="#22869A" fill-rule="evenodd"/><path d="M4356.5 2239C4356.5 2224.92 4367.47 2213.5 4381 2213.5 4394.53 2213.5 4405.5 2224.92 4405.5 2239 4405.5 2253.08 4394.53 2264.5 4381 2264.5 4367.47 2264.5 4356.5 2253.08 4356.5 2239Z" stroke="#FFFFFF" stroke-width="6.875" stroke-miterlimit="8" fill="#22869A" fill-rule="evenodd"/><rect x="2026" y="2995" width="1327" height="128" fill="#FFFFFF"/><text fill="#404040" font-family="Calibri,Calibri_MSFontService,sans-serif" font-weight="400" font-size="73" transform="matrix(1 0 0 1 2052.91 3099)">10</text><text fill="#404040" font-family="Calibri,Calibri_MSFontService,sans-serif" font-weight="400" font-size="73" transform="matrix(1 0 0 1 2139.64 3099)">40</text><text fill="#404040" font-family="Calibri,Calibri_MSFontService,sans-serif" font-weight="400" font-size="73" transform="matrix(1 0 0 1 2265.54 3099)">80</text><text fill="#404040" font-family="Calibri,Calibri_MSFontService,sans-serif" font-weight="400" font-size="73" transform="matrix(1 0 0 1 2487.13 3099)">160</text><text fill="#404040" font-family="Calibri,Calibri_MSFontService,sans-serif" font-weight="400" font-size="73" transform="matrix(1 0 0 1 3213.77 3099)">4</text><text fill="#404040" font-family="Calibri,Calibri_MSFontService,sans-serif" font-weight="400" font-size="73" transform="matrix(1 0 0 1 3251.01 3099)">0</text><text fill="#404040" font-family="Calibri,Calibri_MSFontService,sans-serif" font-weight="400" font-size="73" transform="matrix(1 0 0 1 3288.25 3099)">0</text><text fill="#404040" font-family="Calibri,Calibri_MSFontService,sans-serif" font-weight="400" font-size="73" transform="matrix(1 0 0 1 2984.26 3099)">320</text><rect x="467" y="2995" width="1328" height="128" fill="#FFFFFF"/><text fill="#404040" font-family="Calibri,Calibri_MSFontService,sans-serif" font-weight="400" font-size="73" transform="matrix(1 0 0 1 494.232 3099)">10</text><text fill="#404040" font-family="Calibri,Calibri_MSFontService,sans-serif" font-weight="400" font-size="73" transform="matrix(1 0 0 1 579.31 3099)">40</text><text fill="#404040" font-family="Calibri,Calibri_MSFontService,sans-serif" font-weight="400" font-size="73" transform="matrix(1 0 0 1 685.41 3099)">80</text><text fill="#404040" font-family="Calibri,Calibri_MSFontService,sans-serif" font-weight="400" font-size="73" transform="matrix(1 0 0 1 903.283 3099)">160</text><text fill="#404040" font-family="Calibri,Calibri_MSFontService,sans-serif" font-weight="400" font-size="73" transform="matrix(1 0 0 1 1612.46 3099)">4</text><text fill="#404040" font-family="Calibri,Calibri_MSFontService,sans-serif" font-weight="400" font-size="73" transform="matrix(1 0 0 1 1649.7 3099)">0</text><text fill="#404040" font-family="Calibri,Calibri_MSFontService,sans-serif" font-weight="400" font-size="73" transform="matrix(1 0 0 1 1686.94 3099)">0</text><text fill="#404040" font-family="Calibri,Calibri_MSFontService,sans-serif" font-weight="400" font-size="73" transform="matrix(1 0 0 1 1369.91 3099)">320</text><rect x="3605" y="3007" width="1327" height="128" fill="#FFFFFF"/><text fill="#404040" font-family="Calibri,Calibri_MSFontService,sans-serif" font-weight="400" font-size="73" transform="matrix(1 0 0 1 3631.57 3111)">10</text><text fill="#404040" font-family="Calibri,Calibri_MSFontService,sans-serif" font-weight="400" font-size="73" transform="matrix(1 0 0 1 3716.65 3111)">40</text><text fill="#404040" font-family="Calibri,Calibri_MSFontService,sans-serif" font-weight="400" font-size="73" transform="matrix(1 0 0 1 3827.7 3111)">80</text><text fill="#404040" font-family="Calibri,Calibri_MSFontService,sans-serif" font-weight="400" font-size="73" transform="matrix(1 0 0 1 4064 3111)">160</text><text fill="#404040" font-family="Calibri,Calibri_MSFontService,sans-serif" font-weight="400" font-size="73" transform="matrix(1 0 0 1 4792.43 3111)">400</text><text fill="#404040" font-family="Calibri,Calibri_MSFontService,sans-serif" font-weight="400" font-size="73" transform="matrix(1 0 0 1 4545.8 3111)">320</text><text font-family="Calibri,Calibri_MSFontService,sans-serif" font-weight="700" font-size="92" transform="matrix(1 0 0 1 4007.71 1971)">(c) LPIPS</text><text font-family="Calibri,Calibri_MSFontService,sans-serif" font-weight="700" font-size="92" transform="matrix(1 0 0 1 847.137 1971)">(a) PSNR</text><text font-family="Calibri,Calibri_MSFontService,sans-serif" font-weight="700" font-size="92" transform="matrix(1 0 0 1 2443.74 1971)">(b) SSIM</text></g></svg>