<svg width="4959" height="1608" xmlns="http://www.w3.org/2000/svg" xmlns:xlink="http://www.w3.org/1999/xlink" xml:space="preserve" overflow="hidden"><defs><clipPath id="clip0"><rect x="147" y="160" width="4959" height="1608"/></clipPath><clipPath id="clip1"><rect x="3658" y="475" width="1189" height="926"/></clipPath><clipPath id="clip2"><rect x="3658" y="475" width="1189" height="926"/></clipPath></defs><g clip-path="url(#clip0)" transform="translate(-147 -160)"><rect x="147" y="160" width="4959" height="1557" fill="#FFFFFF"/><path d="M3659.5 455.5 3659.5 1401.12" stroke="#D9D9D9" stroke-width="1.14583" stroke-miterlimit="8" fill="none" fill-rule="evenodd"/><path d="M3746.5 455.5 3746.5 1401.12" stroke="#D9D9D9" stroke-width="1.14583" stroke-miterlimit="8" fill="none" fill-rule="evenodd"/><path d="M3871.5 455.5 3871.5 1401.12" stroke="#D9D9D9" stroke-width="1.14583" stroke-miterlimit="8" fill="none" fill-rule="evenodd"/><path d="M4114.5 455.5 4114.5 1401.12" stroke="#D9D9D9" stroke-width="1.14583" stroke-miterlimit="8" fill="none" fill-rule="evenodd"/><path d="M4597.5 455.5 4597.5 1401.12" stroke="#D9D9D9" stroke-width="1.14583" stroke-miterlimit="8" fill="none" fill-rule="evenodd"/><path d="M4723.5 455.5 4723.5 1401.12" stroke="#D9D9D9" stroke-width="1.14583" stroke-miterlimit="8" fill="none" fill-rule="evenodd"/><path d="M4841.5 455.5 4841.5 1401.12" stroke="#D9D9D9" stroke-width="1.14583" stroke-miterlimit="8" fill="none" fill-rule="evenodd"/><path d="M2078.5 453.5 2078.5 1399.12" stroke="#D9D9D9" stroke-width="1.14583" stroke-miterlimit="8" fill="none" fill-rule="evenodd"/><path d="M2172.5 453.5 2172.5 1399.12" stroke="#D9D9D9" stroke-width="1.14583" stroke-miterlimit="8" fill="none" fill-rule="evenodd"/><path d="M2295.5 453.5 2295.5 1399.12" stroke="#D9D9D9" stroke-width="1.14583" stroke-miterlimit="8" fill="none" fill-rule="evenodd"/><path d="M2539.5 453.5 2539.5 1399.12" stroke="#D9D9D9" stroke-width="1.14583" stroke-miterlimit="8" fill="none" fill-rule="evenodd"/><path d="M3027.5 453.5 3027.5 1399.12" stroke="#D9D9D9" stroke-width="1.14583" stroke-miterlimit="8" fill="none" fill-rule="evenodd"/><path d="M3154.5 453.5 3154.5 1399.12" stroke="#D9D9D9" stroke-width="1.14583" stroke-miterlimit="8" fill="none" fill-rule="evenodd"/><path d="M3279.5 453.5 3279.5 1399.12" stroke="#D9D9D9" stroke-width="1.14583" stroke-miterlimit="8" fill="none" fill-rule="evenodd"/><path d="M519.5 438.5 519.5 1384.12" stroke="#D9D9D9" stroke-width="1.14583" stroke-miterlimit="8" fill="none" fill-rule="evenodd"/><path d="M610.5 438.5 610.5 1384.12" stroke="#D9D9D9" stroke-width="1.14583" stroke-miterlimit="8" fill="none" fill-rule="evenodd"/><path d="M727.5 438.5 727.5 1384.12" stroke="#D9D9D9" stroke-width="1.14583" stroke-miterlimit="8" fill="none" fill-rule="evenodd"/><path d="M963.5 438.5 963.5 1384.12" stroke="#D9D9D9" stroke-width="1.14583" stroke-miterlimit="8" fill="none" fill-rule="evenodd"/><path d="M1432.5 438.5 1432.5 1384.12" stroke="#D9D9D9" stroke-width="1.14583" stroke-miterlimit="8" fill="none" fill-rule="evenodd"/><path d="M1554.5 438.5 1554.5 1384.12" stroke="#D9D9D9" stroke-width="1.14583" stroke-miterlimit="8" fill="none" fill-rule="evenodd"/><path d="M1673.5 438.5 1673.5 1384.12" stroke="#D9D9D9" stroke-width="1.14583" stroke-miterlimit="8" fill="none" fill-rule="evenodd"/><g><path d="M518.5 1389.5 1673.5 1389.5M518.5 1216.54 1673.5 1216.54M518.5 1044.53 1673.5 1044.53M518.5 872.529 1673.5 872.529M518.5 700.523 1673.5 700.523M518.5 527.5 1673.5 527.5" stroke="#BFBFBF" stroke-width="3.4375" stroke-linejoin="round" stroke-miterlimit="10" fill="none"/></g><g><path d="M518.5 1389.5 1673.5 1389.5" stroke="#D9D9D9" stroke-width="3.4375" stroke-linejoin="round" stroke-miterlimit="10" fill="none" fill-rule="evenodd"/></g><g><path d="M519 1345 608.02 988.032 726.024 776.025 963.032 705.023 1436.05 558 1555.05 592.019 1673 617.02" stroke="#90C6B8" stroke-width="18.3333" stroke-linecap="round" stroke-linejoin="round" stroke-miterlimit="10" fill="none"/></g><g><path d="M549.245 1344.81C549.245 1361.37 535.813 1374.81 519.245 1374.81 502.676 1374.81 489.245 1361.37 489.245 1344.81 489.245 1328.24 502.676 1314.81 519.245 1314.81 535.813 1314.81 549.245 1328.24 549.245 1344.81Z" stroke="#FFFFFF" stroke-width="8.02083" stroke-linejoin="round" stroke-miterlimit="10" fill="#90C6B8"/><path d="M638.245 987.806C638.245 1004.38 624.813 1017.81 608.245 1017.81 591.676 1017.81 578.245 1004.38 578.245 987.806 578.245 971.238 591.676 957.807 608.245 957.807 624.813 957.807 638.245 971.238 638.245 987.806Z" stroke="#FFFFFF" stroke-width="8.02083" stroke-linejoin="round" stroke-miterlimit="10" fill="#90C6B8"/><path d="M756.245 775.806C756.245 792.375 742.813 805.806 726.245 805.806 709.677 805.806 696.245 792.375 696.245 775.806 696.245 759.238 709.677 745.807 726.245 745.807 742.813 745.807 756.245 759.238 756.245 775.806Z" stroke="#FFFFFF" stroke-width="8.02083" stroke-linejoin="round" stroke-miterlimit="10" fill="#90C6B8"/><path d="M993.245 704.806C993.245 721.375 979.813 734.806 963.245 734.806 946.676 734.806 933.245 721.375 933.245 704.806 933.245 688.238 946.676 674.806 963.245 674.806 979.813 674.806 993.245 688.238 993.245 704.806Z" stroke="#FFFFFF" stroke-width="8.02083" stroke-linejoin="round" stroke-miterlimit="10" fill="#90C6B8"/><path d="M1466.24 557.806C1466.24 574.375 1452.81 587.806 1436.24 587.806 1419.68 587.806 1406.24 574.375 1406.24 557.806 1406.24 541.238 1419.68 527.807 1436.24 527.807 1452.81 527.807 1466.24 541.238 1466.24 557.806Z" stroke="#FFFFFF" stroke-width="8.02083" stroke-linejoin="round" stroke-miterlimit="10" fill="#90C6B8"/><path d="M1585.24 591.806C1585.24 608.375 1571.81 621.806 1555.24 621.806 1538.68 621.806 1525.24 608.375 1525.24 591.806 1525.24 575.238 1538.68 561.807 1555.24 561.807 1571.81 561.807 1585.24 575.238 1585.24 591.806Z" stroke="#FFFFFF" stroke-width="8.02083" stroke-linejoin="round" stroke-miterlimit="10" fill="#90C6B8"/><path d="M1703.24 616.806C1703.24 633.375 1689.81 646.806 1673.24 646.806 1656.68 646.806 1643.24 633.375 1643.24 616.806 1643.24 600.238 1656.68 586.806 1673.24 586.806 1689.81 586.806 1703.24 600.238 1703.24 616.806Z" stroke="#FFFFFF" stroke-width="8.02083" stroke-linejoin="round" stroke-miterlimit="10" fill="#90C6B8"/></g><g><path d="M519 1020 608.02 882.029 726.024 676.022 963.032 649.021 1436.05 489 1555.05 521.017 1673 511.017" stroke="#22869A" stroke-width="18.3333" stroke-linecap="round" stroke-linejoin="round" stroke-miterlimit="10" fill="none"/></g><g><path d="M547.245 1020.31C547.245 1035.49 534.933 1047.81 519.745 1047.81 504.557 1047.81 492.245 1035.49 492.245 1020.31 492.245 1005.12 504.557 992.807 519.745 992.807 534.933 992.807 547.245 1005.12 547.245 1020.31Z" stroke="#FFFFFF" stroke-width="8.02083" stroke-linejoin="round" stroke-miterlimit="10" fill="#22869A"/><path d="M636.245 882.306C636.245 897.494 623.933 909.806 608.745 909.806 593.557 909.806 581.245 897.494 581.245 882.306 581.245 867.119 593.557 854.806 608.745 854.806 623.933 854.806 636.245 867.119 636.245 882.306Z" stroke="#FFFFFF" stroke-width="8.02083" stroke-linejoin="round" stroke-miterlimit="10" fill="#22869A"/><path d="M754.245 676.307C754.245 691.494 741.933 703.807 726.745 703.807 711.557 703.807 699.245 691.494 699.245 676.307 699.245 661.119 711.557 648.807 726.745 648.807 741.933 648.807 754.245 661.119 754.245 676.307Z" stroke="#FFFFFF" stroke-width="8.02083" stroke-linejoin="round" stroke-miterlimit="10" fill="#22869A"/><path d="M991.245 649.307C991.245 664.495 978.933 676.807 963.745 676.807 948.557 676.807 936.245 664.495 936.245 649.307 936.245 634.119 948.557 621.807 963.745 621.807 978.933 621.807 991.245 634.119 991.245 649.307Z" stroke="#FFFFFF" stroke-width="8.02083" stroke-linejoin="round" stroke-miterlimit="10" fill="#22869A"/><path d="M1464.25 489.307C1464.25 504.494 1451.93 516.807 1436.75 516.807 1421.56 516.807 1409.25 504.494 1409.25 489.307 1409.25 474.119 1421.56 461.807 1436.75 461.807 1451.93 461.807 1464.25 474.119 1464.25 489.307Z" stroke="#FFFFFF" stroke-width="8.02083" stroke-linejoin="round" stroke-miterlimit="10" fill="#22869A"/><path d="M1583.24 521.307C1583.24 536.494 1570.93 548.807 1555.74 548.807 1540.56 548.807 1528.24 536.494 1528.24 521.307 1528.24 506.119 1540.56 493.807 1555.74 493.807 1570.93 493.807 1583.24 506.119 1583.24 521.307Z" stroke="#FFFFFF" stroke-width="8.02083" stroke-linejoin="round" stroke-miterlimit="10" fill="#22869A"/><path d="M1701.24 511.307C1701.24 526.494 1688.93 538.807 1673.74 538.807 1658.56 538.807 1646.24 526.494 1646.24 511.307 1646.24 496.119 1658.56 483.807 1673.74 483.807 1688.93 483.807 1701.24 496.119 1701.24 511.307Z" stroke="#FFFFFF" stroke-width="8.02083" stroke-linejoin="round" stroke-miterlimit="10" fill="#22869A"/></g><g><text fill="#595959" font-family="Calibri,Calibri_MSFontService,sans-serif" font-weight="400" font-size="73" transform="matrix(1 0 0 1 304.12 1410)">16.5</text></g><g><text fill="#595959" font-family="Calibri,Calibri_MSFontService,sans-serif" font-weight="400" font-size="73" transform="matrix(1 0 0 1 304.12 1238)">17.2</text></g><g><text fill="#595959" font-family="Calibri,Calibri_MSFontService,sans-serif" font-weight="400" font-size="73" transform="matrix(1 0 0 1 304.12 1066)">17.9</text></g><g><text fill="#595959" font-family="Calibri,Calibri_MSFontService,sans-serif" font-weight="400" font-size="73" transform="matrix(1 0 0 1 304.12 894)">18.6</text></g><g><text fill="#595959" font-family="Calibri,Calibri_MSFontService,sans-serif" font-weight="400" font-size="73" transform="matrix(1 0 0 1 304.12 721)">19.3</text></g><g><text fill="#595959" font-family="Calibri,Calibri_MSFontService,sans-serif" font-weight="400" font-size="73" transform="matrix(1 0 0 1 304.12 549)">20.0</text></g><g><text fill="#595959" font-family="Calibri,Calibri_MSFontService,sans-serif" font-weight="400" font-size="73" transform="matrix(1 0 0 1 464.908 1506)">10k</text></g><g><text fill="#595959" font-family="Calibri,Calibri_MSFontService,sans-serif" font-weight="400" font-size="73" transform="matrix(1 0 0 1 612.916 1506)">60k</text></g><g><text fill="#595959" font-family="Calibri,Calibri_MSFontService,sans-serif" font-weight="400" font-size="73" transform="matrix(1 0 0 1 742.338 1506)">110k</text></g><g><text fill="#595959" font-family="Calibri,Calibri_MSFontService,sans-serif" font-weight="400" font-size="73" transform="matrix(1 0 0 1 890.346 1506)">160k</text></g><g><text fill="#595959" font-family="Calibri,Calibri_MSFontService,sans-serif" font-weight="400" font-size="73" transform="matrix(1 0 0 1 1038.35 1506)">210k</text></g><g><text fill="#595959" font-family="Calibri,Calibri_MSFontService,sans-serif" font-weight="400" font-size="73" transform="matrix(1 0 0 1 1186.36 1506)">260k</text></g><g><text fill="#595959" font-family="Calibri,Calibri_MSFontService,sans-serif" font-weight="400" font-size="73" transform="matrix(1 0 0 1 1334.37 1506)">310k</text></g><g><text fill="#595959" font-family="Calibri,Calibri_MSFontService,sans-serif" font-weight="400" font-size="73" transform="matrix(1 0 0 1 1482.38 1506)">360k</text></g><text font-family="Calibri,Calibri_MSFontService,sans-serif" font-weight="400" font-size="110" transform="matrix(1 0 0 1 3794.14 1673)">Training Iteration (k)</text><text font-family="Calibri,Calibri_MSFontService,sans-serif" font-weight="700" font-size="92" transform="matrix(1 0 0 1 4007.71 319)">(c) LPIPS</text><g><path d="M3658.5 1398.5 4843.5 1398.5M3658.5 1230.54 4843.5 1230.54M3658.5 1062.54 4843.5 1062.54M3658.5 894.53 4843.5 894.53M3658.5 726.524 4843.5 726.524M3658.5 558.5 4843.5 558.5" stroke="#BFBFBF" stroke-width="3.4375" stroke-linejoin="round" stroke-miterlimit="10" fill="none"/></g><g><path d="M3658.5 1398.5 4843.5 1398.5" stroke="#D9D9D9" stroke-width="3.4375" stroke-linejoin="round" stroke-miterlimit="10" fill="none" fill-rule="evenodd"/></g><g clip-path="url(#clip1)"><path d="M3658 500 3749.12 895.029 3871.13 1004.03 4114.13 1147.04 4600.15 1256 4722.15 1180.04 4844 1205.04" stroke="#90C6B8" stroke-width="18.3333" stroke-linecap="round" stroke-linejoin="round" stroke-miterlimit="10" fill="none"/></g><g><path d="M3687.61 499.837C3687.61 516.406 3674.17 529.837 3657.61 529.837 3641.04 529.837 3627.61 516.406 3627.61 499.837 3627.61 483.269 3641.04 469.837 3657.61 469.837 3674.17 469.837 3687.61 483.269 3687.61 499.837Z" stroke="#FFFFFF" stroke-width="8.02083" stroke-linejoin="round" stroke-miterlimit="10" fill="#90C6B8"/><path d="M3778.61 894.837C3778.61 911.406 3765.17 924.837 3748.61 924.837 3732.04 924.837 3718.61 911.406 3718.61 894.837 3718.61 878.269 3732.04 864.837 3748.61 864.837 3765.17 864.837 3778.61 878.269 3778.61 894.837Z" stroke="#FFFFFF" stroke-width="8.02083" stroke-linejoin="round" stroke-miterlimit="10" fill="#90C6B8"/><path d="M3900.61 1003.84C3900.61 1020.41 3887.17 1033.84 3870.61 1033.84 3854.04 1033.84 3840.61 1020.41 3840.61 1003.84 3840.61 987.269 3854.04 973.837 3870.61 973.837 3887.17 973.837 3900.61 987.269 3900.61 1003.84Z" stroke="#FFFFFF" stroke-width="8.02083" stroke-linejoin="round" stroke-miterlimit="10" fill="#90C6B8"/><path d="M4143.61 1146.84C4143.61 1163.41 4130.17 1176.84 4113.61 1176.84 4097.04 1176.84 4083.61 1163.41 4083.61 1146.84 4083.61 1130.27 4097.04 1116.84 4113.61 1116.84 4130.17 1116.84 4143.61 1130.27 4143.61 1146.84Z" stroke="#FFFFFF" stroke-width="8.02083" stroke-linejoin="round" stroke-miterlimit="10" fill="#90C6B8"/><path d="M4629.61 1255.84C4629.61 1272.41 4616.17 1285.84 4599.61 1285.84 4583.04 1285.84 4569.61 1272.41 4569.61 1255.84 4569.61 1239.27 4583.04 1225.84 4599.61 1225.84 4616.17 1225.84 4629.61 1239.27 4629.61 1255.84Z" stroke="#FFFFFF" stroke-width="8.02083" stroke-linejoin="round" stroke-miterlimit="10" fill="#90C6B8"/><path d="M4751.61 1179.84C4751.61 1196.41 4738.17 1209.84 4721.61 1209.84 4705.04 1209.84 4691.61 1196.41 4691.61 1179.84 4691.61 1163.27 4705.04 1149.84 4721.61 1149.84 4738.17 1149.84 4751.61 1163.27 4751.61 1179.84Z" stroke="#FFFFFF" stroke-width="8.02083" stroke-linejoin="round" stroke-miterlimit="10" fill="#90C6B8"/><path d="M4873.61 1204.84C4873.61 1221.41 4860.17 1234.84 4843.61 1234.84 4827.04 1234.84 4813.61 1221.41 4813.61 1204.84 4813.61 1188.27 4827.04 1174.84 4843.61 1174.84 4860.17 1174.84 4873.61 1188.27 4873.61 1204.84Z" stroke="#FFFFFF" stroke-width="8.02083" stroke-linejoin="round" stroke-miterlimit="10" fill="#90C6B8"/></g><g clip-path="url(#clip2)"><path d="M3658 760 3749.12 1021.03 3871.13 1138.04 4114.13 1247.04 4600.15 1323.04 4722.15 1314.04 4844 1340" stroke="#22869A" stroke-width="18.3333" stroke-linecap="round" stroke-linejoin="round" stroke-miterlimit="10" fill="none"/></g><g><path d="M3687.61 759.837C3687.61 776.406 3674.17 789.837 3657.61 789.837 3641.04 789.837 3627.61 776.406 3627.61 759.837 3627.61 743.269 3641.04 729.837 3657.61 729.837 3674.17 729.837 3687.61 743.269 3687.61 759.837Z" stroke="#FFFFFF" stroke-width="8.02083" stroke-linejoin="round" stroke-miterlimit="10" fill="#22869A"/><path d="M3778.61 1020.84C3778.61 1037.41 3765.17 1050.84 3748.61 1050.84 3732.04 1050.84 3718.61 1037.41 3718.61 1020.84 3718.61 1004.27 3732.04 990.838 3748.61 990.838 3765.17 990.838 3778.61 1004.27 3778.61 1020.84Z" stroke="#FFFFFF" stroke-width="8.02083" stroke-linejoin="round" stroke-miterlimit="10" fill="#22869A"/><path d="M3900.61 1137.84C3900.61 1154.41 3887.17 1167.84 3870.61 1167.84 3854.04 1167.84 3840.61 1154.41 3840.61 1137.84 3840.61 1121.27 3854.04 1107.84 3870.61 1107.84 3887.17 1107.84 3900.61 1121.27 3900.61 1137.84Z" stroke="#FFFFFF" stroke-width="8.02083" stroke-linejoin="round" stroke-miterlimit="10" fill="#22869A"/><path d="M4143.61 1246.84C4143.61 1263.41 4130.17 1276.84 4113.61 1276.84 4097.04 1276.84 4083.61 1263.41 4083.61 1246.84 4083.61 1230.27 4097.04 1216.84 4113.61 1216.84 4130.17 1216.84 4143.61 1230.27 4143.61 1246.84Z" stroke="#FFFFFF" stroke-width="8.02083" stroke-linejoin="round" stroke-miterlimit="10" fill="#22869A"/><path d="M4629.61 1322.84C4629.61 1339.41 4616.17 1352.84 4599.61 1352.84 4583.04 1352.84 4569.61 1339.41 4569.61 1322.84 4569.61 1306.27 4583.04 1292.84 4599.61 1292.84 4616.17 1292.84 4629.61 1306.27 4629.61 1322.84Z" stroke="#FFFFFF" stroke-width="8.02083" stroke-linejoin="round" stroke-miterlimit="10" fill="#22869A"/><path d="M4751.61 1314.84C4751.61 1331.41 4738.17 1344.84 4721.61 1344.84 4705.04 1344.84 4691.61 1331.41 4691.61 1314.84 4691.61 1298.27 4705.04 1284.84 4721.61 1284.84 4738.17 1284.84 4751.61 1298.27 4751.61 1314.84Z" stroke="#FFFFFF" stroke-width="8.02083" stroke-linejoin="round" stroke-miterlimit="10" fill="#22869A"/><path d="M4873.61 1339.84C4873.61 1356.41 4860.17 1369.84 4843.61 1369.84 4827.04 1369.84 4813.61 1356.41 4813.61 1339.84 4813.61 1323.27 4827.04 1309.84 4843.61 1309.84 4860.17 1309.84 4873.61 1323.27 4873.61 1339.84Z" stroke="#FFFFFF" stroke-width="8.02083" stroke-linejoin="round" stroke-miterlimit="10" fill="#22869A"/></g><g><text fill="#595959" font-family="Calibri,Calibri_MSFontService,sans-serif" font-weight="400" font-size="73" transform="matrix(1 0 0 1 3459.94 1420)">0.27</text></g><g><text fill="#595959" font-family="Calibri,Calibri_MSFontService,sans-serif" font-weight="400" font-size="73" transform="matrix(1 0 0 1 3459.94 1252)">0.29</text></g><g><text fill="#595959" font-family="Calibri,Calibri_MSFontService,sans-serif" font-weight="400" font-size="73" transform="matrix(1 0 0 1 3459.94 1084)">0.31</text></g><g><text fill="#595959" font-family="Calibri,Calibri_MSFontService,sans-serif" font-weight="400" font-size="73" transform="matrix(1 0 0 1 3459.94 916)">0.33</text></g><g><text fill="#595959" font-family="Calibri,Calibri_MSFontService,sans-serif" font-weight="400" font-size="73" transform="matrix(1 0 0 1 3459.94 748)">0.35</text></g><g><text fill="#595959" font-family="Calibri,Calibri_MSFontService,sans-serif" font-weight="400" font-size="73" transform="matrix(1 0 0 1 3459.94 580)">0.37</text></g><g><text fill="#595959" font-family="Calibri,Calibri_MSFontService,sans-serif" font-weight="400" font-size="73" transform="matrix(1 0 0 1 3604.16 1515)">10k</text></g><g><text fill="#595959" font-family="Calibri,Calibri_MSFontService,sans-serif" font-weight="400" font-size="73" transform="matrix(1 0 0 1 3786.56 1515)">70k</text></g><g><text fill="#595959" font-family="Calibri,Calibri_MSFontService,sans-serif" font-weight="400" font-size="73" transform="matrix(1 0 0 1 3950.37 1515)">130k</text></g><g><text fill="#595959" font-family="Calibri,Calibri_MSFontService,sans-serif" font-weight="400" font-size="73" transform="matrix(1 0 0 1 4132.78 1515)">190k</text></g><g><text fill="#595959" font-family="Calibri,Calibri_MSFontService,sans-serif" font-weight="400" font-size="73" transform="matrix(1 0 0 1 4315.18 1515)">250k</text></g><g><text fill="#595959" font-family="Calibri,Calibri_MSFontService,sans-serif" font-weight="400" font-size="73" transform="matrix(1 0 0 1 4497.58 1515)">310k</text></g><g><text fill="#595959" font-family="Calibri,Calibri_MSFontService,sans-serif" font-weight="400" font-size="73" transform="matrix(1 0 0 1 4679.98 1515)">370k</text></g><text font-family="Calibri,Calibri_MSFontService,sans-serif" font-weight="400" font-size="110" transform="matrix(1 0 0 1 686.447 1649)">Training Iteration (k)</text><text font-family="Calibri,Calibri_MSFontService,sans-serif" font-weight="700" font-size="92" transform="matrix(1 0 0 1 847.137 319)">(a) PSNR</text><path d="M1022.5 1129.83C1022.5 1106.45 1041.45 1087.5 1064.83 1087.5L1619.17 1087.5C1642.55 1087.5 1661.5 1106.45 1661.5 1129.83L1661.5 1299.17C1661.5 1322.55 1642.55 1341.5 1619.17 1341.5L1064.83 1341.5C1041.45 1341.5 1022.5 1322.55 1022.5 1299.17Z" stroke="#7F7F7F" stroke-width="4.58333" stroke-miterlimit="8" fill="#FFFFFF" fill-rule="evenodd" fill-opacity="0.701961"/><text fill="#404040" font-family="Calibri,Calibri_MSFontService,sans-serif" font-weight="400" font-size="83" transform="matrix(1 0 0 1 1292.64 1191)">CAT3D</text><path d="M1098.5 1163.5 1253.49 1163.5" stroke="#90C6B8" stroke-width="28.6458" stroke-linecap="round" stroke-miterlimit="8" fill="#FCC8BA" fill-rule="evenodd"/><path d="M1153.5 1163.5C1153.5 1149.69 1164.47 1138.5 1178 1138.5 1191.53 1138.5 1202.5 1149.69 1202.5 1163.5 1202.5 1177.31 1191.53 1188.5 1178 1188.5 1164.47 1188.5 1153.5 1177.31 1153.5 1163.5Z" stroke="#FFFFFF" stroke-width="6.875" stroke-miterlimit="8" fill="#90C6B8" fill-rule="evenodd"/><text fill="#404040" font-family="Calibri,Calibri_MSFontService,sans-serif" font-weight="700" font-size="83" transform="matrix(1 0 0 1 1292.01 1297)">+ CAMEO</text><path d="M1090.5 1270.5 1245.49 1270.5" stroke="#22869A" stroke-width="28.6458" stroke-linecap="round" stroke-miterlimit="8" fill="#C00000" fill-rule="evenodd"/><path d="M1145.5 1270.5C1145.5 1256.69 1156.47 1245.5 1170 1245.5 1183.53 1245.5 1194.5 1256.69 1194.5 1270.5 1194.5 1284.31 1183.53 1295.5 1170 1295.5 1156.47 1295.5 1145.5 1284.31 1145.5 1270.5Z" stroke="#FFFFFF" stroke-width="6.875" stroke-miterlimit="8" fill="#22869A" fill-rule="evenodd"/><text font-family="Calibri,Calibri_MSFontService,sans-serif" font-weight="400" font-size="110" transform="matrix(1 0 0 1 2230.58 1664)">Training Iteration (k)</text><g><path d="M2083.5 1388.5 3280.5 1388.5M2083.5 1219.54 3280.5 1219.54M2083.5 1050.53 3280.5 1050.53M2083.5 881.529 3280.5 881.529M2083.5 712.524 3280.5 712.524M2083.5 542.5 3280.5 542.5" stroke="#BFBFBF" stroke-width="3.4375" stroke-linejoin="round" stroke-miterlimit="10" fill="none"/></g><g><path d="M2083.5 1388.5 3280.5 1388.5" stroke="#D9D9D9" stroke-width="3.4375" stroke-linejoin="round" stroke-miterlimit="10" fill="none" fill-rule="evenodd"/></g><g><path d="M2084 1330 2176.07 1050.03 2299.08 780.026 2544.08 746.024 3035.1 611.02 3158.1 602 3281 661.022" stroke="#90C6B8" stroke-width="18.3333" stroke-linecap="round" stroke-linejoin="round" stroke-miterlimit="10" fill="none"/></g><g><path d="M2114.16 1330.33C2114.16 1346.9 2100.73 1360.33 2084.16 1360.33 2067.59 1360.33 2054.16 1346.9 2054.16 1330.33 2054.16 1313.76 2067.59 1300.33 2084.16 1300.33 2100.73 1300.33 2114.16 1313.76 2114.16 1330.33Z" stroke="#FFFFFF" stroke-width="8.02083" stroke-linejoin="round" stroke-miterlimit="10" fill="#90C6B8"/><path d="M2206.16 1050.33C2206.16 1066.9 2192.73 1080.33 2176.16 1080.33 2159.59 1080.33 2146.16 1066.9 2146.16 1050.33 2146.16 1033.76 2159.59 1020.33 2176.16 1020.33 2192.73 1020.33 2206.16 1033.76 2206.16 1050.33Z" stroke="#FFFFFF" stroke-width="8.02083" stroke-linejoin="round" stroke-miterlimit="10" fill="#90C6B8"/><path d="M2329.16 780.331C2329.16 796.899 2315.73 810.33 2299.16 810.33 2282.59 810.33 2269.16 796.899 2269.16 780.331 2269.16 763.762 2282.59 750.331 2299.16 750.331 2315.73 750.331 2329.16 763.762 2329.16 780.331Z" stroke="#FFFFFF" stroke-width="8.02083" stroke-linejoin="round" stroke-miterlimit="10" fill="#90C6B8"/><path d="M2574.16 746.331C2574.16 762.899 2560.73 776.33 2544.16 776.33 2527.59 776.33 2514.16 762.899 2514.16 746.331 2514.16 729.762 2527.59 716.331 2544.16 716.331 2560.73 716.331 2574.16 729.762 2574.16 746.331Z" stroke="#FFFFFF" stroke-width="8.02083" stroke-linejoin="round" stroke-miterlimit="10" fill="#90C6B8"/><path d="M3065.16 611.33C3065.16 627.899 3051.73 641.33 3035.16 641.33 3018.59 641.33 3005.16 627.899 3005.16 611.33 3005.16 594.762 3018.59 581.331 3035.16 581.331 3051.73 581.331 3065.16 594.762 3065.16 611.33Z" stroke="#FFFFFF" stroke-width="8.02083" stroke-linejoin="round" stroke-miterlimit="10" fill="#90C6B8"/><path d="M3188.16 602.33C3188.16 618.899 3174.73 632.33 3158.16 632.33 3141.59 632.33 3128.16 618.899 3128.16 602.33 3128.16 585.762 3141.59 572.331 3158.16 572.331 3174.73 572.331 3188.16 585.762 3188.16 602.33Z" stroke="#FFFFFF" stroke-width="8.02083" stroke-linejoin="round" stroke-miterlimit="10" fill="#90C6B8"/><path d="M3311.16 661.33C3311.16 677.899 3297.73 691.33 3281.16 691.33 3264.59 691.33 3251.16 677.899 3251.16 661.33 3251.16 644.762 3264.59 631.33 3281.16 631.33 3297.73 631.33 3311.16 644.762 3311.16 661.33Z" stroke="#FFFFFF" stroke-width="8.02083" stroke-linejoin="round" stroke-miterlimit="10" fill="#90C6B8"/></g><g><path d="M2084 1050 2176.07 907.03 2299.08 712.023 2544.08 636.021 3035.1 492 3158.1 543.018 3281 543.018" stroke="#22869A" stroke-width="18.3333" stroke-linecap="round" stroke-linejoin="round" stroke-miterlimit="10" fill="none"/></g><g><path d="M2114.16 1050.33C2114.16 1066.9 2100.73 1080.33 2084.16 1080.33 2067.59 1080.33 2054.16 1066.9 2054.16 1050.33 2054.16 1033.76 2067.59 1020.33 2084.16 1020.33 2100.73 1020.33 2114.16 1033.76 2114.16 1050.33Z" stroke="#FFFFFF" stroke-width="8.02083" stroke-linejoin="round" stroke-miterlimit="10" fill="#22869A"/><path d="M2206.16 907.33C2206.16 923.899 2192.73 937.33 2176.16 937.33 2159.59 937.33 2146.16 923.899 2146.16 907.33 2146.16 890.762 2159.59 877.331 2176.16 877.331 2192.73 877.331 2206.16 890.762 2206.16 907.33Z" stroke="#FFFFFF" stroke-width="8.02083" stroke-linejoin="round" stroke-miterlimit="10" fill="#22869A"/><path d="M2329.16 712.33C2329.16 728.899 2315.73 742.33 2299.16 742.33 2282.59 742.33 2269.16 728.899 2269.16 712.33 2269.16 695.762 2282.59 682.331 2299.16 682.331 2315.73 682.331 2329.16 695.762 2329.16 712.33Z" stroke="#FFFFFF" stroke-width="8.02083" stroke-linejoin="round" stroke-miterlimit="10" fill="#22869A"/><path d="M2574.16 636.331C2574.16 652.899 2560.73 666.33 2544.16 666.33 2527.59 666.33 2514.16 652.899 2514.16 636.331 2514.16 619.762 2527.59 606.331 2544.16 606.331 2560.73 606.331 2574.16 619.762 2574.16 636.331Z" stroke="#FFFFFF" stroke-width="8.02083" stroke-linejoin="round" stroke-miterlimit="10" fill="#22869A"/><path d="M3065.16 492.33C3065.16 508.899 3051.73 522.33 3035.16 522.33 3018.59 522.33 3005.16 508.899 3005.16 492.33 3005.16 475.762 3018.59 462.331 3035.16 462.331 3051.73 462.331 3065.16 475.762 3065.16 492.33Z" stroke="#FFFFFF" stroke-width="8.02083" stroke-linejoin="round" stroke-miterlimit="10" fill="#22869A"/><path d="M3188.16 543.33C3188.16 559.899 3174.73 573.33 3158.16 573.33 3141.59 573.33 3128.16 559.899 3128.16 543.33 3128.16 526.762 3141.59 513.33 3158.16 513.33 3174.73 513.33 3188.16 526.762 3188.16 543.33Z" stroke="#FFFFFF" stroke-width="8.02083" stroke-linejoin="round" stroke-miterlimit="10" fill="#22869A"/><path d="M3311.16 543.33C3311.16 559.899 3297.73 573.33 3281.16 573.33 3264.59 573.33 3251.16 559.899 3251.16 543.33 3251.16 526.762 3264.59 513.33 3281.16 513.33 3297.73 513.33 3311.16 526.762 3311.16 543.33Z" stroke="#FFFFFF" stroke-width="8.02083" stroke-linejoin="round" stroke-miterlimit="10" fill="#22869A"/></g><g><text fill="#595959" font-family="Calibri,Calibri_MSFontService,sans-serif" font-weight="400" font-size="73" transform="matrix(1 0 0 1 1885.89 1410)">0.61</text></g><g><text fill="#595959" font-family="Calibri,Calibri_MSFontService,sans-serif" font-weight="400" font-size="73" transform="matrix(1 0 0 1 1885.89 1241)">0.63</text></g><g><text fill="#595959" font-family="Calibri,Calibri_MSFontService,sans-serif" font-weight="400" font-size="73" transform="matrix(1 0 0 1 1885.89 1072)">0.65</text></g><g><text fill="#595959" font-family="Calibri,Calibri_MSFontService,sans-serif" font-weight="400" font-size="73" transform="matrix(1 0 0 1 1885.89 902)">0.67</text></g><g><text fill="#595959" font-family="Calibri,Calibri_MSFontService,sans-serif" font-weight="400" font-size="73" transform="matrix(1 0 0 1 1885.89 733)">0.69</text></g><g><text fill="#595959" font-family="Calibri,Calibri_MSFontService,sans-serif" font-weight="400" font-size="73" transform="matrix(1 0 0 1 1885.89 564)">0.71</text></g><g><text fill="#595959" font-family="Calibri,Calibri_MSFontService,sans-serif" font-weight="400" font-size="73" transform="matrix(1 0 0 1 2030.11 1505)">10k</text></g><g><text fill="#595959" font-family="Calibri,Calibri_MSFontService,sans-serif" font-weight="400" font-size="73" transform="matrix(1 0 0 1 2214.27 1505)">70k</text></g><g><text fill="#595959" font-family="Calibri,Calibri_MSFontService,sans-serif" font-weight="400" font-size="73" transform="matrix(1 0 0 1 2379.84 1505)">130k</text></g><g><text fill="#595959" font-family="Calibri,Calibri_MSFontService,sans-serif" font-weight="400" font-size="73" transform="matrix(1 0 0 1 2563.99 1505)">190k</text></g><g><text fill="#595959" font-family="Calibri,Calibri_MSFontService,sans-serif" font-weight="400" font-size="73" transform="matrix(1 0 0 1 2748.15 1505)">250k</text></g><g><text fill="#595959" font-family="Calibri,Calibri_MSFontService,sans-serif" font-weight="400" font-size="73" transform="matrix(1 0 0 1 2932.3 1505)">310k</text></g><g><text fill="#595959" font-family="Calibri,Calibri_MSFontService,sans-serif" font-weight="400" font-size="73" transform="matrix(1 0 0 1 3116.46 1505)">370k</text></g><text font-family="Calibri,Calibri_MSFontService,sans-serif" font-weight="700" font-size="92" transform="matrix(1 0 0 1 2443.74 319)">(b) SSIM</text><path d="M4195.5 550.001C4195.5 527.08 4214.08 508.5 4237 508.5L4783 508.5C4805.92 508.5 4824.5 527.08 4824.5 550.001L4824.5 715.999C4824.5 738.92 4805.92 757.5 4783 757.5L4237 757.5C4214.08 757.5 4195.5 738.92 4195.5 715.999Z" stroke="#7F7F7F" stroke-width="4.58333" stroke-miterlimit="8" fill="#FFFFFF" fill-rule="evenodd" fill-opacity="0.701961"/><text fill="#404040" font-family="Calibri,Calibri_MSFontService,sans-serif" font-weight="400" font-size="83" transform="matrix(1 0 0 1 4464.83 608)">CAT3D</text><path d="M4270.5 580.5 4425.49 580.5" stroke="#90C6B8" stroke-width="28.6458" stroke-linecap="round" stroke-miterlimit="8" fill="#FCC8BA" fill-rule="evenodd"/><path d="M4325.5 580.5C4325.5 566.693 4336.47 555.5 4350 555.5 4363.53 555.5 4374.5 566.693 4374.5 580.5 4374.5 594.307 4363.53 605.5 4350 605.5 4336.47 605.5 4325.5 594.307 4325.5 580.5Z" stroke="#FFFFFF" stroke-width="6.875" stroke-miterlimit="8" fill="#90C6B8" fill-rule="evenodd"/><text fill="#404040" font-family="Calibri,Calibri_MSFontService,sans-serif" font-weight="700" font-size="83" transform="matrix(1 0 0 1 4464.2 708)">+ CAMEO</text><path d="M4262.5 680.5 4417.49 680.5" stroke="#22869A" stroke-width="28.6458" stroke-linecap="round" stroke-miterlimit="8" fill="#C00000" fill-rule="evenodd"/><path d="M2626.5 1127.33C2626.5 1103.68 2645.68 1084.5 2669.33 1084.5L3217.67 1084.5C3241.32 1084.5 3260.5 1103.68 3260.5 1127.33L3260.5 1298.67C3260.5 1322.32 3241.32 1341.5 3217.67 1341.5L2669.33 1341.5C2645.68 1341.5 2626.5 1322.32 2626.5 1298.67Z" stroke="#7F7F7F" stroke-width="4.58333" stroke-miterlimit="8" fill="#FFFFFF" fill-rule="evenodd" fill-opacity="0.701961"/><text fill="#404040" font-family="Calibri,Calibri_MSFontService,sans-serif" font-weight="400" font-size="83" transform="matrix(1 0 0 1 2896.5 1191)">CAT3D</text><path d="M2702.5 1163.5 2857.49 1163.5" stroke="#90C6B8" stroke-width="28.6458" stroke-linecap="round" stroke-miterlimit="8" fill="#FCC8BA" fill-rule="evenodd"/><path d="M2757.5 1163.5C2757.5 1149.69 2768.47 1138.5 2782 1138.5 2795.53 1138.5 2806.5 1149.69 2806.5 1163.5 2806.5 1177.31 2795.53 1188.5 2782 1188.5 2768.47 1188.5 2757.5 1177.31 2757.5 1163.5Z" stroke="#FFFFFF" stroke-width="6.875" stroke-miterlimit="8" fill="#90C6B8" fill-rule="evenodd"/><text fill="#404040" font-family="Calibri,Calibri_MSFontService,sans-serif" font-weight="700" font-size="83" transform="matrix(1 0 0 1 2895.87 1286)">+ CAMEO</text><path d="M2694.5 1258.5 2849.49 1258.5" stroke="#22869A" stroke-width="28.6458" stroke-linecap="round" stroke-miterlimit="8" fill="#C00000" fill-rule="evenodd"/><path d="M2749.5 1258.5C2749.5 1244.69 2760.47 1233.5 2774 1233.5 2787.53 1233.5 2798.5 1244.69 2798.5 1258.5 2798.5 1272.31 2787.53 1283.5 2774 1283.5 2760.47 1283.5 2749.5 1272.31 2749.5 1258.5Z" stroke="#FFFFFF" stroke-width="6.875" stroke-miterlimit="8" fill="#22869A" fill-rule="evenodd"/><path d="M4317.5 682.5C4317.5 668.693 4328.47 657.5 4342 657.5 4355.53 657.5 4366.5 668.693 4366.5 682.5 4366.5 696.307 4355.53 707.5 4342 707.5 4328.47 707.5 4317.5 696.307 4317.5 682.5Z" stroke="#FFFFFF" stroke-width="6.875" stroke-miterlimit="8" fill="#22869A" fill-rule="evenodd"/><rect x="432" y="1399" width="1302" height="128" fill="#FFFFFF"/><text fill="#404040" font-family="Calibri,Calibri_MSFontService,sans-serif" font-weight="400" font-size="73" transform="matrix(1 0 0 1 458.107 1503)">10</text><text fill="#404040" font-family="Calibri,Calibri_MSFontService,sans-serif" font-weight="400" font-size="73" transform="matrix(1 0 0 1 547.335 1503)">40</text><text fill="#404040" font-family="Calibri,Calibri_MSFontService,sans-serif" font-weight="400" font-size="73" transform="matrix(1 0 0 1 660.391 1503)">80</text><text fill="#404040" font-family="Calibri,Calibri_MSFontService,sans-serif" font-weight="400" font-size="73" transform="matrix(1 0 0 1 882.926 1503)">160</text><text fill="#404040" font-family="Calibri,Calibri_MSFontService,sans-serif" font-weight="400" font-size="73" transform="matrix(1 0 0 1 1346.08 1503)">320</text><text fill="#404040" font-family="Calibri,Calibri_MSFontService,sans-serif" font-weight="400" font-size="73" transform="matrix(1 0 0 1 1468.3 1503)">360</text><text fill="#404040" font-family="Calibri,Calibri_MSFontService,sans-serif" font-weight="400" font-size="73" transform="matrix(1 0 0 1 1595.77 1503)">400</text><rect x="2026" y="1414" width="1327" height="129" fill="#FFFFFF"/><text fill="#404040" font-family="Calibri,Calibri_MSFontService,sans-serif" font-weight="400" font-size="73" transform="matrix(1 0 0 1 2052.91 1519)">10</text><text fill="#404040" font-family="Calibri,Calibri_MSFontService,sans-serif" font-weight="400" font-size="73" transform="matrix(1 0 0 1 2143.93 1519)">40</text><text fill="#404040" font-family="Calibri,Calibri_MSFontService,sans-serif" font-weight="400" font-size="73" transform="matrix(1 0 0 1 2259.25 1519)">80</text><text fill="#404040" font-family="Calibri,Calibri_MSFontService,sans-serif" font-weight="400" font-size="73" transform="matrix(1 0 0 1 2486.62 1519)">160</text><text fill="#404040" font-family="Calibri,Calibri_MSFontService,sans-serif" font-weight="400" font-size="73" transform="matrix(1 0 0 1 2959.07 1519)">320</text><text fill="#404040" font-family="Calibri,Calibri_MSFontService,sans-serif" font-weight="400" font-size="73" transform="matrix(1 0 0 1 3083.74 1519)">360</text><text fill="#404040" font-family="Calibri,Calibri_MSFontService,sans-serif" font-weight="400" font-size="73" transform="matrix(1 0 0 1 3213.77 1519)">400</text><rect x="3589" y="1400" width="1327" height="128" fill="#FFFFFF"/><text fill="#404040" font-family="Calibri,Calibri_MSFontService,sans-serif" font-weight="400" font-size="73" transform="matrix(1 0 0 1 3615.82 1504)">10</text><text fill="#404040" font-family="Calibri,Calibri_MSFontService,sans-serif" font-weight="400" font-size="73" transform="matrix(1 0 0 1 3706.84 1504)">40</text><text fill="#404040" font-family="Calibri,Calibri_MSFontService,sans-serif" font-weight="400" font-size="73" transform="matrix(1 0 0 1 3822.16 1504)">80</text><text fill="#404040" font-family="Calibri,Calibri_MSFontService,sans-serif" font-weight="400" font-size="73" transform="matrix(1 0 0 1 4049.53 1504)">160</text><text fill="#404040" font-family="Calibri,Calibri_MSFontService,sans-serif" font-weight="400" font-size="73" transform="matrix(1 0 0 1 4521.98 1504)">320</text><text fill="#404040" font-family="Calibri,Calibri_MSFontService,sans-serif" font-weight="400" font-size="73" transform="matrix(1 0 0 1 4646.65 1504)">360</text><text fill="#404040" font-family="Calibri,Calibri_MSFontService,sans-serif" font-weight="400" font-size="73" transform="matrix(1 0 0 1 4776.68 1504)">400</text></g></svg>